<?xml version="1.0" encoding="utf-8"?>
<!-- Generator: Adobe Illustrator 22.1.0, SVG Export Plug-In . SVG Version: 6.00 Build 0)  -->
<svg version="1.1" id="Layer_1" xmlns="http://www.w3.org/2000/svg" xmlns:xlink="http://www.w3.org/1999/xlink" x="0px" y="0px"
	 viewBox="0 0 657.5 190.5" style="enable-background:new 0 0 657.5 190.5;" xml:space="preserve">
<style type="text/css">
	.st0{clip-path:url(#SVGID_2_);}
	.st1{fill:#919194;}
	.st2{fill:none;stroke:#000000;stroke-width:0.8767;}
	.st3{fill:none;stroke:#B22330;stroke-width:0.8767;stroke-dasharray:1.75,1.75;}
	.st4{fill:none;stroke:#B22330;stroke-width:0.8767;}
</style>
<g>
	<defs>
		<rect id="SVGID_1_" x="7" y="-55.7" width="647" height="252.5"/>
	</defs>
	<clipPath id="SVGID_2_">
		<use xlink:href="#SVGID_1_"  style="overflow:visible;"/>
	</clipPath>
	<g class="st0">
		<path class="st1" d="M634.2,190.4c-0.1,0-0.1,0-0.1-0.1c0,0,0-0.1,0-0.1c0,0,0-0.1,0-0.1l1.4-1.9c-0.2,0-0.4,0.1-0.6,0.1
			c-0.4,0-0.8-0.1-1.1-0.3c-0.3-0.2-0.5-0.4-0.7-0.8c-0.2-0.3-0.2-0.6-0.2-1c0-0.3,0.1-0.7,0.2-1c0.2-0.3,0.4-0.6,0.7-0.8
			c0.3-0.2,0.7-0.3,1.1-0.3c0.4,0,0.8,0.1,1.1,0.3c0.3,0.2,0.6,0.4,0.7,0.8c0.2,0.3,0.2,0.6,0.2,1c0,0.3,0,0.6-0.1,0.8
			c-0.1,0.2-0.2,0.5-0.4,0.7l-1.8,2.6c0,0,0,0-0.1,0.1c0,0-0.1,0.1-0.1,0.1c0,0-0.1,0-0.1,0H634.2z M634.9,187.7
			c0.3,0,0.5-0.1,0.8-0.2c0.2-0.1,0.4-0.3,0.6-0.5c0.1-0.2,0.2-0.5,0.2-0.8c0-0.3-0.1-0.6-0.2-0.8c-0.1-0.2-0.3-0.4-0.6-0.5
			c-0.2-0.1-0.5-0.2-0.8-0.2c-0.3,0-0.5,0.1-0.8,0.2s-0.4,0.3-0.6,0.5c-0.1,0.2-0.2,0.5-0.2,0.8s0.1,0.6,0.2,0.8
			c0.1,0.2,0.3,0.4,0.6,0.5S634.6,187.7,634.9,187.7z M640.6,190.5c-0.7,0-1.3-0.2-1.6-0.7c-0.3-0.4-0.5-1-0.5-1.8l0-0.7l0-0.7
			c0-0.7,0.2-1.3,0.5-1.8c0.3-0.4,0.9-0.7,1.6-0.7c0.7,0,1.3,0.2,1.6,0.7c0.3,0.4,0.5,1,0.5,1.8c0,0.2,0,0.4,0,0.7
			c0,0.3,0,0.6,0,0.7c0,0.7-0.2,1.3-0.5,1.8C641.8,190.3,641.3,190.5,640.6,190.5z M640.6,190c0.5,0,0.9-0.2,1.1-0.5
			c0.3-0.3,0.4-0.8,0.4-1.4c0-0.2,0-0.4,0-0.7s0-0.5,0-0.7c0-0.6-0.1-1.1-0.4-1.4c-0.3-0.3-0.6-0.5-1.1-0.5c-0.5,0-0.9,0.2-1.1,0.5
			c-0.3,0.3-0.4,0.8-0.4,1.4l0,0.7l0,0.7c0,0.6,0.1,1.1,0.4,1.4C639.7,189.8,640.1,190,640.6,190z M645.8,190.5
			c-0.4,0-0.7-0.1-1-0.2c-0.3-0.1-0.5-0.3-0.6-0.4c-0.1-0.2-0.2-0.3-0.2-0.4c0-0.1,0-0.1,0.1-0.1c0,0,0.1-0.1,0.1-0.1h0.1
			c0,0,0.1,0,0.1,0c0,0,0.1,0,0.1,0.1c0.1,0.2,0.3,0.3,0.5,0.4c0.2,0.1,0.4,0.1,0.8,0.1c0.4,0,0.7-0.1,0.9-0.2
			c0.2-0.1,0.3-0.3,0.3-0.6c0-0.2,0-0.3-0.1-0.4c-0.1-0.1-0.2-0.2-0.4-0.3c-0.2-0.1-0.5-0.2-0.9-0.3c-0.5-0.1-0.9-0.3-1.1-0.5
			c-0.2-0.2-0.3-0.5-0.3-0.8c0-0.2,0.1-0.4,0.2-0.6c0.1-0.2,0.3-0.3,0.5-0.5c0.2-0.1,0.5-0.2,0.9-0.2c0.4,0,0.6,0.1,0.9,0.2
			c0.2,0.1,0.4,0.3,0.5,0.4c0.1,0.2,0.2,0.3,0.2,0.4c0,0.1,0,0.1-0.1,0.1c0,0-0.1,0-0.1,0h-0.1c-0.1,0-0.1,0-0.2-0.1
			c-0.1-0.2-0.3-0.3-0.4-0.4c-0.1-0.1-0.4-0.1-0.7-0.1c-0.3,0-0.6,0.1-0.8,0.2c-0.2,0.1-0.3,0.3-0.3,0.6c0,0.1,0,0.3,0.1,0.4
			c0.1,0.1,0.2,0.2,0.4,0.3c0.2,0.1,0.5,0.2,0.8,0.2c0.5,0.1,0.9,0.3,1.1,0.5c0.2,0.2,0.3,0.5,0.3,0.8c0,0.2-0.1,0.5-0.2,0.7
			c-0.1,0.2-0.3,0.4-0.6,0.5C646.5,190.5,646.2,190.5,645.8,190.5z"/>
		<path class="st2" d="M0,19.6c0.5,0,3.9,0,4.4,0c0.6,0,2-1.7,2.5-2.9c0.4-1.1,1.3-4.1,2.5-0.4c1.2,3.7,3.7,3.1,4.2,2.9
			c0.4-0.3,1-0.4,1.6,0c0.6,0.4,1-2,1-3.3c0-1.3,0.9-16.4,0.9-15.4c0,1,1.2,30,1.3,31.2c0.1,1.1,0.4-0.7,0.7-3.7
			c0.3-3,0.3-8.7,1.9-9.1c1.6-0.4,5.9,1,7.8-1.7c1.9-2.7,3-4.8,3.7-4.8c0.7,0,1.9,4.5,3.7,5.8c1.9,1.3,6.5,1.5,7.8,1.5"/>
		<path class="st2" d="M43.8,19.6c0.5,0,3.9,0,4.4,0c0.6,0,2-1.7,2.5-2.9c0.4-1.1,1.3-4.1,2.5-0.4c1.2,3.7,3.7,3.1,4.2,2.9
			c0.4-0.3,1-0.4,1.6,0c0.6,0.4,1-2,1-3.3c0-1.3,0.9-16.4,0.9-15.4c0,1,1.2,30,1.3,31.2c0.1,1.1,0.4-0.7,0.7-3.7
			c0.3-3,0.3-8.7,1.9-9.1c1.6-0.4,5.9,1,7.8-1.7c1.9-2.7,3-4.8,3.7-4.8c0.7,0,1.9,4.5,3.7,5.8c1.9,1.3,6.5,1.5,7.8,1.5"/>
		<path class="st2" d="M87.7,19.6c0.5,0,3.9,0,4.4,0c0.6,0,2-1.7,2.5-2.9c0.4-1.1,1.3-4.1,2.5-0.4c1.2,3.7,3.7,3.1,4.2,2.9
			c0.4-0.3,1-0.4,1.6,0c0.6,0.4,1-2,1-3.3c0-1.3,0.9-16.4,0.9-15.4c0,1,1.2,30,1.3,31.2c0.1,1.1,0.4-0.7,0.7-3.7
			c0.3-3,0.3-8.7,1.9-9.1c1.6-0.4,5.9,1,7.8-1.7c1.9-2.7,3-4.8,3.7-4.8s1.9,4.5,3.7,5.8c1.9,1.3,6.5,1.5,7.8,1.5"/>
		<path class="st2" d="M131.5,19.6c0.5,0,3.9,0,4.4,0c0.6,0,2-1.7,2.5-2.9c0.4-1.1,1.3-4.1,2.5-0.4c1.2,3.7,3.7,3.1,4.2,2.9
			c0.4-0.3,1-0.4,1.6,0c0.6,0.4,1-2,1-3.3c0-1.3,0.9-16.4,0.9-15.4c0,1,1.2,30,1.3,31.2c0.1,1.1,0.4-0.7,0.7-3.7
			c0.3-3,0.3-8.7,1.9-9.1c1.6-0.4,5.9,1,7.8-1.7c1.9-2.7,3-4.8,3.7-4.8c0.7,0,1.9,4.5,3.7,5.8c1.9,1.3,6.5,1.5,7.8,1.5"/>
		<path class="st2" d="M175.3,19.6c0.5,0,3.9,0,4.4,0c0.6,0,2-1.7,2.5-2.9c0.4-1.1,1.3-4.1,2.5-0.4c1.2,3.7,3.7,3.1,4.2,2.9
			c0.4-0.3,1-0.4,1.6,0c0.6,0.4,1-2,1-3.3c0-1.3,0.9-16.4,0.9-15.4c0,1,1.2,30,1.3,31.2c0.1,1.1,0.4-0.7,0.7-3.7
			c0.3-3,0.3-8.7,1.9-9.1c1.6-0.4,5.9,1,7.8-1.7c1.9-2.7,3-4.8,3.7-4.8c0.7,0,1.9,4.5,3.7,5.8c1.9,1.3,6.5,1.5,7.8,1.5"/>
		<path class="st2" d="M219.2,19.6c0.5,0,3.9,0,4.4,0c0.6,0,2-1.7,2.5-2.9c0.4-1.1,1.3-4.1,2.5-0.4c1.2,3.7,3.7,3.1,4.2,2.9
			c0.4-0.3,1-0.4,1.6,0c0.6,0.4,1-2,1-3.3c0-1.3,0.9-16.4,0.9-15.4c0,1,1.2,30,1.3,31.2c0.1,1.1,0.4-0.7,0.7-3.7
			c0.3-3,0.3-8.7,1.9-9.1c1.6-0.4,5.9,1,7.8-1.7c1.9-2.7,3-4.8,3.7-4.8c0.7,0,1.9,4.5,3.7,5.8c1.9,1.3,6.5,1.5,7.8,1.5"/>
		<path class="st2" d="M263,19.6c0.5,0,3.9,0,4.4,0c0.6,0,2-1.7,2.5-2.9c0.4-1.1,1.3-4.1,2.5-0.4c1.2,3.7,3.7,3.1,4.2,2.9
			c0.4-0.3,1-0.4,1.6,0c0.6,0.4,1-2,1-3.3c0-1.3,0.9-16.4,0.9-15.4c0,1,1.2,30,1.3,31.2c0.1,1.1,0.4-0.7,0.7-3.7
			c0.3-3,0.3-8.7,1.9-9.1c1.6-0.4,5.9,1,7.8-1.7c1.9-2.7,3-4.8,3.7-4.8s1.9,4.5,3.7,5.8c1.9,1.3,6.5,1.5,7.8,1.5"/>
		<path class="st2" d="M306.8,19.6c0.5,0,3.9,0,4.4,0c0.6,0,2-1.7,2.5-2.9c0.4-1.1,1.3-4.1,2.5-0.4c1.2,3.7,3.7,3.1,4.2,2.9
			c0.4-0.3,1-0.4,1.6,0c0.6,0.4,1-2,1-3.3c0-1.3,0.9-16.4,0.9-15.4c0,1,1.2,30,1.3,31.2c0.1,1.1,0.4-0.7,0.7-3.7
			c0.3-3,0.3-8.7,1.9-9.1c1.6-0.4,5.9,1,7.8-1.7c1.9-2.7,3-4.8,3.7-4.8s1.9,4.5,3.7,5.8c1.9,1.3,6.5,1.5,7.8,1.5"/>
		<path class="st2" d="M350.7,19.6c0.5,0,3.9,0,4.4,0c0.6,0,2-1.7,2.5-2.9c0.4-1.1,1.3-4.1,2.5-0.4c1.2,3.7,3.7,3.1,4.2,2.9
			c0.4-0.3,1-0.4,1.6,0c0.6,0.4,1-2,1-3.3c0-1.3,0.9-16.4,0.9-15.4c0,1,1.2,30,1.3,31.2c0.1,1.1,0.4-0.7,0.7-3.7
			c0.3-3,0.3-8.7,1.9-9.1c1.6-0.4,5.9,1,7.8-1.7c1.9-2.7,3-4.8,3.7-4.8c0.7,0,1.9,4.5,3.7,5.8c1.9,1.3,6.5,1.5,7.8,1.5"/>
		<path class="st2" d="M394.5,19.6c0.5,0,3.9,0,4.4,0c0.6,0,2-1.7,2.5-2.9c0.4-1.1,1.3-4.1,2.5-0.4c1.2,3.7,3.7,3.1,4.2,2.9
			c0.4-0.3,1-0.4,1.6,0c0.6,0.4,1-2,1-3.3c0-1.3,0.9-16.4,0.9-15.4c0,1,1.2,30,1.3,31.2c0.1,1.1,0.4-0.7,0.7-3.7
			c0.3-3,0.3-8.7,1.9-9.1c1.6-0.4,5.9,1,7.8-1.7c1.9-2.7,3-4.8,3.7-4.8c0.7,0,1.9,4.5,3.7,5.8c1.9,1.3,6.5,1.5,7.8,1.5"/>
		<path class="st2" d="M438.3,19.6c0.5,0,3.9,0,4.4,0c0.6,0,2-1.7,2.5-2.9c0.4-1.1,1.3-4.1,2.5-0.4c1.2,3.7,3.7,3.1,4.2,2.9
			c0.4-0.3,1-0.4,1.6,0c0.6,0.4,1-2,1-3.3c0-1.3,0.9-16.4,0.9-15.4c0,1,1.2,30,1.3,31.2c0.1,1.1,0.4-0.7,0.7-3.7
			c0.3-3,0.3-8.7,1.9-9.1c1.6-0.4,5.9,1,7.8-1.7c1.9-2.7,3-4.8,3.7-4.8s1.9,4.5,3.7,5.8c1.9,1.3,6.5,1.5,7.8,1.5"/>
		<path class="st2" d="M482.2,19.6c0.5,0,3.9,0,4.4,0c0.6,0,2-1.7,2.5-2.9c0.4-1.1,1.3-4.1,2.5-0.4c1.2,3.7,3.7,3.1,4.2,2.9
			c0.4-0.3,1-0.4,1.6,0c0.6,0.4,1-2,1-3.3c0-1.3,0.9-16.4,0.9-15.4c0,1,1.2,30,1.3,31.2c0.1,1.1,0.4-0.7,0.7-3.7
			c0.3-3,0.3-8.7,1.9-9.1c1.6-0.4,5.9,1,7.8-1.7c1.9-2.7,3-4.8,3.7-4.8c0.7,0,1.9,4.5,3.7,5.8c1.9,1.3,6.5,1.5,7.8,1.5"/>
		<path class="st2" d="M526,19.6c0.5,0,3.9,0,4.4,0c0.6,0,2-1.7,2.5-2.9c0.4-1.1,1.3-4.1,2.5-0.4c1.2,3.7,3.7,3.1,4.2,2.9
			c0.4-0.3,1-0.4,1.6,0c0.6,0.4,1-2,1-3.3c0-1.3,0.9-16.4,0.9-15.4c0,1,1.2,30,1.3,31.2c0.1,1.1,0.4-0.7,0.7-3.7
			c0.3-3,0.3-8.7,1.9-9.1c1.6-0.4,5.9,1,7.8-1.7c1.9-2.7,3-4.8,3.7-4.8c0.7,0,1.9,4.5,3.7,5.8c1.9,1.3,6.5,1.5,7.8,1.5"/>
		<path class="st2" d="M569.9,19.6c0.5,0,3.9,0,4.4,0c0.6,0,2-1.7,2.5-2.9c0.4-1.1,1.3-4.1,2.5-0.4c1.2,3.7,3.7,3.1,4.2,2.9
			c0.4-0.3,1-0.4,1.6,0c0.6,0.4,1-2,1-3.3c0-1.3,0.9-16.4,0.9-15.4c0,1,1.2,30,1.3,31.2c0.1,1.1,0.4-0.7,0.7-3.7
			c0.3-3,0.3-8.7,1.9-9.1c1.6-0.4,5.9,1,7.8-1.7c1.9-2.7,3-4.8,3.7-4.8s1.9,4.5,3.7,5.8c1.9,1.3,6.5,1.5,7.8,1.5"/>
		<path class="st2" d="M613.7,19.6c0.5,0,3.9,0,4.4,0c0.6,0,2-1.7,2.5-2.9c0.4-1.1,1.3-4.1,2.5-0.4c1.2,3.7,3.7,3.1,4.2,2.9
			c0.4-0.3,1-0.4,1.6,0c0.6,0.4,1-2,1-3.3c0-1.3,0.9-16.4,0.9-15.4c0,1,1.2,30,1.3,31.2c0.1,1.1,0.4-0.7,0.7-3.7
			c0.3-3,0.3-8.7,1.9-9.1c1.6-0.4,5.9,1,7.8-1.7c1.9-2.7,3-4.8,3.7-4.8c0.7,0,1.9,4.5,3.7,5.8c1.9,1.3,6.5,1.5,7.8,1.5"/>
		<path class="st2" d="M0,58.2c0.5,0,3.9,0,4.4,0c0.6,0,2-1.7,2.5-2.9c0.4-1.1,1.3-4.1,2.5-0.4c1.2,3.7,3.7,3.1,4.2,2.9
			c0.4-0.3,1-0.4,1.6,0s1-2,1-3.3c0-1.3,0.9-16.4,0.9-15.4s1.2,30,1.3,31.2s0.4-0.7,0.7-3.7c0.3-3,0.3-8.7,1.9-9.1
			c1.6-0.4,5.9,1,7.8-1.7c1.9-2.7,3-4.8,3.7-4.8c0.7,0,1.9,4.5,3.7,5.8c1.9,1.3,6.5,1.5,7.8,1.5"/>
		<path class="st2" d="M43.8,58.2c0.5,0,3.9,0,4.4,0c0.6,0,2-1.7,2.5-2.9c0.4-1.1,1.3-4.1,2.5-0.4c1.2,3.7,3.7,3.1,4.2,2.9
			c0.4-0.3,1-0.4,1.6,0s1-2,1-3.3c0-1.3,0.9-16.4,0.9-15.4s1.2,30,1.3,31.2c0.1,1.1,0.4-0.7,0.7-3.7c0.3-3,0.3-8.7,1.9-9.1
			c1.6-0.4,5.9,1,7.8-1.7c1.9-2.7,3-4.8,3.7-4.8c0.7,0,1.9,4.5,3.7,5.8c1.9,1.3,6.5,1.5,7.8,1.5"/>
		<path class="st2" d="M87.7,58.2c0.5,0,3.9,0,4.4,0c0.6,0,2-1.7,2.5-2.9c0.4-1.1,1.3-4.1,2.5-0.4c1.2,3.7,3.7,3.1,4.2,2.9
			c0.4-0.3,1-0.4,1.6,0c0.6,0.4,1-2,1-3.3c0-1.3,0.9-16.4,0.9-15.4s1.2,30,1.3,31.2c0.1,1.1,0.4-0.7,0.7-3.7c0.3-3,0.3-8.7,1.9-9.1
			c1.6-0.4,5.9,1,7.8-1.7c1.9-2.7,3-4.8,3.7-4.8s1.9,4.5,3.7,5.8c1.9,1.3,6.5,1.5,7.8,1.5"/>
		<path class="st2" d="M131.5,58.2c0.5,0,3.9,0,4.4,0c0.6,0,2-1.7,2.5-2.9c0.4-1.1,1.3-4.1,2.5-0.4c1.2,3.7,3.7,3.1,4.2,2.9
			c0.4-0.3,1-0.4,1.6,0s1-2,1-3.3c0-1.3,0.9-16.4,0.9-15.4s1.2,30,1.3,31.2c0.1,1.1,0.4-0.7,0.7-3.7c0.3-3,0.3-8.7,1.9-9.1
			s5.9,1,7.8-1.7c1.9-2.7,3-4.8,3.7-4.8c0.7,0,1.9,4.5,3.7,5.8c1.9,1.3,6.5,1.5,7.8,1.5"/>
		<path class="st2" d="M175.3,58.2c0.5,0,3.9,0,4.4,0c0.6,0,2-1.7,2.5-2.9c0.4-1.1,1.3-4.1,2.5-0.4c1.2,3.7,3.7,3.1,4.2,2.9
			c0.4-0.3,1-0.4,1.6,0c0.6,0.4,1-2,1-3.3c0-1.3,0.9-16.4,0.9-15.4s1.2,30,1.3,31.2c0.1,1.1,0.4-0.7,0.7-3.7c0.3-3,0.3-8.7,1.9-9.1
			s5.9,1,7.8-1.7c1.9-2.7,3-4.8,3.7-4.8c0.7,0,1.9,4.5,3.7,5.8c1.9,1.3,6.5,1.5,7.8,1.5"/>
		<path class="st2" d="M219.2,58.2c0.5,0,3.9,0,4.4,0c0.6,0,2-1.7,2.5-2.9c0.4-1.1,1.3-4.1,2.5-0.4c1.2,3.7,3.7,3.1,4.2,2.9
			c0.4-0.3,1-0.4,1.6,0s1-2,1-3.3c0-1.3,0.9-16.4,0.9-15.4s1.2,30,1.3,31.2c0.1,1.1,0.4-0.7,0.7-3.7c0.3-3,0.3-8.7,1.9-9.1
			s5.9,1,7.8-1.7c1.9-2.7,3-4.8,3.7-4.8c0.7,0,1.9,4.5,3.7,5.8c1.9,1.3,6.5,1.5,7.8,1.5"/>
		<path class="st2" d="M263,58.2c0.5,0,3.9,0,4.4,0c0.6,0,2-1.7,2.5-2.9c0.4-1.1,1.3-4.1,2.5-0.4c1.2,3.7,3.7,3.1,4.2,2.9
			c0.4-0.3,1-0.4,1.6,0c0.6,0.4,1-2,1-3.3c0-1.3,0.9-16.4,0.9-15.4s1.2,30,1.3,31.2c0.1,1.1,0.4-0.7,0.7-3.7c0.3-3,0.3-8.7,1.9-9.1
			s5.9,1,7.8-1.7c1.9-2.7,3-4.8,3.7-4.8s1.9,4.5,3.7,5.8c1.9,1.3,6.5,1.5,7.8,1.5"/>
		<path class="st2" d="M306.8,58.2c0.5,0,3.9,0,4.4,0c0.6,0,2-1.7,2.5-2.9c0.4-1.1,1.3-4.1,2.5-0.4c1.2,3.7,3.7,3.1,4.2,2.9
			c0.4-0.3,1-0.4,1.6,0s1-2,1-3.3c0-1.3,0.9-16.4,0.9-15.4s1.2,30,1.3,31.2s0.4-0.7,0.7-3.7c0.3-3,0.3-8.7,1.9-9.1s5.9,1,7.8-1.7
			c1.9-2.7,3-4.8,3.7-4.8s1.9,4.5,3.7,5.8c1.9,1.3,6.5,1.5,7.8,1.5"/>
		<path class="st2" d="M350.7,58.2c0.5,0,3.9,0,4.4,0c0.6,0,2-1.7,2.5-2.9c0.4-1.1,1.3-4.1,2.5-0.4c1.2,3.7,3.7,3.1,4.2,2.9
			c0.4-0.3,1-0.4,1.6,0s1-2,1-3.3c0-1.3,0.9-16.4,0.9-15.4s1.2,30,1.3,31.2c0.1,1.1,0.4-0.7,0.7-3.7c0.3-3,0.3-8.7,1.9-9.1
			s5.9,1,7.8-1.7c1.9-2.7,3-4.8,3.7-4.8c0.7,0,1.9,4.5,3.7,5.8c1.9,1.3,6.5,1.5,7.8,1.5"/>
		<path class="st2" d="M394.5,58.2c0.5,0,3.9,0,4.4,0c0.6,0,2-1.7,2.5-2.9c0.4-1.1,1.3-4.1,2.5-0.4c1.2,3.7,3.7,3.1,4.2,2.9
			c0.4-0.3,1-0.4,1.6,0c0.6,0.4,1-2,1-3.3c0-1.3,0.9-16.4,0.9-15.4s1.2,30,1.3,31.2c0.1,1.1,0.4-0.7,0.7-3.7c0.3-3,0.3-8.7,1.9-9.1
			s5.9,1,7.8-1.7c1.9-2.7,3-4.8,3.7-4.8c0.7,0,1.9,4.5,3.7,5.8c1.9,1.3,6.5,1.5,7.8,1.5"/>
		<path class="st2" d="M438.3,58.2c0.5,0,3.9,0,4.4,0c0.6,0,2-1.7,2.5-2.9c0.4-1.1,1.3-4.1,2.5-0.4c1.2,3.7,3.7,3.1,4.2,2.9
			c0.4-0.3,1-0.4,1.6,0s1-2,1-3.3c0-1.3,0.9-16.4,0.9-15.4s1.2,30,1.3,31.2s0.4-0.7,0.7-3.7c0.3-3,0.3-8.7,1.9-9.1s5.9,1,7.8-1.7
			c1.9-2.7,3-4.8,3.7-4.8s1.9,4.5,3.7,5.8c1.9,1.3,6.5,1.5,7.8,1.5"/>
		<path class="st2" d="M482.2,58.2c0.5,0,3.9,0,4.4,0c0.6,0,2-1.7,2.5-2.9c0.4-1.1,1.3-4.1,2.5-0.4c1.2,3.7,3.7,3.1,4.2,2.9
			c0.4-0.3,1-0.4,1.6,0s1-2,1-3.3c0-1.3,0.9-16.4,0.9-15.4s1.2,30,1.3,31.2c0.1,1.1,0.4-0.7,0.7-3.7c0.3-3,0.3-8.7,1.9-9.1
			c1.6-0.4,5.9,1,7.8-1.7c1.9-2.7,3-4.8,3.7-4.8c0.7,0,1.9,4.5,3.7,5.8c1.9,1.3,6.5,1.5,7.8,1.5"/>
		<path class="st2" d="M526,58.2c0.5,0,3.9,0,4.4,0c0.6,0,2-1.7,2.5-2.9c0.4-1.1,1.3-4.1,2.5-0.4c1.2,3.7,3.7,3.1,4.2,2.9
			c0.4-0.3,1-0.4,1.6,0c0.6,0.4,1-2,1-3.3c0-1.3,0.9-16.4,0.9-15.4s1.2,30,1.3,31.2s0.4-0.7,0.7-3.7c0.3-3,0.3-8.7,1.9-9.1
			c1.6-0.4,5.9,1,7.8-1.7c1.9-2.7,3-4.8,3.7-4.8c0.7,0,1.9,4.5,3.7,5.8c1.9,1.3,6.5,1.5,7.8,1.5"/>
		<path class="st2" d="M569.9,58.2c0.5,0,3.9,0,4.4,0c0.6,0,2-1.7,2.5-2.9c0.4-1.1,1.3-4.1,2.5-0.4c1.2,3.7,3.7,3.1,4.2,2.9
			c0.4-0.3,1-0.4,1.6,0c0.6,0.4,1-2,1-3.3c0-1.3,0.9-16.4,0.9-15.4s1.2,30,1.3,31.2c0.1,1.1,0.4-0.7,0.7-3.7c0.3-3,0.3-8.7,1.9-9.1
			c1.6-0.4,5.9,1,7.8-1.7c1.9-2.7,3-4.8,3.7-4.8s1.9,4.5,3.7,5.8c1.9,1.3,6.5,1.5,7.8,1.5"/>
		<path class="st2" d="M613.7,58.2c0.5,0,3.9,0,4.4,0c0.6,0,2-1.7,2.5-2.9c0.4-1.1,1.3-4.1,2.5-0.4c1.2,3.7,3.7,3.1,4.2,2.9
			c0.4-0.3,1-0.4,1.6,0c0.6,0.4,1-2,1-3.3c0-1.3,0.9-16.4,0.9-15.4s1.2,30,1.3,31.2c0.1,1.1,0.4-0.7,0.7-3.7c0.3-3,0.3-8.7,1.9-9.1
			c1.6-0.4,5.9,1,7.8-1.7c1.9-2.7,3-4.8,3.7-4.8c0.7,0,1.9,4.5,3.7,5.8c1.9,1.3,6.5,1.5,7.8,1.5"/>
		<path class="st2" d="M0,96.8c0.5,0,3.9,0,4.4,0c0.6,0,2-1.7,2.5-2.9s1.3-4.1,2.5-0.4c1.2,3.7,3.7,3.1,4.2,2.9c0.4-0.3,1-0.4,1.6,0
			s1-2,1-3.3s0.9-16.4,0.9-15.4c0,1,1.2,30,1.3,31.2c0.1,1.1,0.4-0.7,0.7-3.7c0.3-3,0.3-8.7,1.9-9.1c1.6-0.4,5.9,1,7.8-1.7
			c1.9-2.7,3-4.8,3.7-4.8c0.7,0,1.9,4.5,3.7,5.8c1.9,1.3,6.5,1.5,7.8,1.5"/>
		<path class="st2" d="M43.8,96.8c0.5,0,3.9,0,4.4,0c0.6,0,2-1.7,2.5-2.9s1.3-4.1,2.5-0.4c1.2,3.7,3.7,3.1,4.2,2.9
			c0.4-0.3,1-0.4,1.6,0s1-2,1-3.3s0.9-16.4,0.9-15.4c0,1,1.2,30,1.3,31.2c0.1,1.1,0.4-0.7,0.7-3.7c0.3-3,0.3-8.7,1.9-9.1
			c1.6-0.4,5.9,1,7.8-1.7c1.9-2.7,3-4.8,3.7-4.8c0.7,0,1.9,4.5,3.7,5.8c1.9,1.3,6.5,1.5,7.8,1.5"/>
		<path class="st2" d="M87.7,96.8c0.5,0,3.9,0,4.4,0c0.6,0,2-1.7,2.5-2.9c0.4-1.1,1.3-4.1,2.5-0.4c1.2,3.7,3.7,3.1,4.2,2.9
			c0.4-0.3,1-0.4,1.6,0c0.6,0.4,1-2,1-3.3s0.9-16.4,0.9-15.4c0,1,1.2,30,1.3,31.2c0.1,1.1,0.4-0.7,0.7-3.7c0.3-3,0.3-8.7,1.9-9.1
			c1.6-0.4,5.9,1,7.8-1.7c1.9-2.7,3-4.8,3.7-4.8s1.9,4.5,3.7,5.8c1.9,1.3,6.5,1.5,7.8,1.5"/>
		<path class="st2" d="M131.5,96.8c0.5,0,3.9,0,4.4,0c0.6,0,2-1.7,2.5-2.9c0.4-1.1,1.3-4.1,2.5-0.4c1.2,3.7,3.7,3.1,4.2,2.9
			s1-0.4,1.6,0s1-2,1-3.3s0.9-16.4,0.9-15.4c0,1,1.2,30,1.3,31.2c0.1,1.1,0.4-0.7,0.7-3.7c0.3-3,0.3-8.7,1.9-9.1s5.9,1,7.8-1.7
			c1.9-2.7,3-4.8,3.7-4.8c0.7,0,1.9,4.5,3.7,5.8c1.9,1.3,6.5,1.5,7.8,1.5"/>
		<path class="st2" d="M175.3,96.8c0.5,0,3.9,0,4.4,0c0.6,0,2-1.7,2.5-2.9c0.4-1.1,1.3-4.1,2.5-0.4c1.2,3.7,3.7,3.1,4.2,2.9
			c0.4-0.3,1-0.4,1.6,0c0.6,0.4,1-2,1-3.3s0.9-16.4,0.9-15.4c0,1,1.2,30,1.3,31.2c0.1,1.1,0.4-0.7,0.7-3.7c0.3-3,0.3-8.7,1.9-9.1
			s5.9,1,7.8-1.7c1.9-2.7,3-4.8,3.7-4.8c0.7,0,1.9,4.5,3.7,5.8c1.9,1.3,6.5,1.5,7.8,1.5"/>
		<path class="st2" d="M219.2,96.8c0.5,0,3.9,0,4.4,0c0.6,0,2-1.7,2.5-2.9s1.3-4.1,2.5-0.4c1.2,3.7,3.7,3.1,4.2,2.9s1-0.4,1.6,0
			s1-2,1-3.3s0.9-16.4,0.9-15.4c0,1,1.2,30,1.3,31.2c0.1,1.1,0.4-0.7,0.7-3.7c0.3-3,0.3-8.7,1.9-9.1s5.9,1,7.8-1.7
			c1.9-2.7,3-4.8,3.7-4.8c0.7,0,1.9,4.5,3.7,5.8c1.9,1.3,6.5,1.5,7.8,1.5"/>
		<path class="st2" d="M263,96.8c0.5,0,3.9,0,4.4,0c0.6,0,2-1.7,2.5-2.9c0.4-1.1,1.3-4.1,2.5-0.4c1.2,3.7,3.7,3.1,4.2,2.9
			c0.4-0.3,1-0.4,1.6,0c0.6,0.4,1-2,1-3.3s0.9-16.4,0.9-15.4c0,1,1.2,30,1.3,31.2c0.1,1.1,0.4-0.7,0.7-3.7c0.3-3,0.3-8.7,1.9-9.1
			s5.9,1,7.8-1.7c1.9-2.7,3-4.8,3.7-4.8s1.9,4.5,3.7,5.8c1.9,1.3,6.5,1.5,7.8,1.5"/>
		<path class="st2" d="M306.8,96.8c0.5,0,3.9,0,4.4,0c0.6,0,2-1.7,2.5-2.9c0.4-1.1,1.3-4.1,2.5-0.4c1.2,3.7,3.7,3.1,4.2,2.9
			c0.4-0.3,1-0.4,1.6,0s1-2,1-3.3s0.9-16.4,0.9-15.4c0,1,1.2,30,1.3,31.2c0.1,1.1,0.4-0.7,0.7-3.7c0.3-3,0.3-8.7,1.9-9.1
			s5.9,1,7.8-1.7c1.9-2.7,3-4.8,3.7-4.8s1.9,4.5,3.7,5.8c1.9,1.3,6.5,1.5,7.8,1.5"/>
		<path class="st2" d="M350.7,96.8c0.5,0,3.9,0,4.4,0c0.6,0,2-1.7,2.5-2.9s1.3-4.1,2.5-0.4c1.2,3.7,3.7,3.1,4.2,2.9
			c0.4-0.3,1-0.4,1.6,0s1-2,1-3.3s0.9-16.4,0.9-15.4c0,1,1.2,30,1.3,31.2c0.1,1.1,0.4-0.7,0.7-3.7c0.3-3,0.3-8.7,1.9-9.1
			s5.9,1,7.8-1.7c1.9-2.7,3-4.8,3.7-4.8c0.7,0,1.9,4.5,3.7,5.8c1.9,1.3,6.5,1.5,7.8,1.5"/>
		<path class="st2" d="M394.5,96.8c0.5,0,3.9,0,4.4,0c0.6,0,2-1.7,2.5-2.9c0.4-1.1,1.3-4.1,2.5-0.4c1.2,3.7,3.7,3.1,4.2,2.9
			c0.4-0.3,1-0.4,1.6,0c0.6,0.4,1-2,1-3.3s0.9-16.4,0.9-15.4c0,1,1.2,30,1.3,31.2c0.1,1.1,0.4-0.7,0.7-3.7c0.3-3,0.3-8.7,1.9-9.1
			s5.9,1,7.8-1.7c1.9-2.7,3-4.8,3.7-4.8c0.7,0,1.9,4.5,3.7,5.8c1.9,1.3,6.5,1.5,7.8,1.5"/>
		<path class="st2" d="M438.3,96.8c0.5,0,3.9,0,4.4,0c0.6,0,2-1.7,2.5-2.9c0.4-1.1,1.3-4.1,2.5-0.4c1.2,3.7,3.7,3.1,4.2,2.9
			c0.4-0.3,1-0.4,1.6,0s1-2,1-3.3s0.9-16.4,0.9-15.4c0,1,1.2,30,1.3,31.2c0.1,1.1,0.4-0.7,0.7-3.7c0.3-3,0.3-8.7,1.9-9.1
			s5.9,1,7.8-1.7c1.9-2.7,3-4.8,3.7-4.8s1.9,4.5,3.7,5.8c1.9,1.3,6.5,1.5,7.8,1.5"/>
		<path class="st2" d="M482.2,96.8c0.5,0,3.9,0,4.4,0c0.6,0,2-1.7,2.5-2.9c0.4-1.1,1.3-4.1,2.5-0.4c1.2,3.7,3.7,3.1,4.2,2.9
			c0.4-0.3,1-0.4,1.6,0s1-2,1-3.3s0.9-16.4,0.9-15.4c0,1,1.2,30,1.3,31.2c0.1,1.1,0.4-0.7,0.7-3.7c0.3-3,0.3-8.7,1.9-9.1
			c1.6-0.4,5.9,1,7.8-1.7c1.9-2.7,3-4.8,3.7-4.8c0.7,0,1.9,4.5,3.7,5.8c1.9,1.3,6.5,1.5,7.8,1.5"/>
		<path class="st2" d="M526,96.8c0.5,0,3.9,0,4.4,0c0.6,0,2-1.7,2.5-2.9c0.4-1.1,1.3-4.1,2.5-0.4c1.2,3.7,3.7,3.1,4.2,2.9
			c0.4-0.3,1-0.4,1.6,0c0.6,0.4,1-2,1-3.3s0.9-16.4,0.9-15.4c0,1,1.2,30,1.3,31.2c0.1,1.1,0.4-0.7,0.7-3.7c0.3-3,0.3-8.7,1.9-9.1
			c1.6-0.4,5.9,1,7.8-1.7c1.9-2.7,3-4.8,3.7-4.8c0.7,0,1.9,4.5,3.7,5.8c1.9,1.3,6.5,1.5,7.8,1.5"/>
		<path class="st2" d="M569.9,96.8c0.5,0,3.9,0,4.4,0c0.6,0,2-1.7,2.5-2.9c0.4-1.1,1.3-4.1,2.5-0.4c1.2,3.7,3.7,3.1,4.2,2.9
			c0.4-0.3,1-0.4,1.6,0c0.6,0.4,1-2,1-3.3s0.9-16.4,0.9-15.4c0,1,1.2,30,1.3,31.2c0.1,1.1,0.4-0.7,0.7-3.7c0.3-3,0.3-8.7,1.9-9.1
			c1.6-0.4,5.9,1,7.8-1.7c1.9-2.7,3-4.8,3.7-4.8s1.9,4.5,3.7,5.8c1.9,1.3,6.5,1.5,7.8,1.5"/>
		<path class="st2" d="M613.7,96.8c0.5,0,3.9,0,4.4,0c0.6,0,2-1.7,2.5-2.9c0.4-1.1,1.3-4.1,2.5-0.4c1.2,3.7,3.7,3.1,4.2,2.9
			c0.4-0.3,1-0.4,1.6,0c0.6,0.4,1-2,1-3.3s0.9-16.4,0.9-15.4c0,1,1.2,30,1.3,31.2c0.1,1.1,0.4-0.7,0.7-3.7c0.3-3,0.3-8.7,1.9-9.1
			c1.6-0.4,5.9,1,7.8-1.7c1.9-2.7,3-4.8,3.7-4.8c0.7,0,1.9,4.5,3.7,5.8c1.9,1.3,6.5,1.5,7.8,1.5"/>
		<path class="st2" d="M0,135.4c0.5,0,3.9,0,4.4,0c0.6,0,2-1.7,2.5-2.9s1.3-4.1,2.5-0.4c1.2,3.7,3.7,3.1,4.2,2.9
			c0.4-0.3,1-0.4,1.6,0s1-2,1-3.3s0.9-16.4,0.9-15.4c0,1,1.2,30,1.3,31.2s0.4-0.7,0.7-3.7c0.3-3,0.3-8.7,1.9-9.1
			c1.6-0.4,5.9,1,7.8-1.7c1.9-2.7,3-4.8,3.7-4.8c0.7,0,1.9,4.5,3.7,5.8c1.9,1.3,6.5,1.5,7.8,1.5"/>
		<path class="st2" d="M43.8,135.4c0.5,0,3.9,0,4.4,0c0.6,0,2-1.7,2.5-2.9s1.3-4.1,2.5-0.4c1.2,3.7,3.7,3.1,4.2,2.9
			c0.4-0.3,1-0.4,1.6,0s1-2,1-3.3s0.9-16.4,0.9-15.4c0,1,1.2,30,1.3,31.2c0.1,1.1,0.4-0.7,0.7-3.7c0.3-3,0.3-8.7,1.9-9.1
			c1.6-0.4,5.9,1,7.8-1.7c1.9-2.7,3-4.8,3.7-4.8c0.7,0,1.9,4.5,3.7,5.8c1.9,1.3,6.5,1.5,7.8,1.5"/>
		<path class="st2" d="M87.7,135.4c0.5,0,3.9,0,4.4,0c0.6,0,2-1.7,2.5-2.9c0.4-1.1,1.3-4.1,2.5-0.4c1.2,3.7,3.7,3.1,4.2,2.9
			c0.4-0.3,1-0.4,1.6,0c0.6,0.4,1-2,1-3.3s0.9-16.4,0.9-15.4c0,1,1.2,30,1.3,31.2c0.1,1.1,0.4-0.7,0.7-3.7s0.3-8.7,1.9-9.1
			c1.6-0.4,5.9,1,7.8-1.7c1.9-2.7,3-4.8,3.7-4.8s1.9,4.5,3.7,5.8c1.9,1.3,6.5,1.5,7.8,1.5"/>
		<path class="st2" d="M131.5,135.4c0.5,0,3.9,0,4.4,0c0.6,0,2-1.7,2.5-2.9c0.4-1.1,1.3-4.1,2.5-0.4c1.2,3.7,3.7,3.1,4.2,2.9
			s1-0.4,1.6,0s1-2,1-3.3s0.9-16.4,0.9-15.4c0,1,1.2,30,1.3,31.2c0.1,1.1,0.4-0.7,0.7-3.7c0.3-3,0.3-8.7,1.9-9.1s5.9,1,7.8-1.7
			c1.9-2.7,3-4.8,3.7-4.8c0.7,0,1.9,4.5,3.7,5.8c1.9,1.3,6.5,1.5,7.8,1.5"/>
		<path class="st2" d="M175.3,135.4c0.5,0,3.9,0,4.4,0c0.6,0,2-1.7,2.5-2.9c0.4-1.1,1.3-4.1,2.5-0.4c1.2,3.7,3.7,3.1,4.2,2.9
			c0.4-0.3,1-0.4,1.6,0c0.6,0.4,1-2,1-3.3s0.9-16.4,0.9-15.4c0,1,1.2,30,1.3,31.2c0.1,1.1,0.4-0.7,0.7-3.7c0.3-3,0.3-8.7,1.9-9.1
			s5.9,1,7.8-1.7c1.9-2.7,3-4.8,3.7-4.8c0.7,0,1.9,4.5,3.7,5.8c1.9,1.3,6.5,1.5,7.8,1.5"/>
		<path class="st2" d="M219.2,135.4c0.5,0,3.9,0,4.4,0c0.6,0,2-1.7,2.5-2.9s1.3-4.1,2.5-0.4c1.2,3.7,3.7,3.1,4.2,2.9s1-0.4,1.6,0
			s1-2,1-3.3s0.9-16.4,0.9-15.4c0,1,1.2,30,1.3,31.2c0.1,1.1,0.4-0.7,0.7-3.7c0.3-3,0.3-8.7,1.9-9.1s5.9,1,7.8-1.7
			c1.9-2.7,3-4.8,3.7-4.8c0.7,0,1.9,4.5,3.7,5.8c1.9,1.3,6.5,1.5,7.8,1.5"/>
		<path class="st2" d="M263,135.4c0.5,0,3.9,0,4.4,0c0.6,0,2-1.7,2.5-2.9c0.4-1.1,1.3-4.1,2.5-0.4c1.2,3.7,3.7,3.1,4.2,2.9
			c0.4-0.3,1-0.4,1.6,0c0.6,0.4,1-2,1-3.3s0.9-16.4,0.9-15.4c0,1,1.2,30,1.3,31.2c0.1,1.1,0.4-0.7,0.7-3.7c0.3-3,0.3-8.7,1.9-9.1
			s5.9,1,7.8-1.7c1.9-2.7,3-4.8,3.7-4.8s1.9,4.5,3.7,5.8c1.9,1.3,6.5,1.5,7.8,1.5"/>
		<path class="st2" d="M306.8,135.4c0.5,0,3.9,0,4.4,0c0.6,0,2-1.7,2.5-2.9c0.4-1.1,1.3-4.1,2.5-0.4c1.2,3.7,3.7,3.1,4.2,2.9
			c0.4-0.3,1-0.4,1.6,0s1-2,1-3.3s0.9-16.4,0.9-15.4c0,1,1.2,30,1.3,31.2s0.4-0.7,0.7-3.7c0.3-3,0.3-8.7,1.9-9.1s5.9,1,7.8-1.7
			c1.9-2.7,3-4.8,3.7-4.8s1.9,4.5,3.7,5.8c1.9,1.3,6.5,1.5,7.8,1.5"/>
		<path class="st2" d="M350.7,135.4c0.5,0,3.9,0,4.4,0c0.6,0,2-1.7,2.5-2.9s1.3-4.1,2.5-0.4c1.2,3.7,3.7,3.1,4.2,2.9
			c0.4-0.3,1-0.4,1.6,0s1-2,1-3.3s0.9-16.4,0.9-15.4c0,1,1.2,30,1.3,31.2c0.1,1.1,0.4-0.7,0.7-3.7c0.3-3,0.3-8.7,1.9-9.1
			s5.9,1,7.8-1.7c1.9-2.7,3-4.8,3.7-4.8c0.7,0,1.9,4.5,3.7,5.8c1.9,1.3,6.5,1.5,7.8,1.5"/>
		<path class="st2" d="M394.5,135.4c0.5,0,3.9,0,4.4,0c0.6,0,2-1.7,2.5-2.9c0.4-1.1,1.3-4.1,2.5-0.4c1.2,3.7,3.7,3.1,4.2,2.9
			c0.4-0.3,1-0.4,1.6,0c0.6,0.4,1-2,1-3.3s0.9-16.4,0.9-15.4c0,1,1.2,30,1.3,31.2c0.1,1.1,0.4-0.7,0.7-3.7c0.3-3,0.3-8.7,1.9-9.1
			s5.9,1,7.8-1.7c1.9-2.7,3-4.8,3.7-4.8c0.7,0,1.9,4.5,3.7,5.8c1.9,1.3,6.5,1.5,7.8,1.5"/>
		<path class="st2" d="M438.3,135.4c0.5,0,3.9,0,4.4,0c0.6,0,2-1.7,2.5-2.9c0.4-1.1,1.3-4.1,2.5-0.4c1.2,3.7,3.7,3.1,4.2,2.9
			c0.4-0.3,1-0.4,1.6,0s1-2,1-3.3s0.9-16.4,0.9-15.4c0,1,1.2,30,1.3,31.2s0.4-0.7,0.7-3.7c0.3-3,0.3-8.7,1.9-9.1s5.9,1,7.8-1.7
			c1.9-2.7,3-4.8,3.7-4.8s1.9,4.5,3.7,5.8c1.9,1.3,6.5,1.5,7.8,1.5"/>
		<path class="st2" d="M482.2,135.4c0.5,0,3.9,0,4.4,0c0.6,0,2-1.7,2.5-2.9c0.4-1.1,1.3-4.1,2.5-0.4c1.2,3.7,3.7,3.1,4.2,2.9
			c0.4-0.3,1-0.4,1.6,0s1-2,1-3.3s0.9-16.4,0.9-15.4c0,1,1.2,30,1.3,31.2c0.1,1.1,0.4-0.7,0.7-3.7s0.3-8.7,1.9-9.1
			c1.6-0.4,5.9,1,7.8-1.7c1.9-2.7,3-4.8,3.7-4.8c0.7,0,1.9,4.5,3.7,5.8c1.9,1.3,6.5,1.5,7.8,1.5"/>
		<path class="st2" d="M526,135.4c0.5,0,3.9,0,4.4,0c0.6,0,2-1.7,2.5-2.9c0.4-1.1,1.3-4.1,2.5-0.4c1.2,3.7,3.7,3.1,4.2,2.9
			c0.4-0.3,1-0.4,1.6,0c0.6,0.4,1-2,1-3.3s0.9-16.4,0.9-15.4c0,1,1.2,30,1.3,31.2s0.4-0.7,0.7-3.7c0.3-3,0.3-8.7,1.9-9.1
			c1.6-0.4,5.9,1,7.8-1.7c1.9-2.7,3-4.8,3.7-4.8c0.7,0,1.9,4.5,3.7,5.8c1.9,1.3,6.5,1.5,7.8,1.5"/>
		<path class="st2" d="M569.9,135.4c0.5,0,3.9,0,4.4,0c0.6,0,2-1.7,2.5-2.9c0.4-1.1,1.3-4.1,2.5-0.4c1.2,3.7,3.7,3.1,4.2,2.9
			c0.4-0.3,1-0.4,1.6,0c0.6,0.4,1-2,1-3.3s0.9-16.4,0.9-15.4c0,1,1.2,30,1.3,31.2c0.1,1.1,0.4-0.7,0.7-3.7c0.3-3,0.3-8.7,1.9-9.1
			c1.6-0.4,5.9,1,7.8-1.7c1.9-2.7,3-4.8,3.7-4.8s1.9,4.5,3.7,5.8c1.9,1.3,6.5,1.5,7.8,1.5"/>
		<path class="st2" d="M613.7,135.4c0.5,0,3.9,0,4.4,0c0.6,0,2-1.7,2.5-2.9c0.4-1.1,1.3-4.1,2.5-0.4c1.2,3.7,3.7,3.1,4.2,2.9
			c0.4-0.3,1-0.4,1.6,0c0.6,0.4,1-2,1-3.3s0.9-16.4,0.9-15.4c0,1,1.2,30,1.3,31.2c0.1,1.1,0.4-0.7,0.7-3.7c0.3-3,0.3-8.7,1.9-9.1
			c1.6-0.4,5.9,1,7.8-1.7c1.9-2.7,3-4.8,3.7-4.8c0.7,0,1.9,4.5,3.7,5.8c1.9,1.3,6.5,1.5,7.8,1.5"/>
		<path class="st2" d="M0,173.9c0.5,0,3.9,0,4.4,0c0.6,0,2-1.7,2.5-2.9c0.4-1.1,1.3-4.1,2.5-0.4c1.2,3.7,3.7,3.1,4.2,2.9
			c0.4-0.3,1-0.4,1.6,0s1-2,1-3.3s0.9-16.4,0.9-15.4c0,1,1.2,30,1.3,31.2c0.1,1.1,0.4-0.7,0.7-3.7c0.3-3,0.3-8.7,1.9-9.1
			c1.6-0.4,5.9,1,7.8-1.7c1.9-2.7,3-4.8,3.7-4.8c0.7,0,1.9,4.5,3.7,5.8c1.9,1.3,6.5,1.5,7.8,1.5"/>
		<path class="st2" d="M43.8,173.9c0.5,0,3.9,0,4.4,0c0.6,0,2-1.7,2.5-2.9c0.4-1.1,1.3-4.1,2.5-0.4c1.2,3.7,3.7,3.1,4.2,2.9
			c0.4-0.3,1-0.4,1.6,0s1-2,1-3.3s0.9-16.4,0.9-15.4c0,1,1.2,30,1.3,31.2c0.1,1.1,0.4-0.7,0.7-3.7c0.3-3,0.3-8.7,1.9-9.1
			c1.6-0.4,5.9,1,7.8-1.7c1.9-2.7,3-4.8,3.7-4.8c0.7,0,1.9,4.5,3.7,5.8c1.9,1.3,6.5,1.5,7.8,1.5"/>
		<path class="st2" d="M87.7,173.9c0.5,0,3.9,0,4.4,0c0.6,0,2-1.7,2.5-2.9c0.4-1.1,1.3-4.1,2.5-0.4c1.2,3.7,3.7,3.1,4.2,2.9
			c0.4-0.3,1-0.4,1.6,0c0.6,0.4,1-2,1-3.3s0.9-16.4,0.9-15.4c0,1,1.2,30,1.3,31.2c0.1,1.1,0.4-0.7,0.7-3.7c0.3-3,0.3-8.7,1.9-9.1
			c1.6-0.4,5.9,1,7.8-1.7c1.9-2.7,3-4.8,3.7-4.8s1.9,4.5,3.7,5.8c1.9,1.3,6.5,1.5,7.8,1.5"/>
		<path class="st2" d="M131.5,173.9c0.5,0,3.9,0,4.4,0c0.6,0,2-1.7,2.5-2.9c0.4-1.1,1.3-4.1,2.5-0.4c1.2,3.7,3.7,3.1,4.2,2.9
			c0.4-0.3,1-0.4,1.6,0s1-2,1-3.3s0.9-16.4,0.9-15.4c0,1,1.2,30,1.3,31.2c0.1,1.1,0.4-0.7,0.7-3.7c0.3-3,0.3-8.7,1.9-9.1
			s5.9,1,7.8-1.7c1.9-2.7,3-4.8,3.7-4.8c0.7,0,1.9,4.5,3.7,5.8c1.9,1.3,6.5,1.5,7.8,1.5"/>
		<path class="st2" d="M175.3,173.9c0.5,0,3.9,0,4.4,0c0.6,0,2-1.7,2.5-2.9c0.4-1.1,1.3-4.1,2.5-0.4c1.2,3.7,3.7,3.1,4.2,2.9
			c0.4-0.3,1-0.4,1.6,0c0.6,0.4,1-2,1-3.3s0.9-16.4,0.9-15.4c0,1,1.2,30,1.3,31.2c0.1,1.1,0.4-0.7,0.7-3.7c0.3-3,0.3-8.7,1.9-9.1
			s5.9,1,7.8-1.7c1.9-2.7,3-4.8,3.7-4.8c0.7,0,1.9,4.5,3.7,5.8c1.9,1.3,6.5,1.5,7.8,1.5"/>
		<path class="st2" d="M219.2,173.9c0.5,0,3.9,0,4.4,0c0.6,0,2-1.7,2.5-2.9c0.4-1.1,1.3-4.1,2.5-0.4c1.2,3.7,3.7,3.1,4.2,2.9
			c0.4-0.3,1-0.4,1.6,0s1-2,1-3.3s0.9-16.4,0.9-15.4c0,1,1.2,30,1.3,31.2c0.1,1.1,0.4-0.7,0.7-3.7c0.3-3,0.3-8.7,1.9-9.1
			s5.9,1,7.8-1.7c1.9-2.7,3-4.8,3.7-4.8c0.7,0,1.9,4.5,3.7,5.8c1.9,1.3,6.5,1.5,7.8,1.5"/>
		<path class="st2" d="M263,173.9c0.5,0,3.9,0,4.4,0c0.6,0,2-1.7,2.5-2.9c0.4-1.1,1.3-4.1,2.5-0.4c1.2,3.7,3.7,3.1,4.2,2.9
			c0.4-0.3,1-0.4,1.6,0c0.6,0.4,1-2,1-3.3s0.9-16.4,0.9-15.4c0,1,1.2,30,1.3,31.2c0.1,1.1,0.4-0.7,0.7-3.7c0.3-3,0.3-8.7,1.9-9.1
			s5.9,1,7.8-1.7c1.9-2.7,3-4.8,3.7-4.8s1.9,4.5,3.7,5.8c1.9,1.3,6.5,1.5,7.8,1.5"/>
		<path class="st2" d="M306.8,173.9c0.5,0,3.9,0,4.4,0c0.6,0,2-1.7,2.5-2.9c0.4-1.1,1.3-4.1,2.5-0.4c1.2,3.7,3.7,3.1,4.2,2.9
			c0.4-0.3,1-0.4,1.6,0s1-2,1-3.3s0.9-16.4,0.9-15.4c0,1,1.2,30,1.3,31.2c0.1,1.1,0.4-0.7,0.7-3.7c0.3-3,0.3-8.7,1.9-9.1
			s5.9,1,7.8-1.7c1.9-2.7,3-4.8,3.7-4.8s1.9,4.5,3.7,5.8c1.9,1.3,6.5,1.5,7.8,1.5"/>
		<path class="st2" d="M350.7,173.9c0.5,0,3.9,0,4.4,0c0.6,0,2-1.7,2.5-2.9c0.4-1.1,1.3-4.1,2.5-0.4c1.2,3.7,3.7,3.1,4.2,2.9
			c0.4-0.3,1-0.4,1.6,0s1-2,1-3.3s0.9-16.4,0.9-15.4c0,1,1.2,30,1.3,31.2c0.1,1.1,0.4-0.7,0.7-3.7c0.3-3,0.3-8.7,1.9-9.1
			s5.9,1,7.8-1.7c1.9-2.7,3-4.8,3.7-4.8c0.7,0,1.9,4.5,3.7,5.8c1.9,1.3,6.5,1.5,7.8,1.5"/>
		<path class="st2" d="M394.5,173.9c0.5,0,3.9,0,4.4,0c0.6,0,2-1.7,2.5-2.9c0.4-1.1,1.3-4.1,2.5-0.4c1.2,3.7,3.7,3.1,4.2,2.9
			c0.4-0.3,1-0.4,1.6,0c0.6,0.4,1-2,1-3.3s0.9-16.4,0.9-15.4c0,1,1.2,30,1.3,31.2c0.1,1.1,0.4-0.7,0.7-3.7c0.3-3,0.3-8.7,1.9-9.1
			s5.9,1,7.8-1.7c1.9-2.7,3-4.8,3.7-4.8c0.7,0,1.9,4.5,3.7,5.8c1.9,1.3,6.5,1.5,7.8,1.5"/>
		<path class="st2" d="M438.3,173.9c0.5,0,3.9,0,4.4,0c0.6,0,2-1.7,2.5-2.9c0.4-1.1,1.3-4.1,2.5-0.4c1.2,3.7,3.7,3.1,4.2,2.9
			c0.4-0.3,1-0.4,1.6,0s1-2,1-3.3s0.9-16.4,0.9-15.4c0,1,1.2,30,1.3,31.2c0.1,1.1,0.4-0.7,0.7-3.7c0.3-3,0.3-8.7,1.9-9.1
			s5.9,1,7.8-1.7c1.9-2.7,3-4.8,3.7-4.8s1.9,4.5,3.7,5.8c1.9,1.3,6.5,1.5,7.8,1.5"/>
		<path class="st2" d="M482.2,173.9c0.5,0,3.9,0,4.4,0c0.6,0,2-1.7,2.5-2.9c0.4-1.1,1.3-4.1,2.5-0.4c1.2,3.7,3.7,3.1,4.2,2.9
			c0.4-0.3,1-0.4,1.6,0s1-2,1-3.3s0.9-16.4,0.9-15.4c0,1,1.2,30,1.3,31.2c0.1,1.1,0.4-0.7,0.7-3.7c0.3-3,0.3-8.7,1.9-9.1
			c1.6-0.4,5.9,1,7.8-1.7c1.9-2.7,3-4.8,3.7-4.8c0.7,0,1.9,4.5,3.7,5.8c1.9,1.3,6.5,1.5,7.8,1.5"/>
		<path class="st2" d="M526,173.9c0.5,0,3.9,0,4.4,0c0.6,0,2-1.7,2.5-2.9c0.4-1.1,1.3-4.1,2.5-0.4c1.2,3.7,3.7,3.1,4.2,2.9
			c0.4-0.3,1-0.4,1.6,0c0.6,0.4,1-2,1-3.3s0.9-16.4,0.9-15.4c0,1,1.2,30,1.3,31.2c0.1,1.1,0.4-0.7,0.7-3.7c0.3-3,0.3-8.7,1.9-9.1
			c1.6-0.4,5.9,1,7.8-1.7c1.9-2.7,3-4.8,3.7-4.8c0.7,0,1.9,4.5,3.7,5.8c1.9,1.3,6.5,1.5,7.8,1.5"/>
		<path class="st2" d="M569.9,173.9c0.5,0,3.9,0,4.4,0c0.6,0,2-1.7,2.5-2.9c0.4-1.1,1.3-4.1,2.5-0.4c1.2,3.7,3.7,3.1,4.2,2.9
			c0.4-0.3,1-0.4,1.6,0c0.6,0.4,1-2,1-3.3s0.9-16.4,0.9-15.4c0,1,1.2,30,1.3,31.2c0.1,1.1,0.4-0.7,0.7-3.7c0.3-3,0.3-8.7,1.9-9.1
			c1.6-0.4,5.9,1,7.8-1.7c1.9-2.7,3-4.8,3.7-4.8s1.9,4.5,3.7,5.8c1.9,1.3,6.5,1.5,7.8,1.5"/>
		<path class="st2" d="M613.7,173.9c0.5,0,3.9,0,4.4,0c0.6,0,2-1.7,2.5-2.9c0.4-1.1,1.3-4.1,2.5-0.4c1.2,3.7,3.7,3.1,4.2,2.9
			c0.4-0.3,1-0.4,1.6,0c0.6,0.4,1-2,1-3.3s0.9-16.4,0.9-15.4c0,1,1.2,30,1.3,31.2c0.1,1.1,0.4-0.7,0.7-3.7c0.3-3,0.3-8.7,1.9-9.1
			c1.6-0.4,5.9,1,7.8-1.7c1.9-2.7,3-4.8,3.7-4.8c0.7,0,1.9,4.5,3.7,5.8c1.9,1.3,6.5,1.5,7.8,1.5"/>
		<circle class="st3" cx="330.1" cy="92.9" r="17.5"/>
		<circle class="st4" cx="330.1" cy="92.9" r="15.8"/>
	</g>
</g>
</svg>
