<?xml version="1.0" encoding="utf-8"?>
<!-- Generator: Adobe Illustrator 22.1.0, SVG Export Plug-In . SVG Version: 6.00 Build 0)  -->
<svg version="1.1" id="Layer_1" xmlns="http://www.w3.org/2000/svg" xmlns:xlink="http://www.w3.org/1999/xlink" x="0px" y="0px"
	 viewBox="0 0 6.1 7" style="enable-background:new 0 0 6.1 7;" xml:space="preserve">
<style type="text/css">
	.st0{fill:none;stroke:#919194;stroke-width:0.8767;}
	.st1{fill:none;stroke:#919194;stroke-width:0.4383;}
</style>
<g>
	<path class="st0" d="M0.9,1.3h4.4c0.2,0,0.4,0.2,0.4,0.4v4.4c0,0.2-0.2,0.4-0.4,0.4H0.9c-0.2,0-0.4-0.2-0.4-0.4V1.8
		C0.4,1.5,0.6,1.3,0.9,1.3z"/>
	<path class="st1" d="M0.4,2.8h5.3c0.1,0,0.2,0.1,0.2,0.2l0,0c0,0.1-0.1,0.2-0.2,0.2H0.4c-0.1,0-0.2-0.1-0.2-0.2l0,0
		C0.2,2.9,0.3,2.8,0.4,2.8z"/>
	<path class="st1" d="M1.3,0.2L1.3,0.2c0.1,0,0.2,0.1,0.2,0.2v0.9c0,0.1-0.1,0.2-0.2,0.2h0c-0.1,0-0.2-0.1-0.2-0.2V0.4
		C1.1,0.3,1.2,0.2,1.3,0.2z"/>
	<path class="st1" d="M4.8,0.2L4.8,0.2C4.9,0.2,5,0.3,5,0.4v0.9c0,0.1-0.1,0.2-0.2,0.2l0,0c-0.1,0-0.2-0.1-0.2-0.2V0.4
		C4.6,0.3,4.7,0.2,4.8,0.2z"/>
</g>
</svg>
