<?xml version="1.0" encoding="utf-8"?>
<!-- Generator: Adobe Illustrator 22.1.0, SVG Export Plug-In . SVG Version: 6.00 Build 0)  -->
<svg version="1.1" id="Layer_1" xmlns="http://www.w3.org/2000/svg" xmlns:xlink="http://www.w3.org/1999/xlink" x="0px" y="0px"
	 viewBox="0 0 7 7" style="enable-background:new 0 0 7 7;" xml:space="preserve">
<style type="text/css">
	.st0{fill:none;stroke:#919194;stroke-width:0.8767;}
</style>
<path class="st0" d="M6.5,2.5L6.5,2.5L6.5,2.5C6.3,3.1,5.8,3.9,5.2,4.7l0,0c-0.5,0.6-1,1.1-1.3,1.4C3.7,6.2,3.6,6.3,3.5,6.4
	c0,0-0.1-0.1-0.2-0.1c-0.3-0.3-0.6-0.6-1-1C1.5,4.4,0.7,3.3,0.5,2.5l0,0l0,0c0-0.1-0.1-0.3-0.1-0.5v0v0l0,0v0v0v0v0l0,0v0v0v0v0l0,0
	v0v0v0v0l0,0v0v0v0v0l0,0v0v0v0v0l0,0v0v0v0l0,0v0v0v0v0l0,0v0v0v0v0l0,0v0v0v0l0,0v0v0v0v0l0,0v0v0v0v0l0,0v0v0v0l0,0v0v0v0v0l0,0
	v0v0v0l0,0v0v0v0v0l0,0v0v0v0l0,0v0v0v0l0,0v0v0v0v0l0,0v0v0v0l0,0v0v0v0l0,0v0v0v0v0l0,0v0v0v0l0,0v0v0v0l0,0v0v0v0v0l0,0v0v0v0
	l0,0v0v0v0l0,0v0v0v0l0,0v0v0v0l0,0v0v0v0l0,0v0v0v0v0l0,0v0v0v0l0,0v0v0v0l0,0v0v0v0l0,0v0v0v0l0,0v0v0v0l0,0v0v0v0l0,0v0v0v0l0,0
	v0v0v0l0,0v0v0v0l0,0v0v0v0l0,0v0v0v0l0,0v0v0v0l0,0v0v0v0l0,0v0v0v0l0,0v0v0v0l0,0v0v0v0l0,0v0v0v0l0,0v0v0v0l0,0v0v0v0l0,0v0v0v0
	l0,0v0v0v0l0,0v0v0v0l0,0v0v0v0l0,0v0v0v0l0,0v0v0v0l0,0v0v0v0l0,0v0v0v0l0,0v0v0v0l0,0v0v0l0,0v0v0v0l0,0v0v0v0l0,0v0v0v0l0,0v0v0
	v0l0,0v0v0v0l0,0v0v0v0l0,0v0v0v0l0,0v0v0v0l0,0v0v0v0l0,0v0v0v0l0,0v0v0v0l0,0v0v0v0l0,0v0v0v0l0,0v0v0v0l0,0v0v0v0l0,0v0v0v0l0,0
	v0v0v0l0,0v0v0v0l0,0v0v0v0l0,0v0v0v0l0,0v0v0v0l0,0v0v0v0l0,0v0v0v0l0,0v0v0v0l0,0v0v0v0l0,0v0v0v0l0,0v0v0v0l0,0v0v0v0l0,0v0v0v0
	l0,0v0v0v0l0,0v0v0v0l0,0v0v0v0l0,0v0v0v0v0l0,0v0v0v0l0,0v0v0v0l0,0v0v0v0l0,0v0v0v0l0,0v0v0v0v0l0,0v0v0v0l0,0v0v0v0l0,0v0v0v0v0
	l0,0v0v0v0l0,0v0v0v0l0,0v0v0v0v0l0,0v0v0v0l0,0v0v0v0l0,0v0v0v0v0l0,0v0v0v0l0,0v0v0v0v0l0,0v0v0c0-0.8,0.7-1.5,1.6-1.5
	c0.5,0,0.9,0.2,1.2,0.5l0.3,0.4L3.8,1C3.9,0.9,4,0.8,4.1,0.7l0,0C4.4,0.5,4.7,0.4,5,0.4c0.9,0,1.6,0.7,1.6,1.6
	C6.6,2.2,6.6,2.3,6.5,2.5z"/>
</svg>
