<svg width="111" height="26" viewBox="0 0 111 26" fill="none" xmlns="http://www.w3.org/2000/svg">
<path d="M100.886 3.81006H103.472V9.96209C103.655 9.70576 103.861 9.44942 104.078 9.20474C104.296 8.96006 104.559 8.75033 104.845 8.5639C105.131 8.37748 105.451 8.23766 105.806 8.13279C106.149 8.02793 106.55 7.96967 106.996 7.96967C108.277 7.96967 109.261 8.36582 109.959 9.16978C110.657 9.96209 111 11.034 111 12.3623V19.6911H108.415V13.1663C108.415 12.2691 108.209 11.57 107.785 11.0923C107.362 10.6029 106.767 10.3582 106.001 10.3582C105.245 10.3582 104.639 10.6029 104.17 11.1039C103.701 11.605 103.461 12.3041 103.461 13.2012V19.6795H100.875V3.81006H100.886Z" fill="#919194"/>
<path d="M94.9712 19.9475C94.136 19.9475 93.358 19.7961 92.6487 19.4815C91.9393 19.1669 91.3215 18.7474 90.8067 18.2115C90.2918 17.6755 89.88 17.0463 89.5939 16.3239C89.2965 15.6015 89.1592 14.8325 89.1592 14.0169V13.9703C89.1592 13.1547 89.3079 12.3857 89.5939 11.6516C89.88 10.9176 90.2918 10.2767 90.8181 9.74077C91.3444 9.19314 91.9622 8.76204 92.6715 8.44745C93.3809 8.13285 94.1703 7.96973 95.0169 7.96973C95.5432 7.96973 96.0237 8.01633 96.4585 8.10955C96.8932 8.20276 97.2937 8.34258 97.6598 8.51735C98.0259 8.69213 98.3577 8.90186 98.6666 9.14654C98.9755 9.39122 99.2615 9.6592 99.5361 9.95049L97.9115 11.7099C97.5111 11.2904 97.0877 10.9409 96.6415 10.6729C96.1953 10.4049 95.6462 10.2651 95.0055 10.2651C94.5364 10.2651 94.1017 10.3583 93.7012 10.5564C93.3008 10.7545 92.9576 11.0108 92.6601 11.337C92.3626 11.6633 92.1453 12.0478 91.9736 12.5022C91.8135 12.9566 91.7334 13.4227 91.7334 13.912V13.9586C91.7334 14.4713 91.8135 14.949 91.9736 15.3918C92.1338 15.8462 92.3741 16.2307 92.6715 16.5686C92.969 16.9065 93.3237 17.1628 93.7356 17.3492C94.1474 17.5357 94.6051 17.6289 95.097 17.6289C95.7034 17.6289 96.2411 17.5007 96.7102 17.2327C97.1678 16.9764 97.614 16.6268 98.0259 16.2074L99.5819 17.7687C99.0213 18.4095 98.392 18.9222 97.6827 19.3184C96.9733 19.7495 96.0695 19.9475 94.9712 19.9475Z" fill="#919194"/>
<path d="M83.1186 19.9475C82.3063 19.9475 81.5512 19.8077 80.8419 19.5164C80.1326 19.2251 79.5262 18.8173 78.9999 18.293C78.4736 17.7687 78.0617 17.1395 77.7643 16.4171C77.4668 15.6831 77.3066 14.8791 77.3066 13.9936V13.947C77.3066 13.1197 77.4439 12.3507 77.7185 11.6167C77.9931 10.8943 78.3706 10.2534 78.8626 9.71746C79.3546 9.16984 79.9381 8.75038 80.6016 8.43579C81.2766 8.1212 82.0089 7.96973 82.8212 7.96973C83.725 7.96973 84.503 8.13285 85.1895 8.47074C85.8645 8.80864 86.4251 9.2514 86.8827 9.82233C87.3289 10.3933 87.6721 11.0457 87.901 11.7914C88.1298 12.5371 88.2442 13.3294 88.2442 14.1451C88.2442 14.2616 88.2442 14.3781 88.2327 14.5063C88.2213 14.6344 88.2099 14.7509 88.1984 14.8908H79.9152C80.0525 15.8345 80.4186 16.5569 81.0135 17.0579C81.6084 17.559 82.3178 17.8037 83.1644 17.8037C83.8051 17.8037 84.3657 17.6871 84.8348 17.4541C85.3039 17.2211 85.7615 16.8832 86.2191 16.4288L87.7294 17.8037C87.1916 18.4561 86.5395 18.9805 85.7958 19.365C85.0522 19.7495 84.1598 19.9475 83.1186 19.9475ZM85.6585 13.143C85.6128 12.7236 85.5212 12.3274 85.3839 11.9546C85.2467 11.5817 85.0522 11.2671 84.8119 10.9991C84.5716 10.7311 84.2856 10.5214 83.9538 10.3583C83.622 10.1952 83.2445 10.1136 82.8212 10.1136C82.0318 10.1136 81.3682 10.3933 80.8533 10.9525C80.3385 11.5118 80.0181 12.2342 79.9037 13.143H85.6585Z" fill="#919194"/>
<path d="M74.2172 19.8778C73.7481 19.8778 73.3133 19.8195 72.9129 19.703C72.5125 19.5865 72.1692 19.4001 71.8718 19.1321C71.5743 18.8757 71.3569 18.5262 71.1967 18.0951C71.0366 17.664 70.9565 17.1397 70.9565 16.4988V10.4517H69.5264V8.19127H70.9565V5.03369H73.5421V8.19127H76.574V10.4517H73.5421V16.091C73.5421 16.6037 73.668 16.9649 73.9082 17.1863C74.1485 17.4077 74.4917 17.5242 74.9379 17.5242C75.4985 17.5242 76.0248 17.396 76.5397 17.128V19.2836C76.2079 19.47 75.8647 19.6214 75.4985 19.7147C75.1439 19.8312 74.7206 19.8778 74.2172 19.8778Z" fill="#919194"/>
<path d="M63.7954 19.9475C62.9831 19.9475 62.228 19.8077 61.5187 19.5164C60.8093 19.2251 60.2029 18.8173 59.6767 18.293C59.1504 17.7687 58.7385 17.1395 58.441 16.4171C58.1436 15.6831 57.9834 14.8791 57.9834 13.9936V13.947C57.9834 13.1197 58.1207 12.3507 58.3953 11.6167C58.6699 10.8943 59.0474 10.2534 59.5394 9.71746C60.0313 9.16984 60.6148 8.75038 61.2784 8.43579C61.9534 8.1212 62.6856 7.96973 63.4979 7.96973C64.4018 7.96973 65.1798 8.13285 65.8662 8.47074C66.5412 8.80864 67.1018 9.2514 67.5595 9.82233C68.0057 10.3933 68.3489 11.0457 68.5777 11.7914C68.8065 12.5371 68.9209 13.3294 68.9209 14.1451C68.9209 14.2616 68.9209 14.3781 68.9095 14.5063C68.8981 14.6344 68.8866 14.7509 68.8752 14.8908H60.5919C60.7292 15.8345 61.0953 16.5569 61.6903 17.0579C62.2852 17.559 62.9945 17.8037 63.8412 17.8037C64.4819 17.8037 65.0425 17.6871 65.5115 17.4541C65.9806 17.2211 66.4383 16.8832 66.8959 16.4288L68.4061 17.8037C67.8684 18.4561 67.2162 18.9805 66.4726 19.365C65.7289 19.7495 64.8365 19.9475 63.7954 19.9475ZM66.3353 13.143C66.2895 12.7236 66.198 12.3274 66.0607 11.9546C65.9234 11.5817 65.7289 11.2671 65.4887 10.9991C65.2484 10.7311 64.9624 10.5214 64.6306 10.3583C64.2988 10.1952 63.9212 10.1136 63.4979 10.1136C62.7085 10.1136 62.0449 10.3933 61.5301 10.9525C61.0152 11.5118 60.6949 12.2342 60.5805 13.143H66.3353Z" fill="#B22530"/>
<path d="M51.2441 8.20282H53.8298V10.7895C54.1845 9.9156 54.6879 9.22815 55.34 8.70383C55.9921 8.17951 56.8159 7.94649 57.8112 7.98144V10.7662H57.6625C57.0905 10.7662 56.5756 10.8594 56.1065 11.0458C55.6375 11.2322 55.2256 11.5119 54.8938 11.8964C54.5506 12.2692 54.2874 12.7469 54.1044 13.3179C53.9213 13.8888 53.8298 14.5529 53.8298 15.3103V19.6796H51.2441V8.20282Z" fill="#B22530"/>
<path d="M43.648 19.9475C42.7899 19.9475 42.0005 19.7961 41.2682 19.4815C40.536 19.1669 39.9068 18.7474 39.369 18.2115C38.8313 17.6755 38.4194 17.0463 38.122 16.3239C37.8245 15.6015 37.6758 14.8325 37.6758 14.0169V13.9703C37.6758 13.143 37.8245 12.374 38.1334 11.64C38.4423 10.9176 38.8542 10.2767 39.3919 9.74077C39.9296 9.19314 40.5589 8.76204 41.2911 8.44745C42.0233 8.13285 42.8242 7.96973 43.6937 7.96973C44.5632 7.96973 45.3641 8.1212 46.0963 8.43579C46.8285 8.75038 47.4578 9.16984 47.9955 9.71746C48.5332 10.2651 48.9451 10.8943 49.2426 11.605C49.54 12.3274 49.6888 13.0964 49.6888 13.9237V13.9703C49.6888 14.7859 49.54 15.5549 49.2311 16.2773C48.9222 16.9997 48.5103 17.6405 47.9726 18.1765C47.4349 18.7241 46.8056 19.1552 46.062 19.4698C45.3183 19.7844 44.5175 19.9475 43.648 19.9475ZM43.6937 17.6405C44.22 17.6405 44.6891 17.5473 45.1124 17.3492C45.5357 17.1512 45.8904 16.8948 46.1878 16.5686C46.4853 16.2423 46.7141 15.8578 46.8743 15.4151C47.0345 14.9723 47.1146 14.5063 47.1146 14.0169V13.9703C47.1146 13.4576 47.0345 12.9799 46.8629 12.5371C46.6912 12.0827 46.451 11.6982 46.1421 11.3603C45.8332 11.0224 45.4785 10.7661 45.0552 10.568C44.6319 10.3699 44.1742 10.2767 43.6594 10.2767C43.1445 10.2767 42.6755 10.3699 42.2636 10.568C41.8403 10.7661 41.4856 11.0224 41.1882 11.3487C40.8907 11.6749 40.6619 12.0594 40.5017 12.5138C40.3415 12.9682 40.2614 13.4343 40.2614 13.9237V13.9703C40.2614 14.483 40.3415 14.949 40.5131 15.3918C40.6847 15.8345 40.925 16.219 41.2339 16.5569C41.5428 16.8948 41.8975 17.1512 42.3208 17.3492C42.7327 17.5473 43.1903 17.6405 43.6937 17.6405Z" fill="#B22530"/>
<path d="M29.9985 19.9241C28.7171 19.9241 27.7332 19.528 27.0353 18.724C26.3374 17.9317 25.9941 16.8598 25.9941 15.5082V8.20264H28.5798V14.7159C28.5798 15.613 28.7857 16.3005 29.209 16.7782C29.6324 17.2559 30.2273 17.4889 30.9938 17.4889C31.7489 17.4889 32.3553 17.2443 32.8244 16.7549C33.2935 16.2655 33.5337 15.5664 33.5337 14.6693V8.20264H36.1194V19.6794H33.5223V17.8734C33.1562 18.4327 32.6871 18.9104 32.1379 19.3066C31.5773 19.726 30.868 19.9241 29.9985 19.9241Z" fill="#B22530"/>
<path d="M21.6924 20.215C22.8137 18.8052 23.626 17.1507 24.0607 15.333H20.3653C20.1022 16.102 19.736 16.8244 19.2784 17.4769C18.4432 18.677 17.322 19.6674 16.0063 20.3199C15.1368 20.751 14.1757 21.0423 13.1689 21.1588V24.7941C15.1826 24.631 17.0474 23.9785 18.672 22.9415L18.8894 22.8017L21.5552 25.6446H26.4176L21.7153 20.6345L21.5323 20.4364L21.6924 20.215Z" fill="#919194"/>
<path d="M24.4035 12.4206C24.4035 8.995 23.0421 5.88403 20.834 3.63528C18.6259 1.38653 15.5826 0 12.2075 0C8.83241 0 5.78911 1.38653 3.58101 3.63528C1.37291 5.88403 0 8.98335 0 12.4206C0 19.0969 5.18275 24.5498 11.6698 24.8295V21.2058C7.42517 20.9495 4.01577 17.5822 3.59245 13.3061C3.58101 13.2595 3.56957 13.2012 3.56957 13.143C3.56957 13.1197 3.56957 13.0964 3.56957 13.073C3.55813 12.8517 3.54669 12.6303 3.54669 12.4089C3.54669 7.55021 7.41373 3.60033 12.196 3.60033C16.9669 3.60033 20.8454 7.53856 20.8454 12.4089C20.8454 12.7119 20.834 13.0031 20.7996 13.2944H17.928C17.8708 13.2944 17.825 13.2595 17.7907 13.2129L16.8411 11.5817C16.7839 11.4884 16.6809 11.4185 16.5665 11.4185H16.555C16.4521 11.4185 16.3491 11.4768 16.2805 11.5583L15.3881 12.875C15.3537 12.9332 15.2851 12.9565 15.2279 12.9449C15.1707 12.9332 15.1249 12.875 15.1135 12.8167L13.9351 5.18495C13.9122 5.02182 13.7749 4.90531 13.6147 4.90531C13.6147 4.90531 13.6147 4.90531 13.6033 4.90531C13.4431 4.90531 13.3058 5.03347 13.2829 5.19659L11.91 16.8249C11.8986 16.8948 11.8414 16.953 11.7613 16.9647C11.6812 16.9647 11.624 16.9181 11.6011 16.8482L10.2511 11.4302C10.2168 11.2904 10.1024 11.1855 9.95362 11.1855C9.95362 11.1855 9.94218 11.1855 9.93073 11.1855C9.79344 11.1855 9.67904 11.2671 9.63327 11.3952L8.5807 14.0052C8.55782 14.0634 8.50062 14.0984 8.43197 14.0984C8.36333 14.0984 8.31756 14.0634 8.29468 13.9935L7.16203 11.0224C7.11627 10.8942 6.99041 10.8127 6.85312 10.8127C6.85312 10.8127 6.84168 10.8127 6.83024 10.8127C6.69295 10.8243 6.5671 10.9292 6.53278 11.069L6.10946 12.8167C6.09802 12.8866 6.02938 12.9332 5.96073 12.9332H4.23315C4.22171 12.9332 4.21027 12.9332 4.19883 12.9332C4.21027 13.1546 4.23315 13.376 4.25603 13.5974H6.36116C6.5099 13.5974 6.64719 13.4925 6.68151 13.341L6.83024 12.7235C6.84168 12.6536 6.89889 12.607 6.96753 12.607C7.03618 12.607 7.09338 12.6419 7.11627 12.7119L8.13451 15.3917C8.18027 15.5199 8.29468 15.6014 8.43197 15.6014H8.44341C8.5807 15.6014 8.69511 15.5199 8.74088 15.3917L9.69048 13.0148C9.71336 12.9565 9.782 12.9099 9.83921 12.9216C9.90785 12.9216 9.96506 12.9798 9.9765 13.0381L11.6011 19.5746L11.4524 19.6096L11.6011 19.5746C11.6354 19.7261 11.7727 19.8193 11.9215 19.8193C11.9329 19.8193 11.9329 19.8193 11.9443 19.8193C12.1045 19.8077 12.2304 19.6911 12.2418 19.528L13.5003 8.78528C13.5118 8.70371 13.569 8.64546 13.649 8.64546C13.7291 8.64546 13.7978 8.70372 13.8092 8.77363L14.6444 14.1333C14.6673 14.2732 14.7588 14.378 14.8961 14.4013C14.919 14.4013 14.9419 14.413 14.9647 14.413C15.0677 14.413 15.1707 14.3547 15.2393 14.2732L16.3834 12.572C16.4178 12.5254 16.4635 12.5021 16.5207 12.5021C16.5779 12.5021 16.6237 12.5371 16.6466 12.5837L17.3559 13.7954C17.4131 13.9003 17.5161 13.9586 17.6419 13.9586H21.7378H24.3006C24.3692 13.4576 24.4035 12.9449 24.4035 12.4206Z" fill="#B22530"/>
</svg>
