<?xml version="1.0" encoding="utf-8"?>
<!-- Generator: Adobe Illustrator 22.1.0, SVG Export Plug-In . SVG Version: 6.00 Build 0)  -->
<svg version="1.1" id="Layer_1" xmlns="http://www.w3.org/2000/svg" xmlns:xlink="http://www.w3.org/1999/xlink" x="0px" y="0px"
	 viewBox="0 0 645.2 29.8" style="enable-background:new 0 0 645.2 29.8;" xml:space="preserve">
<style type="text/css">
	.st0{fill:#FFFFFF;stroke:#C5C5C5;stroke-width:0.6;}
	.st1{fill:#FFFFFF;}
	.st2{fill:#D8D8D8;}
	.st3{fill:none;stroke:#919194;stroke-width:0.8767;}
	.st4{fill:none;stroke:#919194;stroke-width:0.4383;}
	.st5{fill:#59595B;}
	.st6{fill:none;stroke:#C5C5C5;stroke-width:0.6;}
	.st7{fill:none;}
	.st8{clip-path:url(#SVGID_2_);}
	.st9{fill:none;stroke:#000000;stroke-width:0.8767;}
	.st10{fill:#919194;}
	.st11{fill:#F3F3F3;}
	.st12{clip-path:url(#SVGID_4_);}
	.st13{fill:none;stroke:#000000;stroke-width:0.4383;}
</style>
<path class="st0" d="M0.9-126.8h643.5c0.8,0,1.5,0.7,1.5,1.5V-2.6c0,0.8-0.7,1.5-1.5,1.5H0.9c-0.8,0-1.5-0.7-1.5-1.5v-122.7
	C-0.6-126.2,0.1-126.8,0.9-126.8z"/>
<path class="st1" d="M3.5-121c0-1,0.8-1.8,1.8-1.8H26c1,0,1.8,0.8,1.8,1.8v10.1c0,1-0.8,1.8-1.8,1.8H5.3c-1,0-1.8-0.8-1.8-1.8V-121z
	"/>
<path d="M7.1-112.4c-0.1,0-0.1,0-0.1-0.1c0,0-0.1-0.1-0.1-0.1s0-0.1,0-0.1l2.6-6.8c0.1-0.2,0.2-0.2,0.3-0.2h0.7
	c0.2,0,0.3,0.1,0.3,0.2l2.6,6.8l0,0.1c0,0.1,0,0.1-0.1,0.1c0,0-0.1,0.1-0.1,0.1h-0.5c-0.1,0-0.1,0-0.2-0.1c0,0-0.1-0.1-0.1-0.1
	l-0.6-1.5H8.4l-0.6,1.5c0,0,0,0.1-0.1,0.1c0,0-0.1,0.1-0.2,0.1H7.1z M11.6-115l-1.4-3.7L8.7-115H11.6z M16.5-112.4
	c-0.1,0-0.1,0-0.2-0.1c0,0-0.1-0.1-0.1-0.2v-5.9l-1.7,1.3c0,0-0.1,0.1-0.2,0.1c-0.1,0-0.1,0-0.2-0.1l-0.3-0.3c0,0-0.1-0.1-0.1-0.1
	c0-0.1,0-0.2,0.1-0.2l2.3-1.8c0.1,0,0.2-0.1,0.3-0.1h0.5c0.1,0,0.1,0,0.2,0.1c0,0,0.1,0.1,0.1,0.2v6.9c0,0.1,0,0.1-0.1,0.2
	c0,0-0.1,0.1-0.2,0.1H16.5z M19.2-112.4c-0.1,0-0.1,0-0.2-0.1c0,0-0.1-0.1-0.1-0.2v-0.3c0-0.2,0.1-0.3,0.3-0.5l2.2-2.2
	c0.5-0.4,0.9-0.8,1.1-1.1c0.2-0.3,0.3-0.6,0.3-0.9c0-0.4-0.1-0.7-0.3-1c-0.2-0.2-0.6-0.3-1-0.3c-0.4,0-0.7,0.1-1,0.4
	c-0.2,0.2-0.4,0.6-0.5,1c0,0.1,0,0.1-0.1,0.2c0,0-0.1,0.1-0.2,0.1h-0.5c-0.1,0-0.1,0-0.2-0.1c0,0-0.1-0.1-0.1-0.1
	c0-0.4,0.1-0.7,0.3-1.1c0.2-0.4,0.5-0.6,0.8-0.9c0.4-0.2,0.8-0.3,1.3-0.3c0.8,0,1.4,0.2,1.8,0.6c0.4,0.4,0.6,0.9,0.6,1.6
	c0,0.4-0.1,0.8-0.3,1.2c-0.2,0.4-0.6,0.7-1,1.1l-2,2.1h3.3c0.1,0,0.1,0,0.2,0.1c0,0,0.1,0.1,0.1,0.2v0.4c0,0.1,0,0.1-0.1,0.2
	c0,0-0.1,0.1-0.2,0.1H19.2z"/>
<path class="st2" d="M5.3-121.9H26v-1.8H5.3V-121.9z M26.9-121v10.1h1.8V-121H26.9z M26-110H5.3v1.8H26V-110z M4.4-110.9V-121H2.6
	v10.1H4.4z M5.3-110c-0.5,0-0.9-0.4-0.9-0.9H2.6c0,1.5,1.2,2.6,2.6,2.6V-110z M26.9-110.9c0,0.5-0.4,0.9-0.9,0.9v1.8
	c1.5,0,2.6-1.2,2.6-2.6H26.9z M26-121.9c0.5,0,0.9,0.4,0.9,0.9h1.8c0-1.5-1.2-2.6-2.6-2.6V-121.9z M5.3-123.6
	c-1.5,0-2.6,1.2-2.6,2.6h1.8c0-0.5,0.4-0.9,0.9-0.9V-123.6z"/>
<path d="M32.6-111.9c-0.1,0-0.2,0-0.2-0.1c0-0.1-0.1-0.1-0.1-0.2v-8c0-0.1,0-0.2,0.1-0.2c0.1-0.1,0.1-0.1,0.2-0.1h3.1
	c0.9,0,1.7,0.2,2.2,0.7c0.5,0.5,0.8,1.1,0.8,2c0,0.9-0.3,1.5-0.8,2c-0.5,0.4-1.3,0.7-2.2,0.7h-2.2v3.1c0,0.1,0,0.2-0.1,0.2
	c-0.1,0-0.1,0.1-0.2,0.1H32.6z M35.7-116.3c0.6,0,1-0.1,1.4-0.4c0.3-0.3,0.5-0.7,0.5-1.2c0-0.5-0.2-0.9-0.5-1.2
	c-0.3-0.3-0.8-0.4-1.4-0.4h-2.1v3.2H35.7z M42.1-111.8c-0.4,0-0.8-0.1-1.1-0.2c-0.3-0.2-0.6-0.4-0.8-0.7c-0.2-0.3-0.3-0.6-0.3-0.9
	c0-0.5,0.2-1,0.7-1.3c0.5-0.4,1.1-0.6,1.8-0.7l1.8-0.3v-0.4c0-0.8-0.5-1.3-1.4-1.3c-0.4,0-0.7,0.1-0.9,0.2c-0.2,0.1-0.4,0.3-0.5,0.5
	c0,0.1-0.1,0.1-0.1,0.2c0,0-0.1,0-0.1,0h-0.5c-0.1,0-0.1,0-0.2-0.1c0-0.1-0.1-0.1-0.1-0.2c0-0.2,0.1-0.4,0.3-0.7
	c0.2-0.3,0.5-0.5,0.8-0.7c0.4-0.2,0.8-0.3,1.4-0.3c0.9,0,1.6,0.2,2,0.7c0.4,0.4,0.6,1,0.6,1.6v4c0,0.1,0,0.2-0.1,0.2
	c0,0-0.1,0.1-0.2,0.1h-0.6c-0.1,0-0.2,0-0.2-0.1c0-0.1-0.1-0.1-0.1-0.2v-0.5c-0.2,0.3-0.4,0.5-0.8,0.7S42.6-111.8,42.1-111.8z
	 M42.3-112.7c0.5,0,1-0.2,1.3-0.5c0.3-0.4,0.5-0.9,0.5-1.5v-0.3l-1.4,0.2c-0.6,0.1-1,0.2-1.3,0.4c-0.3,0.2-0.4,0.4-0.4,0.7
	c0,0.3,0.1,0.6,0.4,0.8C41.7-112.8,42-112.7,42.3-112.7z M49.8-111.8c-0.8,0-1.4-0.2-1.8-0.7c-0.4-0.5-0.6-1.2-0.6-2v-3.5
	c0-0.1,0-0.1,0.1-0.2c0.1-0.1,0.1-0.1,0.2-0.1h0.6c0.1,0,0.1,0,0.2,0.1c0.1,0,0.1,0.1,0.1,0.2v3.4c0,1.2,0.5,1.8,1.6,1.8
	c0.5,0,0.9-0.2,1.2-0.5c0.3-0.3,0.5-0.8,0.5-1.4v-3.4c0-0.1,0-0.1,0.1-0.2c0.1-0.1,0.1-0.1,0.2-0.1h0.6c0.1,0,0.1,0,0.2,0.1
	c0,0,0.1,0.1,0.1,0.2v5.8c0,0.1,0,0.2-0.1,0.2c0,0-0.1,0.1-0.2,0.1h-0.6c-0.1,0-0.2,0-0.2-0.1c0-0.1-0.1-0.1-0.1-0.2v-0.5
	c-0.2,0.3-0.5,0.5-0.8,0.7C50.7-111.9,50.3-111.8,49.8-111.8z M57.4-111.8c-0.6,0-1.1-0.1-1.4-0.3c-0.4-0.2-0.7-0.4-0.9-0.6
	c-0.2-0.2-0.3-0.4-0.3-0.6c0-0.1,0-0.1,0.1-0.2c0.1,0,0.1-0.1,0.2-0.1h0.6c0.1,0,0.2,0,0.2,0.1c0.2,0.2,0.4,0.4,0.6,0.5
	c0.2,0.1,0.5,0.2,0.9,0.2c0.4,0,0.8-0.1,1-0.2c0.3-0.2,0.4-0.4,0.4-0.7c0-0.2-0.1-0.4-0.2-0.5c-0.1-0.1-0.3-0.2-0.6-0.3
	c-0.3-0.1-0.7-0.2-1.2-0.3c-0.7-0.2-1.2-0.4-1.5-0.7c-0.3-0.3-0.4-0.7-0.4-1.1c0-0.3,0.1-0.6,0.3-0.9c0.2-0.3,0.5-0.5,0.8-0.7
	c0.4-0.2,0.8-0.3,1.3-0.3c0.5,0,1,0.1,1.3,0.3c0.4,0.2,0.6,0.4,0.8,0.6c0.2,0.2,0.3,0.4,0.3,0.6c0,0.1,0,0.1-0.1,0.2
	c0,0-0.1,0.1-0.2,0.1H59c-0.1,0-0.2,0-0.2-0.1c-0.1-0.2-0.2-0.3-0.3-0.4c-0.1-0.1-0.2-0.2-0.4-0.2c-0.2-0.1-0.4-0.1-0.7-0.1
	c-0.4,0-0.7,0.1-0.9,0.3c-0.2,0.2-0.3,0.4-0.3,0.7c0,0.2,0,0.3,0.1,0.4c0.1,0.1,0.3,0.2,0.5,0.3c0.3,0.1,0.6,0.2,1.1,0.3
	c0.8,0.2,1.3,0.4,1.6,0.7c0.3,0.3,0.5,0.7,0.5,1.2c0,0.4-0.1,0.7-0.3,1c-0.2,0.3-0.5,0.5-0.9,0.7C58.4-111.9,58-111.8,57.4-111.8z
	 M64.4-111.8c-0.8,0-1.5-0.3-2-0.8c-0.5-0.5-0.8-1.2-0.8-2.1l0-0.4l0-0.4c0.1-0.9,0.3-1.6,0.8-2.1c0.5-0.5,1.2-0.8,2-0.8
	c0.9,0,1.6,0.3,2.1,0.9c0.5,0.6,0.7,1.4,0.7,2.3v0.2c0,0.1,0,0.2-0.1,0.2c0,0-0.1,0.1-0.2,0.1h-4.2v0.1c0,0.5,0.2,1,0.5,1.4
	c0.3,0.4,0.7,0.6,1.2,0.6c0.4,0,0.7-0.1,0.9-0.2c0.2-0.2,0.4-0.3,0.5-0.5c0.1-0.1,0.1-0.2,0.2-0.2c0,0,0.1,0,0.2,0h0.6
	c0.1,0,0.1,0,0.2,0.1c0,0,0.1,0.1,0.1,0.2c0,0.2-0.1,0.4-0.3,0.7c-0.2,0.3-0.5,0.5-0.9,0.7C65.4-111.9,64.9-111.8,64.4-111.8z
	 M66.1-115.6L66.1-115.6c0-0.6-0.2-1.1-0.5-1.4c-0.3-0.4-0.7-0.5-1.2-0.5c-0.5,0-0.9,0.2-1.2,0.5c-0.3,0.4-0.4,0.8-0.4,1.4v0H66.1z"
	/>
<path class="st3" d="M5.3-101.3h4.4c0.2,0,0.4,0.2,0.4,0.4v4.4c0,0.2-0.2,0.4-0.4,0.4H5.3c-0.2,0-0.4-0.2-0.4-0.4v-4.4
	C4.8-101.1,5-101.3,5.3-101.3z"/>
<path class="st4" d="M4.8-99.7h5.3c0.1,0,0.2,0.1,0.2,0.2l0,0c0,0.1-0.1,0.2-0.2,0.2H4.8c-0.1,0-0.2-0.1-0.2-0.2l0,0
	C4.6-99.6,4.7-99.7,4.8-99.7z"/>
<path class="st4" d="M5.7-102.4L5.7-102.4c0.1,0,0.2,0.1,0.2,0.2v0.9c0,0.1-0.1,0.2-0.2,0.2h0c-0.1,0-0.2-0.1-0.2-0.2v-0.9
	C5.5-102.3,5.6-102.4,5.7-102.4z"/>
<path class="st4" d="M9.2-102.4L9.2-102.4c0.1,0,0.2,0.1,0.2,0.2v0.9c0,0.1-0.1,0.2-0.2,0.2l0,0c-0.1,0-0.2-0.1-0.2-0.2v-0.9
	C9-102.3,9.1-102.4,9.2-102.4z"/>
<path class="st5" d="M13.3-95.6c-0.1,0-0.1,0-0.1-0.1c0,0-0.1-0.1-0.1-0.1v-5.7c0-0.1,0-0.1,0.1-0.1c0,0,0.1-0.1,0.1-0.1h1.9
	c0.6,0,1.1,0.1,1.4,0.3c0.4,0.2,0.6,0.4,0.8,0.8c0.2,0.3,0.2,0.8,0.2,1.3c0,0.2,0,0.4,0,0.7c0,0.3,0,0.5,0,0.7c0,0.6-0.1,1-0.2,1.4
	c-0.1,0.3-0.4,0.6-0.7,0.8c-0.3,0.2-0.8,0.3-1.4,0.3H13.3z M15.2-96.1c0.5,0,0.8-0.1,1.1-0.2c0.3-0.1,0.5-0.3,0.6-0.6
	C17-97.1,17-97.5,17-98c0-0.2,0-0.4,0-0.7c0-0.3,0-0.5,0-0.6c0-0.7-0.2-1.1-0.5-1.4c-0.3-0.3-0.8-0.5-1.5-0.5h-1.5v5.1H15.2z
	 M20.5-95.5c-0.3,0-0.5-0.1-0.8-0.2c-0.2-0.1-0.4-0.3-0.6-0.5C19-96.3,19-96.5,19-96.8c0-0.4,0.2-0.7,0.5-0.9
	c0.3-0.2,0.7-0.4,1.3-0.5l1.4-0.2v-0.3c0-0.3-0.1-0.6-0.3-0.7c-0.2-0.2-0.5-0.3-0.9-0.3c-0.3,0-0.5,0.1-0.7,0.2
	c-0.2,0.1-0.3,0.3-0.4,0.4c0,0.1-0.1,0.1-0.1,0.1c0,0-0.1,0-0.1,0h-0.1c-0.1,0-0.1,0-0.1-0.1c0,0-0.1-0.1-0.1-0.1
	c0-0.1,0.1-0.3,0.2-0.4c0.1-0.2,0.3-0.3,0.5-0.5c0.2-0.1,0.5-0.2,0.9-0.2c0.6,0,1.1,0.1,1.3,0.4c0.3,0.3,0.4,0.7,0.4,1.1v2.9
	c0,0.1,0,0.1-0.1,0.1c0,0-0.1,0.1-0.1,0.1h-0.1c-0.1,0-0.1,0-0.1-0.1c0,0-0.1-0.1-0.1-0.1v-0.4c-0.1,0.2-0.3,0.4-0.6,0.5
	C21.3-95.5,20.9-95.5,20.5-95.5z M20.6-96c0.4,0,0.8-0.1,1.1-0.4c0.3-0.3,0.4-0.7,0.4-1.2v-0.3L21-97.8c-0.5,0.1-0.8,0.2-1.1,0.3
	c-0.2,0.2-0.4,0.4-0.4,0.6c0,0.3,0.1,0.5,0.3,0.6C20.1-96.1,20.3-96,20.6-96z M25.1-93.9c0,0-0.1,0-0.1-0.1c0,0-0.1-0.1-0.1-0.1
	c0,0,0-0.1,0.1-0.2l0.7-1.6L24-99.8c0-0.1-0.1-0.1-0.1-0.2c0,0,0-0.1,0.1-0.1c0,0,0.1-0.1,0.1-0.1h0.2c0.1,0,0.2,0,0.2,0.1l1.5,3.5
	l1.5-3.5c0-0.1,0.1-0.1,0.2-0.1h0.2c0,0,0.1,0,0.1,0.1c0,0,0.1,0.1,0.1,0.1c0,0,0,0.1-0.1,0.2L25.5-94c0,0.1-0.1,0.1-0.2,0.1H25.1z
	 M33.5-95.6c-0.1,0-0.1,0-0.1-0.1c0,0-0.1-0.1-0.1-0.1v-5.2l-1.6,1.2c0,0-0.1,0-0.1,0c-0.1,0-0.1,0-0.1-0.1l-0.1-0.1
	c0,0,0-0.1,0-0.1c0-0.1,0-0.1,0.1-0.1l1.9-1.4c0.1,0,0.1-0.1,0.2-0.1h0.2c0.1,0,0.1,0,0.1,0.1c0,0,0.1,0.1,0.1,0.1v5.8
	c0,0.1,0,0.1-0.1,0.1c0,0-0.1,0.1-0.1,0.1H33.5z M39.3-97.3c-0.2,0-0.4-0.1-0.6-0.3c-0.2-0.2-0.3-0.4-0.3-0.6c0-0.2,0.1-0.4,0.3-0.6
	c0.2-0.2,0.4-0.3,0.6-0.3c0.2,0,0.4,0.1,0.6,0.3c0.2,0.2,0.3,0.4,0.3,0.6c0,0.2-0.1,0.4-0.3,0.6C39.7-97.4,39.5-97.3,39.3-97.3z
	 M46.4-95.6c-0.1,0-0.1,0-0.1-0.1c0,0-0.1-0.1-0.1-0.1v-5.2l-1.6,1.2c0,0-0.1,0-0.1,0c-0.1,0-0.1,0-0.1-0.1l-0.1-0.1
	c0,0,0-0.1,0-0.1c0-0.1,0-0.1,0.1-0.1l1.9-1.4c0.1,0,0.1-0.1,0.2-0.1h0.2c0.1,0,0.1,0,0.1,0.1c0,0,0.1,0.1,0.1,0.1v5.8
	c0,0.1,0,0.1-0.1,0.1c0,0-0.1,0.1-0.1,0.1H46.4z M48.6-95.6c-0.1,0-0.1,0-0.1-0.1c0,0-0.1-0.1-0.1-0.1v-0.1c0-0.1,0.1-0.2,0.2-0.4
	l2.3-2.3c0.3-0.3,0.5-0.5,0.6-0.8c0.1-0.2,0.2-0.4,0.2-0.7c0-0.4-0.1-0.7-0.3-0.9c-0.2-0.2-0.5-0.3-1-0.3c-0.4,0-0.7,0.1-0.9,0.3
	c-0.2,0.2-0.4,0.5-0.4,0.9c0,0.1,0,0.1-0.1,0.1c0,0-0.1,0.1-0.1,0.1h-0.2c-0.1,0-0.1,0-0.1,0c0,0,0-0.1,0-0.1c0-0.3,0.1-0.6,0.2-0.9
	c0.1-0.3,0.4-0.5,0.6-0.7c0.3-0.2,0.6-0.3,1.1-0.3c0.6,0,1.1,0.2,1.4,0.5c0.3,0.3,0.5,0.8,0.5,1.3c0,0.4-0.1,0.7-0.2,0.9
	c-0.2,0.3-0.4,0.6-0.7,0.9l-2.1,2.1h2.9c0.1,0,0.1,0,0.1,0.1c0,0,0.1,0.1,0.1,0.1v0.1c0,0.1,0,0.1-0.1,0.1c0,0-0.1,0.1-0.1,0.1H48.6
	z M54-98.6c-0.1,0-0.1,0-0.1-0.1c0,0-0.1-0.1-0.1-0.1v-0.4c0-0.1,0-0.1,0.1-0.1c0,0,0.1-0.1,0.1-0.1h0.4c0.1,0,0.1,0,0.1,0.1
	c0,0,0.1,0.1,0.1,0.1v0.4c0,0.1,0,0.1-0.1,0.1c0,0-0.1,0.1-0.1,0.1H54z M54-95.6c-0.1,0-0.1,0-0.1-0.1c0,0-0.1-0.1-0.1-0.1v-0.4
	c0-0.1,0-0.1,0.1-0.1c0,0,0.1-0.1,0.1-0.1h0.4c0.1,0,0.1,0,0.1,0.1c0,0,0.1,0.1,0.1,0.1v0.4c0,0.1,0,0.1-0.1,0.1
	c0,0-0.1,0.1-0.1,0.1H54z M58.2-95.5c-0.4,0-0.8-0.1-1.1-0.2c-0.3-0.1-0.5-0.3-0.7-0.6c-0.2-0.2-0.3-0.5-0.3-0.7
	c0-0.1,0-0.1,0.1-0.1c0,0,0.1,0,0.1,0h0.1c0.1,0,0.1,0,0.1,0c0,0,0.1,0.1,0.1,0.2c0.1,0.3,0.3,0.6,0.6,0.7c0.3,0.1,0.6,0.2,1,0.2
	c0.5,0,0.8-0.1,1.1-0.3c0.3-0.2,0.4-0.5,0.4-1c0-0.8-0.5-1.2-1.5-1.2h-0.8c-0.1,0-0.1,0-0.1-0.1c0,0-0.1-0.1-0.1-0.1v-0.1
	c0-0.1,0-0.1,0.1-0.2l1.8-2.1h-2.6c-0.1,0-0.1,0-0.1-0.1c0,0-0.1-0.1-0.1-0.1v-0.1c0-0.1,0-0.1,0.1-0.1c0,0,0.1-0.1,0.1-0.1h3.3
	c0.1,0,0.1,0,0.1,0.1c0,0,0.1,0.1,0.1,0.1v0.1c0,0.1,0,0.1-0.1,0.2L58.1-99h0.2c0.6,0,1.1,0.1,1.5,0.4c0.4,0.3,0.5,0.7,0.5,1.3
	c0,0.4-0.1,0.7-0.3,1c-0.2,0.3-0.4,0.5-0.7,0.6C59-95.5,58.6-95.5,58.2-95.5z M64.7-95.6c-0.1,0-0.1,0-0.1-0.1c0,0-0.1-0.1-0.1-0.1
	v-1.4h-2.9c-0.1,0-0.1,0-0.1-0.1c0,0-0.1-0.1-0.1-0.1v-0.1c0-0.1,0-0.2,0.1-0.3l2.7-3.8c0,0,0.1-0.1,0.1-0.1c0.1,0,0.1,0,0.2,0h0.4
	c0.1,0,0.1,0,0.1,0.1c0,0,0.1,0.1,0.1,0.1v3.8h0.8c0.1,0,0.1,0,0.1,0.1c0,0,0.1,0.1,0.1,0.1v0.1c0,0.1,0,0.1-0.1,0.1
	c0,0-0.1,0.1-0.1,0.1h-0.8v1.4c0,0.1,0,0.1-0.1,0.1c0,0-0.1,0.1-0.1,0.1H64.7z M64.5-97.7v-3.4l-2.4,3.4H64.5z M67.6-98.6
	c-0.1,0-0.1,0-0.1-0.1c0,0-0.1-0.1-0.1-0.1v-0.4c0-0.1,0-0.1,0.1-0.1c0,0,0.1-0.1,0.1-0.1H68c0.1,0,0.1,0,0.1,0.1
	c0,0,0.1,0.1,0.1,0.1v0.4c0,0.1,0,0.1-0.1,0.1c0,0-0.1,0.1-0.1,0.1H67.6z M67.6-95.6c-0.1,0-0.1,0-0.1-0.1c0,0-0.1-0.1-0.1-0.1v-0.4
	c0-0.1,0-0.1,0.1-0.1c0,0,0.1-0.1,0.1-0.1H68c0.1,0,0.1,0,0.1,0.1c0,0,0.1,0.1,0.1,0.1v0.4c0,0.1,0,0.1-0.1,0.1c0,0-0.1,0.1-0.1,0.1
	H67.6z M71.7-95.5c-0.4,0-0.8-0.1-1.1-0.2c-0.3-0.2-0.5-0.4-0.7-0.6c-0.2-0.2-0.2-0.5-0.3-0.8v0c0,0,0-0.1,0-0.1c0,0,0.1,0,0.1,0
	h0.2c0.1,0,0.1,0,0.1,0c0,0,0.1,0.1,0.1,0.2c0.1,0.4,0.3,0.6,0.5,0.8c0.3,0.2,0.6,0.3,0.9,0.3c0.5,0,0.8-0.1,1.1-0.4
	c0.3-0.3,0.4-0.6,0.4-1.1c0-0.3-0.1-0.5-0.2-0.8c-0.1-0.2-0.3-0.4-0.6-0.5C72.3-98.9,72-99,71.7-99c-0.2,0-0.4,0-0.6,0.1
	c-0.1,0.1-0.3,0.1-0.4,0.2c-0.1,0.1-0.2,0.1-0.2,0.1c-0.1,0-0.1,0-0.2,0h-0.2c-0.1,0-0.1,0-0.1-0.1c0,0-0.1-0.1-0.1-0.1l0.3-2.9
	c0-0.1,0-0.1,0.1-0.1c0,0,0.1-0.1,0.1-0.1h2.9c0.1,0,0.1,0,0.1,0.1c0,0,0.1,0.1,0.1,0.1v0.1c0,0.1,0,0.1-0.1,0.1
	c0,0-0.1,0.1-0.1,0.1h-2.5l-0.2,2c0.3-0.2,0.7-0.3,1.1-0.3c0.4,0,0.8,0.1,1.1,0.2c0.3,0.2,0.6,0.4,0.8,0.7c0.2,0.3,0.3,0.6,0.3,1.1
	c0,0.4-0.1,0.8-0.3,1.1c-0.2,0.3-0.4,0.5-0.8,0.7C72.5-95.6,72.1-95.5,71.7-95.5z M77.3-95.5c-0.4,0-0.8-0.1-1.2-0.3
	c-0.3-0.2-0.6-0.4-0.7-0.8c-0.2-0.3-0.2-0.7-0.2-1c0-0.5,0.2-1,0.6-1.6l1.7-2.4c0,0,0,0,0-0.1c0,0,0.1-0.1,0.1-0.1c0,0,0.1,0,0.1,0
	h0.2c0.1,0,0.1,0,0.1,0.1c0,0,0.1,0.1,0.1,0.1c0,0,0,0.1,0,0.1l-1.3,1.9c0.2,0,0.4-0.1,0.6-0.1c0.5,0,0.8,0.1,1.2,0.3
	c0.3,0.2,0.6,0.4,0.7,0.8c0.2,0.3,0.2,0.7,0.2,1c0,0.4-0.1,0.7-0.2,1c-0.2,0.3-0.4,0.6-0.7,0.8C78.1-95.6,77.8-95.5,77.3-95.5z
	 M77.3-96c0.3,0,0.5-0.1,0.8-0.2c0.2-0.1,0.4-0.3,0.6-0.5c0.1-0.2,0.2-0.5,0.2-0.8c0-0.3-0.1-0.6-0.2-0.8c-0.1-0.2-0.3-0.4-0.6-0.5
	c-0.2-0.1-0.5-0.2-0.8-0.2c-0.3,0-0.5,0.1-0.8,0.2c-0.2,0.1-0.4,0.3-0.6,0.5c-0.1,0.2-0.2,0.5-0.2,0.8c0,0.3,0.1,0.6,0.2,0.8
	c0.1,0.2,0.3,0.4,0.6,0.5C76.8-96.1,77-96,77.3-96z"/>
<path class="st3" d="M88.6-101.7h3.1c0.5,0,0.9,0.4,0.9,0.9l0,0c0,0.5-0.4,0.9-0.9,0.9h-1.8c-0.5,0-0.9,0.4-0.9,0.9l0,0
	c0,0.5,0.4,0.9,0.9,0.9h1.8c0.5,0,0.9,0.4,0.9,0.9l0,0c0,0.5-0.4,0.9-0.9,0.9h-3.1"/>
<path class="st5" d="M96.9-95.5c-0.5,0-0.8-0.1-1.2-0.3c-0.3-0.2-0.6-0.4-0.7-0.8c-0.2-0.3-0.2-0.7-0.2-1c0-0.5,0.2-1,0.6-1.6
	l1.7-2.4c0,0,0,0,0-0.1c0,0,0.1-0.1,0.1-0.1c0,0,0.1,0,0.1,0h0.2c0.1,0,0.1,0,0.1,0.1c0,0,0.1,0.1,0.1,0.1c0,0,0,0.1,0,0.1l-1.3,1.9
	c0.2,0,0.4-0.1,0.6-0.1c0.5,0,0.8,0.1,1.2,0.3c0.3,0.2,0.6,0.4,0.7,0.8c0.2,0.3,0.2,0.7,0.2,1c0,0.4-0.1,0.7-0.2,1
	c-0.2,0.3-0.4,0.6-0.7,0.8C97.7-95.6,97.4-95.5,96.9-95.5z M96.9-96c0.3,0,0.5-0.1,0.8-0.2c0.2-0.1,0.4-0.3,0.6-0.5
	c0.1-0.2,0.2-0.5,0.2-0.8c0-0.3-0.1-0.6-0.2-0.8c-0.1-0.2-0.3-0.4-0.6-0.5c-0.2-0.1-0.5-0.2-0.8-0.2c-0.3,0-0.5,0.1-0.8,0.2
	c-0.2,0.1-0.4,0.3-0.6,0.5c-0.1,0.2-0.2,0.5-0.2,0.8c0,0.3,0.1,0.6,0.2,0.8c0.1,0.2,0.3,0.4,0.6,0.5C96.4-96.1,96.6-96,96.9-96z
	 M102.3-95.5c-0.4,0-0.8-0.1-1.1-0.2c-0.3-0.2-0.5-0.4-0.7-0.6c-0.2-0.2-0.2-0.5-0.3-0.8v0c0,0,0-0.1,0-0.1c0,0,0.1,0,0.1,0h0.2
	c0.1,0,0.1,0,0.1,0c0,0,0.1,0.1,0.1,0.2c0.1,0.4,0.3,0.6,0.5,0.8c0.3,0.2,0.6,0.3,0.9,0.3c0.5,0,0.8-0.1,1.1-0.4
	c0.3-0.3,0.4-0.6,0.4-1.1c0-0.3-0.1-0.5-0.2-0.8c-0.1-0.2-0.3-0.4-0.6-0.5c-0.2-0.1-0.5-0.2-0.8-0.2c-0.2,0-0.4,0-0.6,0.1
	c-0.1,0.1-0.3,0.1-0.4,0.2c-0.1,0.1-0.2,0.1-0.2,0.1c-0.1,0-0.1,0-0.2,0h-0.2c-0.1,0-0.1,0-0.1-0.1c0,0-0.1-0.1-0.1-0.1l0.3-2.9
	c0-0.1,0-0.1,0.1-0.1c0,0,0.1-0.1,0.1-0.1h2.9c0.1,0,0.1,0,0.1,0.1c0,0,0.1,0.1,0.1,0.1v0.1c0,0.1,0,0.1-0.1,0.1
	c0,0-0.1,0.1-0.1,0.1h-2.5l-0.2,2c0.3-0.2,0.7-0.3,1.1-0.3c0.4,0,0.8,0.1,1.1,0.2c0.3,0.2,0.6,0.4,0.8,0.7c0.2,0.3,0.3,0.6,0.3,1.1
	c0,0.4-0.1,0.8-0.3,1.1c-0.2,0.3-0.4,0.5-0.8,0.7C103-95.6,102.7-95.5,102.3-95.5z"/>
<path class="st3" d="M117.9-100.1L117.9-100.1L117.9-100.1c-0.2,0.7-0.7,1.5-1.3,2.2l0,0c-0.5,0.6-1,1.1-1.3,1.4
	c-0.1,0.1-0.2,0.2-0.3,0.3c0,0-0.1-0.1-0.2-0.1c-0.3-0.3-0.6-0.6-1-1c-0.8-0.9-1.6-1.9-1.8-2.8v0l0,0c0-0.1-0.1-0.3-0.1-0.5v0v0l0,0
	v0v0v0v0l0,0v0v0v0v0l0,0v0v0v0v0l0,0v0v0v0v0l0,0v0v0v0v0l0,0v0v0v0v0l0,0v0v0v0l0,0v0v0v0v0l0,0v0v0v0v0l0,0v0v0v0l0,0v0v0v0v0
	l0,0v0v0v0l0,0v0v0v0v0l0,0v0v0v0l0,0v0v0v0v0l0,0v0v0v0l0,0v0v0v0v0l0,0v0v0v0l0,0v0v0v0l0,0v0v0v0v0l0,0v0v0v0l0,0v0v0v0l0,0v0v0
	v0v0l0,0v0v0v0l0,0v0v0v0l0,0v0v0v0l0,0v0v0v0l0,0v0v0v0v0l0,0v0v0v0l0,0v0v0v0l0,0v0v0v0l0,0v0v0v0l0,0v0v0v0l0,0v0v0v0l0,0v0v0v0
	l0,0v0v0v0l0,0v0v0v0l0,0v0v0v0v0l0,0v0v0v0l0,0v0v0v0l0,0v0v0v0l0,0v0v0v0l0,0v0v0v0l0,0v0v0v0l0,0v0v0v0l0,0v0v0v0l0,0v0v0l0,0v0
	v0v0l0,0v0v0v0l0,0v0v0v0l0,0v0v0v0l0,0v0v0v0l0,0v0v0v0l0,0v0v0v0l0,0v0v0v0l0,0v0v0v0l0,0v0v0v0l0,0v0v0v0l0,0v0v0v0l0,0v0v0v0
	l0,0v0v0v0l0,0v0v0v0l0,0v0v0v0l0,0v0v0l0,0v0v0v0l0,0v0v0v0l0,0v0v0v0l0,0v0v0v0l0,0v0v0v0l0,0v0v0v0l0,0v0v0v0l0,0v0v0v0l0,0v0v0
	v0l0,0v0v0v0l0,0v0v0v0l0,0v0v0v0l0,0v0v0v0l0,0v0v0v0l0,0v0v0v0l0,0v0v0v0l0,0v0v0v0l0,0v0v0v0l0,0v0v0v0l0,0v0v0v0l0,0v0v0v0l0,0
	v0v0v0l0,0v0v0v0l0,0v0v0v0l0,0v0v0v0l0,0v0v0v0v0l0,0v0v0v0l0,0v0v0v0l0,0v0v0v0l0,0v0v0v0l0,0v0v0v0v0l0,0v0v0v0l0,0v0v0v0l0,0v0
	v0v0l0,0v0v0v0v0l0,0v0v0v0l0,0v0v0v0l0,0v0v0v0v0l0,0v0v0v0l0,0v0v0v0l0,0v0v0v0v0l0,0v0v0v0l0,0v0v0v0v0l0,0v0v0v0l0,0v0v0
	c0-0.8,0.7-1.5,1.6-1.5c0.5,0,0.9,0.2,1.2,0.5l0.3,0.4l0.3-0.4c0.1-0.1,0.2-0.2,0.3-0.2l0,0c0.3-0.2,0.6-0.3,0.9-0.3
	c0.9,0,1.6,0.7,1.6,1.6C118-100.4,118-100.3,117.9-100.1z"/>
<path class="st5" d="M121.7-95.6c-0.1,0-0.1,0-0.1-0.1c0,0-0.1-0.1-0.1-0.1v-5.2l-1.6,1.2c0,0-0.1,0-0.1,0c-0.1,0-0.1,0-0.1-0.1
	l-0.1-0.1c0,0,0-0.1,0-0.1c0-0.1,0-0.1,0.1-0.1l1.9-1.4c0.1,0,0.1-0.1,0.2-0.1h0.2c0.1,0,0.1,0,0.1,0.1c0,0,0.1,0.1,0.1,0.1v5.8
	c0,0.1,0,0.1-0.1,0.1c0,0-0.1,0.1-0.1,0.1H121.7z M123.9-95.6c-0.1,0-0.1,0-0.1-0.1c0,0-0.1-0.1-0.1-0.1v-0.1c0-0.1,0.1-0.2,0.2-0.4
	l2.3-2.3c0.3-0.3,0.5-0.5,0.6-0.8c0.1-0.2,0.2-0.4,0.2-0.7c0-0.4-0.1-0.7-0.3-0.9c-0.2-0.2-0.5-0.3-1-0.3c-0.4,0-0.7,0.1-0.9,0.3
	c-0.2,0.2-0.4,0.5-0.4,0.9c0,0.1,0,0.1-0.1,0.1c0,0-0.1,0.1-0.1,0.1h-0.2c-0.1,0-0.1,0-0.1,0c0,0,0-0.1,0-0.1c0-0.3,0.1-0.6,0.2-0.9
	c0.1-0.3,0.4-0.5,0.6-0.7c0.3-0.2,0.6-0.3,1.1-0.3c0.6,0,1.1,0.2,1.4,0.5c0.3,0.3,0.5,0.8,0.5,1.3c0,0.4-0.1,0.7-0.2,0.9
	c-0.2,0.3-0.4,0.6-0.7,0.9l-2.1,2.1h2.9c0.1,0,0.1,0,0.1,0.1c0,0,0.1,0.1,0.1,0.1v0.1c0,0.1,0,0.1-0.1,0.1c0,0-0.1,0.1-0.1,0.1
	H123.9z M131-95.5c-0.4,0-0.8-0.1-1.1-0.2c-0.3-0.1-0.6-0.3-0.7-0.6c-0.2-0.2-0.3-0.5-0.3-0.7c0-0.1,0-0.1,0.1-0.1c0,0,0.1,0,0.1,0
	h0.1c0.1,0,0.1,0,0.1,0c0,0,0.1,0.1,0.1,0.2c0.1,0.3,0.3,0.6,0.6,0.7c0.3,0.1,0.6,0.2,1,0.2c0.5,0,0.8-0.1,1.1-0.3
	c0.3-0.2,0.4-0.5,0.4-1c0-0.8-0.5-1.2-1.5-1.2h-0.8c-0.1,0-0.1,0-0.1-0.1s-0.1-0.1-0.1-0.1v-0.1c0-0.1,0-0.1,0.1-0.2l1.8-2.1h-2.6
	c-0.1,0-0.1,0-0.1-0.1c0,0-0.1-0.1-0.1-0.1v-0.1c0-0.1,0-0.1,0.1-0.1c0,0,0.1-0.1,0.1-0.1h3.3c0.1,0,0.1,0,0.1,0.1
	c0,0,0.1,0.1,0.1,0.1v0.1c0,0.1,0,0.1-0.1,0.2l-1.8,2.2h0.2c0.6,0,1.1,0.1,1.5,0.4c0.4,0.3,0.5,0.7,0.5,1.3c0,0.4-0.1,0.7-0.3,1
	c-0.2,0.3-0.4,0.5-0.7,0.6C131.8-95.5,131.4-95.5,131-95.5z M138.6-95.5c-0.3,0-0.5-0.1-0.8-0.2c-0.2-0.1-0.4-0.3-0.6-0.5
	c-0.1-0.2-0.2-0.4-0.2-0.7c0-0.4,0.2-0.7,0.5-0.9c0.3-0.2,0.7-0.4,1.3-0.5l1.4-0.2v-0.3c0-0.3-0.1-0.6-0.3-0.7
	c-0.2-0.2-0.5-0.3-0.9-0.3c-0.3,0-0.5,0.1-0.7,0.2c-0.2,0.1-0.3,0.3-0.4,0.4c0,0.1-0.1,0.1-0.1,0.1c0,0-0.1,0-0.1,0h-0.1
	c-0.1,0-0.1,0-0.1-0.1c0,0-0.1-0.1-0.1-0.1c0-0.1,0.1-0.3,0.2-0.4c0.1-0.2,0.3-0.3,0.5-0.5c0.2-0.1,0.5-0.2,0.9-0.2
	c0.6,0,1.1,0.1,1.3,0.4c0.3,0.3,0.4,0.7,0.4,1.1v2.9c0,0.1,0,0.1-0.1,0.1c0,0-0.1,0.1-0.1,0.1h-0.1c-0.1,0-0.1,0-0.1-0.1
	c0,0-0.1-0.1-0.1-0.1v-0.4c-0.1,0.2-0.3,0.4-0.6,0.5C139.3-95.5,139-95.5,138.6-95.5z M138.6-96c0.4,0,0.8-0.1,1.1-0.4
	c0.3-0.3,0.4-0.7,0.4-1.2v-0.3l-1.1,0.2c-0.5,0.1-0.8,0.2-1.1,0.3c-0.2,0.2-0.4,0.4-0.4,0.6c0,0.3,0.1,0.5,0.3,0.6
	C138.1-96.1,138.3-96,138.6-96z M143.9-95.6c-0.2,0-0.3-0.1-0.3-0.2l-1.6-4.1l0-0.1c0,0,0-0.1,0.1-0.1c0,0,0.1-0.1,0.1-0.1h0.2
	c0.1,0,0.1,0,0.1,0c0,0,0.1,0.1,0.1,0.1l1.5,3.8l1.5-3.8c0,0,0-0.1,0.1-0.1c0,0,0.1,0,0.1,0h0.2c0,0,0.1,0,0.1,0.1
	c0,0,0.1,0.1,0.1,0.1l0,0.1l-1.6,4.1c-0.1,0.1-0.2,0.2-0.3,0.2H143.9z M149-93.6c-0.5,0-0.8-0.1-1.1-0.2c-0.3-0.2-0.5-0.3-0.6-0.5
	c-0.1-0.2-0.2-0.4-0.2-0.5c0-0.1,0-0.1,0.1-0.1c0,0,0.1-0.1,0.1-0.1h0.1c0.1,0,0.1,0,0.1,0c0,0,0.1,0.1,0.1,0.1
	c0.2,0.5,0.6,0.8,1.3,0.8c0.5,0,0.9-0.1,1.1-0.3c0.2-0.2,0.4-0.6,0.4-1.1v-0.6c-0.3,0.5-0.8,0.7-1.5,0.7c-0.6,0-1.1-0.2-1.4-0.6
	c-0.3-0.4-0.5-0.9-0.5-1.5l0-0.2l0-0.2c0-0.6,0.2-1.1,0.5-1.5c0.3-0.4,0.8-0.6,1.4-0.6c0.6,0,1.1,0.2,1.5,0.7v-0.4
	c0-0.1,0-0.1,0.1-0.1c0,0,0.1-0.1,0.1-0.1h0.1c0.1,0,0.1,0,0.1,0.1c0,0,0.1,0.1,0.1,0.1v4.3c0,0.6-0.1,1.1-0.4,1.5
	C150.2-93.8,149.7-93.6,149-93.6z M149-96c0.5,0,0.8-0.2,1-0.5c0.2-0.3,0.4-0.7,0.4-1.1c0-0.1,0-0.2,0-0.3c0-0.2,0-0.3,0-0.3
	c0-0.4-0.1-0.8-0.4-1.1c-0.2-0.3-0.6-0.5-1-0.5c-0.5,0-0.8,0.2-1,0.5c-0.2,0.3-0.3,0.7-0.4,1.2l0,0.2l0,0.2c0,0.5,0.1,0.9,0.4,1.2
	C148.2-96.1,148.5-96,149-96z"/>
<circle class="st3" cx="162" cy="-99.1" r="3.1"/>
<path class="st3" d="M161.5-100.8v2.2h2.2"/>
<path class="st5" d="M168.8-95.6c-0.1,0-0.1,0-0.1-0.1c0,0-0.1-0.1-0.1-0.1v-5.2l-1.6,1.2c0,0-0.1,0-0.1,0c-0.1,0-0.1,0-0.1-0.1
	l-0.1-0.1c0,0,0-0.1,0-0.1c0-0.1,0-0.1,0.1-0.1l1.9-1.4c0.1,0,0.1-0.1,0.2-0.1h0.2c0.1,0,0.1,0,0.1,0.1c0,0,0.1,0.1,0.1,0.1v5.8
	c0,0.1,0,0.1-0.1,0.1c0,0-0.1,0.1-0.1,0.1H168.8z M171.1-95.6c-0.1,0-0.1,0-0.1-0.1c0,0-0.1-0.1-0.1-0.1v-0.4c0-0.1,0-0.1,0.1-0.1
	c0,0,0.1-0.1,0.1-0.1h0.4c0.1,0,0.1,0,0.1,0.1c0,0,0.1,0.1,0.1,0.1v0.4c0,0.1,0,0.1-0.1,0.1c0,0-0.1,0.1-0.1,0.1H171.1z M175.3-95.5
	c-0.7,0-1.3-0.2-1.6-0.7c-0.3-0.4-0.5-1-0.5-1.8l0-0.7l0-0.7c0-0.7,0.2-1.3,0.5-1.8c0.3-0.4,0.9-0.7,1.6-0.7c0.7,0,1.3,0.2,1.6,0.7
	c0.3,0.4,0.5,1,0.5,1.8c0,0.2,0,0.4,0,0.7c0,0.3,0,0.6,0,0.7c0,0.7-0.2,1.3-0.5,1.8C176.5-95.7,176-95.5,175.3-95.5z M175.3-96
	c0.5,0,0.9-0.2,1.1-0.5c0.3-0.3,0.4-0.8,0.4-1.4c0-0.2,0-0.4,0-0.7c0-0.3,0-0.5,0-0.7c0-0.6-0.1-1.1-0.4-1.4
	c-0.3-0.3-0.6-0.5-1.1-0.5s-0.9,0.2-1.1,0.5c-0.3,0.3-0.4,0.8-0.4,1.4l0,0.7l0,0.7c0,0.6,0.1,1.1,0.4,1.4
	C174.4-96.2,174.8-96,175.3-96z M180.5-95.5c-0.4,0-0.7-0.1-1-0.2c-0.3-0.1-0.5-0.3-0.6-0.4c-0.1-0.2-0.2-0.3-0.2-0.4
	c0-0.1,0-0.1,0.1-0.1c0,0,0.1-0.1,0.1-0.1h0.1c0,0,0.1,0,0.1,0c0,0,0.1,0,0.1,0.1c0.1,0.2,0.3,0.3,0.5,0.4c0.2,0.1,0.4,0.1,0.8,0.1
	c0.4,0,0.7-0.1,0.9-0.2c0.2-0.1,0.3-0.3,0.3-0.6c0-0.2,0-0.3-0.1-0.4c-0.1-0.1-0.2-0.2-0.4-0.3c-0.2-0.1-0.5-0.2-0.9-0.3
	c-0.5-0.1-0.9-0.3-1.1-0.5c-0.2-0.2-0.3-0.5-0.3-0.8c0-0.2,0.1-0.4,0.2-0.6c0.1-0.2,0.3-0.4,0.5-0.5c0.2-0.1,0.5-0.2,0.9-0.2
	c0.3,0,0.6,0.1,0.9,0.2c0.2,0.1,0.4,0.3,0.5,0.4c0.1,0.2,0.2,0.3,0.2,0.4c0,0.1,0,0.1-0.1,0.1c0,0-0.1,0-0.1,0h-0.1
	c-0.1,0-0.1,0-0.2-0.1c-0.1-0.2-0.3-0.3-0.4-0.4c-0.1-0.1-0.4-0.1-0.7-0.1c-0.3,0-0.6,0.1-0.8,0.2c-0.2,0.1-0.3,0.3-0.3,0.6
	c0,0.1,0,0.3,0.1,0.4c0.1,0.1,0.2,0.2,0.4,0.3c0.2,0.1,0.5,0.2,0.8,0.2c0.5,0.1,0.9,0.3,1.1,0.5c0.2,0.2,0.3,0.5,0.3,0.8
	c0,0.2-0.1,0.5-0.2,0.7c-0.1,0.2-0.3,0.4-0.6,0.5C181.2-95.5,180.9-95.5,180.5-95.5z"/>
<line class="st6" x1="0" y1="-89.7" x2="645.2" y2="-89.7"/>
<rect y="-89.4" class="st7" width="645.2" height="87.7"/>
<g>
	<defs>
		<rect id="SVGID_1_" y="-77.1" width="645.2" height="63.1"/>
	</defs>
	<clipPath id="SVGID_2_">
		<use xlink:href="#SVGID_1_"  style="overflow:visible;"/>
	</clipPath>
	<g class="st8">
		<path class="st9" d="M-25.2-38.5c1,0,7.7,0,8.6,0c1.1,0,4-3.4,4.9-5.7c0.9-2.3,2.6-8.3,4.9-0.9c2.3,7.5,7.4,6.3,8.3,5.7
			c0.9-0.6,2-0.9,3.1,0c1.1,0.9,2-4,2-6.6c0-2.6,1.7-33.1,1.7-31s2.3,60.4,2.6,62.7c0.3,2.3,0.9-1.4,1.4-7.5
			c0.6-6,0.6-17.5,3.7-18.4c3.1-0.9,11.8,2,15.4-3.3c3.7-5.4,6-9.7,7.4-9.7c1.4,0,3.7,9.1,7.4,11.7c3.7,2.6,12.9,3,15.4,3"/>
		<path class="st9" d="M61.8-38.5c1,0,7.7,0,8.6,0c1.1,0,4-3.4,4.9-5.7c0.9-2.3,2.6-8.3,4.9-0.9c2.3,7.5,7.4,6.3,8.3,5.7
			c0.9-0.6,2-0.9,3.1,0c1.1,0.9,2-4,2-6.6c0-2.6,1.7-33.1,1.7-31s2.3,60.4,2.6,62.7c0.3,2.3,0.9-1.4,1.4-7.5
			c0.6-6,0.6-17.5,3.7-18.4c3.1-0.9,11.8,2,15.4-3.3c3.7-5.4,6-9.7,7.4-9.7c1.4,0,3.7,9.1,7.4,11.7c3.7,2.6,12.9,3,15.4,3"/>
		<path class="st9" d="M148.7-38.5c1,0,7.7,0,8.6,0c1.1,0,4-3.4,4.9-5.7s2.6-8.3,4.9-0.9c2.3,7.5,7.4,6.3,8.3,5.7
			c0.9-0.6,2-0.9,3.1,0c1.1,0.9,2-4,2-6.6c0-2.6,1.7-33.1,1.7-31s2.3,60.4,2.6,62.7c0.3,2.3,0.9-1.4,1.4-7.5
			c0.6-6,0.6-17.5,3.7-18.4c3.1-0.9,11.8,2,15.4-3.3c3.7-5.4,6-9.7,7.4-9.7c1.4,0,3.7,9.1,7.4,11.7c3.7,2.6,12.9,3,15.4,3"/>
		<path class="st9" d="M235.7-38.5c1,0,4.2,0.7,8.6,0c4.4-0.7,53.1-5.1,62.9-3c9.8,2.1,12.9,3,15.4,3"/>
		<path class="st9" d="M322.7-38.5c1,0,7.7,0,8.6,0c1.1,0,4-3.4,4.9-5.7c0.9-2.3,2.6-8.3,4.9-0.9c2.3,7.5,7.4,6.3,8.3,5.7
			c0.9-0.6,2-0.9,3.1,0c1.1,0.9,2-4,2-6.6c0-2.6,1.7-33.1,1.7-31s2.3,60.4,2.6,62.7c0.3,2.3,0.9-1.4,1.4-7.5
			c0.6-6,0.6-17.5,3.7-18.4c3.1-0.9,11.8,2,15.4-3.3c3.7-5.4,6-9.7,7.4-9.7c1.4,0,3.7,9.1,7.4,11.7c3.7,2.6,12.9,3,15.4,3"/>
		<path class="st9" d="M409.6-38.5c1,0,7.7,0,8.6,0c1.1,0,4-3.4,4.9-5.7s2.6-8.3,4.9-0.9c2.3,7.5,7.4,6.3,8.3,5.7
			c0.9-0.6,2-0.9,3.1,0c1.1,0.9,2-4,2-6.6c0-2.6,1.7-33.1,1.7-31s2.3,60.4,2.6,62.7c0.3,2.3,0.9-1.4,1.4-7.5
			c0.6-6,0.6-17.5,3.7-18.4c3.1-0.9,11.8,2,15.4-3.3c3.7-5.4,6-9.7,7.4-9.7c1.4,0,3.7,9.1,7.4,11.7c3.7,2.6,12.9,3,15.4,3"/>
		<path class="st9" d="M496.6-38.5c1,0,7.7,0,8.6,0c1.1,0,4-3.4,4.9-5.7c0.9-2.3,2.6-8.3,4.9-0.9c2.3,7.5,7.4,6.3,8.3,5.7
			c0.9-0.6,2-0.9,3.1,0c1.1,0.9,2-4,2-6.6c0-2.6,1.7-33.1,1.7-31s2.3,60.4,2.6,62.7c0.3,2.3,0.9-1.4,1.4-7.5
			c0.6-6,0.6-17.5,3.7-18.4c3.1-0.9,11.8,2,15.4-3.3c3.7-5.4,6-9.7,7.4-9.7s3.7,9.1,7.4,11.7c3.7,2.6,12.9,3,15.4,3"/>
		<path class="st9" d="M583.6-38.5c1,0,7.7,0,8.6,0c1.1,0,4-3.4,4.9-5.7c0.9-2.3,2.6-8.3,4.9-0.9c2.3,7.5,7.4,6.3,8.3,5.7
			c0.9-0.6,2-0.9,3.1,0c1.1,0.9,2-4,2-6.6c0-2.6,1.7-33.1,1.7-31s2.3,60.4,2.6,62.7c0.3,2.3,0.9-1.4,1.4-7.5
			c0.6-6,0.6-17.5,3.7-18.4c3.1-0.9,11.8,2,15.4-3.3c3.7-5.4,6-9.7,7.4-9.7c1.4,0,3.7,9.1,7.4,11.7c3.7,2.6,12.9,3,15.4,3"/>
	</g>
</g>
<path class="st10" d="M632.9-6.7c-0.4,0-0.8-0.1-1.1-0.2c-0.3-0.1-0.6-0.3-0.8-0.6s-0.3-0.6-0.3-1c0-0.4,0.1-0.7,0.3-0.9
	s0.4-0.5,0.7-0.6c-0.2-0.1-0.4-0.3-0.6-0.5c-0.1-0.2-0.2-0.5-0.2-0.8c0-0.5,0.2-0.9,0.6-1.2c0.4-0.3,0.8-0.4,1.4-0.4s1,0.1,1.4,0.4
	c0.4,0.3,0.6,0.7,0.6,1.2c0,0.3-0.1,0.6-0.2,0.8c-0.1,0.2-0.3,0.4-0.6,0.5c0.3,0.1,0.6,0.4,0.7,0.6c0.2,0.3,0.3,0.6,0.3,0.9
	c0,0.4-0.1,0.7-0.3,1c-0.2,0.3-0.5,0.5-0.8,0.6C633.7-6.8,633.3-6.7,632.9-6.7z M632.9-10.3c0.4,0,0.7-0.1,1-0.3
	c0.3-0.2,0.4-0.4,0.4-0.8c0-0.3-0.1-0.6-0.4-0.8c-0.3-0.2-0.6-0.3-1-0.3s-0.7,0.1-1,0.3c-0.3,0.2-0.4,0.5-0.4,0.8
	c0,0.3,0.1,0.6,0.4,0.8C632.2-10.4,632.5-10.3,632.9-10.3z M632.9-7.2c0.5,0,0.8-0.1,1.2-0.4c0.3-0.2,0.5-0.5,0.5-0.9
	c0-0.4-0.2-0.7-0.5-0.9c-0.3-0.2-0.7-0.4-1.2-0.4c-0.5,0-0.9,0.1-1.2,0.4c-0.3,0.2-0.5,0.5-0.5,0.9c0,0.4,0.2,0.7,0.5,0.9
	C632.1-7.3,632.5-7.2,632.9-7.2z M638.2-6.7c-0.4,0-0.7-0.1-1-0.2c-0.3-0.1-0.5-0.3-0.6-0.4c-0.1-0.2-0.2-0.3-0.2-0.4
	c0-0.1,0-0.1,0.1-0.1c0,0,0.1-0.1,0.1-0.1h0.1c0,0,0.1,0,0.1,0c0,0,0.1,0,0.1,0.1c0.1,0.2,0.3,0.3,0.5,0.4c0.2,0.1,0.4,0.1,0.8,0.1
	c0.4,0,0.7-0.1,0.9-0.2c0.2-0.1,0.3-0.3,0.3-0.6c0-0.2,0-0.3-0.1-0.4c-0.1-0.1-0.2-0.2-0.4-0.3c-0.2-0.1-0.5-0.2-0.9-0.3
	c-0.5-0.1-0.9-0.3-1.1-0.5c-0.2-0.2-0.3-0.5-0.3-0.8c0-0.2,0.1-0.4,0.2-0.6c0.1-0.2,0.3-0.4,0.5-0.5c0.2-0.1,0.5-0.2,0.9-0.2
	c0.3,0,0.6,0.1,0.9,0.2c0.2,0.1,0.4,0.3,0.5,0.4c0.1,0.2,0.2,0.3,0.2,0.4c0,0.1,0,0.1-0.1,0.1c0,0-0.1,0-0.1,0h-0.1
	c-0.1,0-0.1,0-0.2-0.1c-0.1-0.2-0.3-0.3-0.4-0.4c-0.1-0.1-0.4-0.1-0.7-0.1c-0.3,0-0.6,0.1-0.8,0.2c-0.2,0.1-0.3,0.3-0.3,0.6
	c0,0.1,0,0.3,0.1,0.4c0.1,0.1,0.2,0.2,0.4,0.3c0.2,0.1,0.5,0.2,0.8,0.2c0.5,0.1,0.9,0.3,1.1,0.5c0.2,0.2,0.3,0.5,0.3,0.8
	c0,0.2-0.1,0.5-0.2,0.7c-0.1,0.2-0.3,0.4-0.6,0.5C638.9-6.8,638.6-6.7,638.2-6.7z"/>
<path class="st10" d="M5-6.8c-0.1,0-0.1,0-0.1-0.1c0,0-0.1-0.1-0.1-0.1v-0.1c0-0.1,0.1-0.2,0.2-0.4l2.3-2.3C7.6-10,7.9-10.3,8-10.5
	c0.1-0.2,0.2-0.4,0.2-0.7c0-0.4-0.1-0.7-0.3-0.9c-0.2-0.2-0.5-0.3-1-0.3c-0.4,0-0.7,0.1-0.9,0.3c-0.2,0.2-0.4,0.5-0.4,0.9
	c0,0.1,0,0.1-0.1,0.1c0,0-0.1,0.1-0.1,0.1H5.1c-0.1,0-0.1,0-0.1,0c0,0,0-0.1,0-0.1c0-0.3,0.1-0.6,0.2-0.9c0.1-0.3,0.4-0.5,0.6-0.7
	C6.1-12.9,6.4-13,6.8-13c0.6,0,1.1,0.2,1.4,0.5s0.5,0.8,0.5,1.3c0,0.4-0.1,0.7-0.2,0.9C8.3-10,8.1-9.7,7.7-9.4L5.7-7.3h2.9
	c0.1,0,0.1,0,0.1,0.1c0,0,0.1,0.1,0.1,0.1V-7c0,0.1,0,0.1-0.1,0.1c0,0-0.1,0.1-0.1,0.1H5z M12.1-6.7c-0.4,0-0.8-0.1-1.1-0.2
	c-0.3-0.2-0.5-0.4-0.7-0.6c-0.2-0.2-0.2-0.5-0.3-0.8v0c0,0,0-0.1,0-0.1c0,0,0.1,0,0.1,0h0.2c0.1,0,0.1,0,0.1,0c0,0,0.1,0.1,0.1,0.2
	c0.1,0.4,0.3,0.6,0.5,0.8c0.3,0.2,0.6,0.3,0.9,0.3c0.5,0,0.8-0.1,1.1-0.4c0.3-0.3,0.4-0.6,0.4-1.1c0-0.3-0.1-0.5-0.2-0.8
	c-0.1-0.2-0.3-0.4-0.6-0.5c-0.2-0.1-0.5-0.2-0.8-0.2c-0.2,0-0.4,0-0.6,0.1c-0.1,0.1-0.3,0.1-0.4,0.2c-0.1,0.1-0.2,0.1-0.2,0.1
	c-0.1,0-0.1,0-0.2,0h-0.2c-0.1,0-0.1,0-0.1-0.1c0,0-0.1-0.1-0.1-0.1l0.3-2.9c0-0.1,0-0.1,0.1-0.1c0,0,0.1-0.1,0.1-0.1h2.9
	c0.1,0,0.1,0,0.1,0.1c0,0,0.1,0.1,0.1,0.1v0.1c0,0.1,0,0.1-0.1,0.1c0,0-0.1,0.1-0.1,0.1h-2.5l-0.2,2c0.3-0.2,0.7-0.3,1.1-0.3
	c0.4,0,0.8,0.1,1.1,0.2c0.3,0.2,0.6,0.4,0.8,0.7c0.2,0.3,0.3,0.6,0.3,1.1c0,0.4-0.1,0.8-0.3,1.1c-0.2,0.3-0.4,0.5-0.8,0.7
	C12.9-6.8,12.5-6.7,12.1-6.7z M18.7-6.8c-0.1,0-0.1,0-0.1-0.1c0,0-0.1-0.1-0.1-0.1v-4.2c0-0.1,0-0.1,0.1-0.1c0,0,0.1-0.1,0.1-0.1
	h0.1c0.1,0,0.1,0,0.1,0.1c0,0,0.1,0.1,0.1,0.1v0.3c0.2-0.2,0.3-0.3,0.5-0.4c0.2-0.1,0.4-0.1,0.7-0.1c0.7,0,1.1,0.3,1.4,0.8
	c0.1-0.3,0.3-0.4,0.6-0.6c0.3-0.2,0.6-0.2,0.9-0.2c0.5,0,0.9,0.2,1.2,0.5c0.3,0.3,0.5,0.8,0.5,1.4V-7c0,0.1,0,0.1-0.1,0.1
	c0,0-0.1,0.1-0.1,0.1h-0.1c-0.1,0-0.1,0-0.1-0.1c0,0-0.1-0.1-0.1-0.1v-2.5c0-0.5-0.1-0.9-0.3-1.1c-0.2-0.2-0.5-0.3-0.9-0.3
	c-0.3,0-0.6,0.1-0.8,0.4c-0.2,0.2-0.3,0.6-0.3,1.1V-7c0,0.1,0,0.1-0.1,0.1c0,0-0.1,0.1-0.1,0.1h-0.1c-0.1,0-0.1,0-0.1-0.1
	c0,0-0.1-0.1-0.1-0.1v-2.5c0-0.5-0.1-0.9-0.3-1.1c-0.2-0.2-0.5-0.4-0.9-0.4c-0.3,0-0.6,0.1-0.8,0.4C19.1-10.3,19-10,19-9.4V-7
	c0,0.1,0,0.1-0.1,0.1c0,0-0.1,0.1-0.1,0.1H18.7z M26.7-6.8c-0.1,0-0.1,0-0.1-0.1c0,0-0.1-0.1-0.1-0.1v-4.2c0-0.1,0-0.1,0.1-0.1
	c0,0,0.1-0.1,0.1-0.1h0.1c0.1,0,0.1,0,0.1,0.1c0,0,0.1,0.1,0.1,0.1v0.3c0.2-0.2,0.3-0.3,0.5-0.4c0.2-0.1,0.4-0.1,0.7-0.1
	c0.7,0,1.1,0.3,1.4,0.8c0.1-0.3,0.3-0.4,0.6-0.6c0.3-0.2,0.6-0.2,0.9-0.2c0.5,0,0.9,0.2,1.2,0.5c0.3,0.3,0.5,0.8,0.5,1.4V-7
	c0,0.1,0,0.1-0.1,0.1c0,0-0.1,0.1-0.1,0.1h-0.1c-0.1,0-0.1,0-0.1-0.1c0,0-0.1-0.1-0.1-0.1v-2.5c0-0.5-0.1-0.9-0.3-1.1
	c-0.2-0.2-0.5-0.3-0.9-0.3c-0.3,0-0.6,0.1-0.8,0.4C30.1-10.3,30-10,30-9.4V-7c0,0.1,0,0.1-0.1,0.1c0,0-0.1,0.1-0.1,0.1h-0.1
	c-0.1,0-0.1,0-0.1-0.1c0,0-0.1-0.1-0.1-0.1v-2.5c0-0.5-0.1-0.9-0.3-1.1c-0.2-0.2-0.5-0.4-0.9-0.4c-0.3,0-0.6,0.1-0.8,0.4
	c-0.2,0.2-0.3,0.6-0.3,1.1V-7c0,0.1,0,0.1-0.1,0.1c0,0-0.1,0.1-0.1,0.1H26.7z M34.3-6c0,0-0.1,0-0.1-0.1c0,0-0.1-0.1-0.1-0.1
	c0,0,0-0.1,0-0.1l3-7.2c0,0,0-0.1,0.1-0.1c0,0,0.1,0,0.1,0h0.1c0,0,0.1,0,0.1,0.1c0,0,0.1,0.1,0.1,0.1c0,0,0,0.1,0,0.1l-3,7.2
	c0,0,0,0.1-0.1,0.1c0,0-0.1,0-0.1,0H34.3z M40.2-6.7c-0.4,0-0.7-0.1-1-0.2c-0.3-0.1-0.5-0.3-0.6-0.4c-0.1-0.2-0.2-0.3-0.2-0.4
	c0-0.1,0-0.1,0.1-0.1c0,0,0.1-0.1,0.1-0.1h0.1c0,0,0.1,0,0.1,0c0,0,0.1,0,0.1,0.1c0.1,0.2,0.3,0.3,0.5,0.4c0.2,0.1,0.4,0.1,0.8,0.1
	c0.4,0,0.7-0.1,0.9-0.2c0.2-0.1,0.3-0.3,0.3-0.6c0-0.2,0-0.3-0.1-0.4c-0.1-0.1-0.2-0.2-0.4-0.3c-0.2-0.1-0.5-0.2-0.9-0.3
	C39.4-9,39-9.2,38.8-9.4c-0.2-0.2-0.3-0.5-0.3-0.8c0-0.2,0.1-0.4,0.2-0.6c0.1-0.2,0.3-0.4,0.5-0.5c0.2-0.1,0.5-0.2,0.9-0.2
	c0.4,0,0.6,0.1,0.9,0.2c0.2,0.1,0.4,0.3,0.5,0.4c0.1,0.2,0.2,0.3,0.2,0.4c0,0.1,0,0.1-0.1,0.1c0,0-0.1,0-0.1,0h-0.1
	c-0.1,0-0.1,0-0.2-0.1c-0.1-0.2-0.3-0.3-0.4-0.4c-0.1-0.1-0.4-0.1-0.7-0.1c-0.3,0-0.6,0.1-0.8,0.2c-0.2,0.1-0.3,0.3-0.3,0.6
	c0,0.1,0,0.3,0.1,0.4c0.1,0.1,0.2,0.2,0.4,0.3c0.2,0.1,0.5,0.2,0.8,0.2C41-9.2,41.3-9,41.6-8.8c0.2,0.2,0.3,0.5,0.3,0.8
	c0,0.2-0.1,0.5-0.2,0.7c-0.1,0.2-0.3,0.4-0.6,0.5C40.8-6.8,40.5-6.7,40.2-6.7z M45.1-6.7c-0.6,0-1-0.2-1.3-0.5
	c-0.3-0.4-0.5-0.9-0.6-1.5l0-0.4l0-0.4c0-0.6,0.2-1.1,0.6-1.5c0.3-0.4,0.8-0.6,1.4-0.6c0.6,0,1.1,0.2,1.4,0.6c0.3,0.4,0.5,1,0.5,1.7
	V-9C47-9,47-8.9,47-8.9c0,0-0.1,0.1-0.1,0.1h-3.1v0.1c0,0.3,0.1,0.5,0.2,0.8c0.1,0.2,0.3,0.4,0.5,0.6c0.2,0.1,0.4,0.2,0.7,0.2
	c0.3,0,0.6-0.1,0.8-0.2c0.2-0.1,0.4-0.3,0.4-0.4c0.1-0.1,0.1-0.1,0.1-0.1c0,0,0.1,0,0.1,0h0.1c0.1,0,0.1,0,0.1,0
	c0,0,0.1,0.1,0.1,0.1c0,0.1-0.1,0.3-0.2,0.4C46.5-7.2,46.3-7,46-6.9C45.8-6.8,45.5-6.7,45.1-6.7z M46.5-9.3L46.5-9.3
	c0-0.5-0.1-0.9-0.4-1.1c-0.3-0.3-0.6-0.4-1-0.4s-0.8,0.1-1,0.4c-0.2,0.3-0.4,0.7-0.4,1.1v0H46.5z M50.3-6.7c-0.6,0-1.1-0.2-1.4-0.5
	c-0.3-0.4-0.5-0.9-0.5-1.5l0-0.4l0-0.4c0-0.6,0.2-1.1,0.5-1.5c0.3-0.4,0.8-0.5,1.4-0.5c0.4,0,0.7,0.1,1,0.2c0.3,0.1,0.5,0.3,0.6,0.5
	c0.1,0.2,0.2,0.4,0.2,0.7c0,0.1,0,0.1-0.1,0.1c0,0-0.1,0.1-0.1,0.1h-0.1c-0.1,0-0.1,0-0.1,0c0,0,0-0.1-0.1-0.1
	c-0.1-0.3-0.3-0.5-0.5-0.7c-0.2-0.1-0.5-0.2-0.8-0.2c-0.4,0-0.8,0.1-1,0.4c-0.2,0.3-0.4,0.6-0.4,1.2l0,0.3l0,0.3
	c0,0.5,0.1,0.9,0.4,1.2c0.3,0.3,0.6,0.4,1,0.4c0.3,0,0.6-0.1,0.8-0.2c0.2-0.1,0.4-0.4,0.5-0.7c0-0.1,0.1-0.1,0.1-0.1
	c0,0,0.1,0,0.1,0h0.1c0.1,0,0.1,0,0.1,0.1c0,0,0.1,0.1,0.1,0.1c0,0.2-0.1,0.5-0.2,0.7c-0.1,0.2-0.3,0.4-0.6,0.5
	C51-6.8,50.7-6.7,50.3-6.7z M57.3-8.5c-0.2,0-0.4-0.1-0.6-0.3c-0.2-0.2-0.3-0.4-0.3-0.6s0.1-0.4,0.3-0.6c0.2-0.2,0.4-0.3,0.6-0.3
	c0.2,0,0.4,0.1,0.6,0.3c0.2,0.2,0.3,0.4,0.3,0.6S58.1-9,57.9-8.8C57.7-8.6,57.5-8.5,57.3-8.5z M62.7-6.8c-0.1,0-0.1,0-0.1-0.1
	c0,0-0.1-0.1-0.1-0.1v-0.1c0-0.1,0.1-0.2,0.2-0.4L65-9.7c0.3-0.3,0.5-0.5,0.6-0.8c0.1-0.2,0.2-0.4,0.2-0.7c0-0.4-0.1-0.7-0.3-0.9
	c-0.2-0.2-0.5-0.3-1-0.3c-0.4,0-0.7,0.1-0.9,0.3c-0.2,0.2-0.4,0.5-0.4,0.9c0,0.1,0,0.1-0.1,0.1c0,0-0.1,0.1-0.1,0.1h-0.2
	c-0.1,0-0.1,0-0.1,0c0,0,0-0.1,0-0.1c0-0.3,0.1-0.6,0.2-0.9c0.1-0.3,0.4-0.5,0.6-0.7c0.3-0.2,0.6-0.3,1.1-0.3c0.6,0,1.1,0.2,1.4,0.5
	c0.3,0.3,0.5,0.8,0.5,1.3c0,0.4-0.1,0.7-0.2,0.9C66-10,65.7-9.7,65.4-9.4l-2.1,2.1h2.9c0.1,0,0.1,0,0.1,0.1c0,0,0.1,0.1,0.1,0.1V-7
	c0,0.1,0,0.1-0.1,0.1c0,0-0.1,0.1-0.1,0.1H62.7z M70-6.7c-0.7,0-1.3-0.2-1.6-0.7c-0.3-0.4-0.5-1-0.5-1.8l0-0.7l0-0.7
	c0-0.7,0.2-1.3,0.5-1.8c0.3-0.4,0.9-0.7,1.6-0.7c0.7,0,1.3,0.2,1.6,0.7c0.3,0.4,0.5,1,0.5,1.8c0,0.2,0,0.4,0,0.7c0,0.3,0,0.6,0,0.7
	c0,0.7-0.2,1.3-0.5,1.8C71.3-6.9,70.8-6.7,70-6.7z M70-7.2c0.5,0,0.9-0.2,1.1-0.5c0.3-0.3,0.4-0.8,0.4-1.4c0-0.2,0-0.4,0-0.7
	c0-0.3,0-0.5,0-0.7c0-0.6-0.1-1.1-0.4-1.4c-0.3-0.3-0.6-0.5-1.1-0.5c-0.5,0-0.9,0.2-1.1,0.5c-0.3,0.3-0.4,0.8-0.4,1.4l0,0.7l0,0.7
	c0,0.6,0.1,1.1,0.4,1.4C69.1-7.4,69.5-7.2,70-7.2z M74-6.8c-0.1,0-0.1,0-0.1-0.1c0,0-0.1-0.1-0.1-0.1v-4.2c0-0.1,0-0.1,0.1-0.1
	c0,0,0.1-0.1,0.1-0.1h0.1c0.1,0,0.1,0,0.1,0.1c0,0,0.1,0.1,0.1,0.1v0.3c0.2-0.2,0.3-0.3,0.5-0.4c0.2-0.1,0.4-0.1,0.7-0.1
	c0.7,0,1.1,0.3,1.4,0.8c0.1-0.3,0.3-0.4,0.6-0.6c0.3-0.2,0.6-0.2,0.9-0.2c0.5,0,0.9,0.2,1.2,0.5c0.3,0.3,0.5,0.8,0.5,1.4V-7
	c0,0.1,0,0.1-0.1,0.1c0,0-0.1,0.1-0.1,0.1h-0.1c-0.1,0-0.1,0-0.1-0.1c0,0-0.1-0.1-0.1-0.1v-2.5c0-0.5-0.1-0.9-0.3-1.1
	c-0.2-0.2-0.5-0.3-0.9-0.3c-0.3,0-0.6,0.1-0.8,0.4c-0.2,0.2-0.3,0.6-0.3,1.1V-7c0,0.1,0,0.1-0.1,0.1c0,0-0.1,0.1-0.1,0.1h-0.1
	c-0.1,0-0.1,0-0.1-0.1c0,0-0.1-0.1-0.1-0.1v-2.5c0-0.5-0.1-0.9-0.3-1.1c-0.2-0.2-0.5-0.4-0.9-0.4c-0.3,0-0.6,0.1-0.8,0.4
	c-0.2,0.2-0.3,0.6-0.3,1.1V-7c0,0.1,0,0.1-0.1,0.1c0,0-0.1,0.1-0.1,0.1H74z M82.1-6.8c-0.1,0-0.1,0-0.1-0.1c0,0-0.1-0.1-0.1-0.1
	v-4.2c0-0.1,0-0.1,0.1-0.1c0,0,0.1-0.1,0.1-0.1h0.1c0.1,0,0.1,0,0.1,0.1c0,0,0.1,0.1,0.1,0.1v0.3c0.2-0.2,0.3-0.3,0.5-0.4
	c0.2-0.1,0.4-0.1,0.7-0.1c0.7,0,1.1,0.3,1.4,0.8c0.1-0.3,0.3-0.4,0.6-0.6c0.3-0.2,0.6-0.2,0.9-0.2c0.5,0,0.9,0.2,1.2,0.5
	c0.3,0.3,0.5,0.8,0.5,1.4V-7c0,0.1,0,0.1-0.1,0.1c0,0-0.1,0.1-0.1,0.1h-0.1c-0.1,0-0.1,0-0.1-0.1c0,0-0.1-0.1-0.1-0.1v-2.5
	c0-0.5-0.1-0.9-0.3-1.1c-0.2-0.2-0.5-0.3-0.9-0.3c-0.3,0-0.6,0.1-0.8,0.4c-0.2,0.2-0.3,0.6-0.3,1.1V-7c0,0.1,0,0.1-0.1,0.1
	c0,0-0.1,0.1-0.1,0.1H85c-0.1,0-0.1,0-0.1-0.1c0,0-0.1-0.1-0.1-0.1v-2.5c0-0.5-0.1-0.9-0.3-1.1c-0.2-0.2-0.5-0.4-0.9-0.4
	c-0.3,0-0.6,0.1-0.8,0.4c-0.2,0.2-0.3,0.6-0.3,1.1V-7c0,0.1,0,0.1-0.1,0.1c0,0-0.1,0.1-0.1,0.1H82.1z M89.7-6c0,0-0.1,0-0.1-0.1
	c0,0-0.1-0.1-0.1-0.1c0,0,0-0.1,0-0.1l3-7.2c0,0,0-0.1,0.1-0.1c0,0,0.1,0,0.1,0h0.1c0,0,0.1,0,0.1,0.1c0,0,0.1,0.1,0.1,0.1
	c0,0,0,0.1,0,0.1l-3,7.2c0,0,0,0.1-0.1,0.1c0,0-0.1,0-0.1,0H89.7z M94.3-6.8c-0.1,0-0.1,0-0.1-0.1c0,0-0.1-0.1-0.1-0.1v-4.2
	c0-0.1,0-0.1,0.1-0.1c0,0,0.1-0.1,0.1-0.1h0.1c0.1,0,0.1,0,0.1,0.1c0,0,0.1,0.1,0.1,0.1v0.3c0.2-0.2,0.3-0.3,0.5-0.4
	c0.2-0.1,0.4-0.1,0.7-0.1c0.7,0,1.1,0.3,1.4,0.8c0.1-0.3,0.3-0.4,0.6-0.6c0.3-0.2,0.6-0.2,0.9-0.2c0.5,0,0.9,0.2,1.2,0.5
	c0.3,0.3,0.5,0.8,0.5,1.4V-7c0,0.1,0,0.1-0.1,0.1c0,0-0.1,0.1-0.1,0.1h-0.1c-0.1,0-0.1,0-0.1-0.1c0,0-0.1-0.1-0.1-0.1v-2.5
	c0-0.5-0.1-0.9-0.3-1.1c-0.2-0.2-0.5-0.3-0.9-0.3c-0.3,0-0.6,0.1-0.8,0.4c-0.2,0.2-0.3,0.6-0.3,1.1V-7c0,0.1,0,0.1-0.1,0.1
	c0,0-0.1,0.1-0.1,0.1h-0.1c-0.1,0-0.1,0-0.1-0.1c0,0-0.1-0.1-0.1-0.1v-2.5c0-0.5-0.1-0.9-0.3-1.1c-0.2-0.2-0.5-0.4-0.9-0.4
	c-0.3,0-0.6,0.1-0.8,0.4c-0.2,0.2-0.3,0.6-0.3,1.1V-7c0,0.1,0,0.1-0.1,0.1c0,0-0.1,0.1-0.1,0.1H94.3z M103.8-6.8
	c-0.1,0-0.2-0.1-0.3-0.2l-2-5.7l0-0.1c0,0,0-0.1,0.1-0.1c0,0,0.1-0.1,0.1-0.1h0.2c0.1,0,0.1,0,0.1,0c0,0,0.1,0.1,0.1,0.1l1.9,5.4
	l1.9-5.4c0,0,0-0.1,0.1-0.1c0,0,0.1,0,0.1,0h0.2c0,0,0.1,0,0.1,0.1c0,0,0.1,0.1,0.1,0.1l0,0.1l-2,5.7c-0.1,0.1-0.2,0.2-0.3,0.2
	H103.8z"/>
<path class="st0" d="M0.9-1.5h643.5c0.8,0,1.5,0.7,1.5,1.5v29.8c0,0.8-0.7,1.5-1.5,1.5H0.9c-0.8,0-1.5-0.7-1.5-1.5V0
	C-0.6-0.8,0.1-1.5,0.9-1.5z"/>
<path class="st10" d="M627,24.9c-0.4,0-0.8-0.1-1.1-0.2c-0.3-0.1-0.5-0.3-0.7-0.6c-0.2-0.2-0.3-0.5-0.3-0.7c0-0.1,0-0.1,0.1-0.1
	c0,0,0.1,0,0.1,0h0.1c0.1,0,0.1,0,0.1,0c0,0,0.1,0.1,0.1,0.2c0.1,0.3,0.3,0.6,0.6,0.7c0.3,0.1,0.6,0.2,1,0.2c0.5,0,0.8-0.1,1.1-0.3
	c0.3-0.2,0.4-0.5,0.4-1c0-0.8-0.5-1.2-1.5-1.2h-0.8c-0.1,0-0.1,0-0.1-0.1c0,0-0.1-0.1-0.1-0.1v-0.1c0-0.1,0-0.1,0.1-0.2l1.8-2.1
	h-2.6c-0.1,0-0.1,0-0.1-0.1c0,0-0.1-0.1-0.1-0.1v-0.1c0-0.1,0-0.1,0.1-0.1c0,0,0.1-0.1,0.1-0.1h3.3c0.1,0,0.1,0,0.1,0.1
	c0,0,0.1,0.1,0.1,0.1V19c0,0.1,0,0.1-0.1,0.2l-1.9,2.2h0.2c0.6,0,1.1,0.1,1.5,0.4c0.4,0.3,0.5,0.7,0.5,1.3c0,0.4-0.1,0.7-0.3,1
	c-0.2,0.3-0.4,0.5-0.7,0.6C627.8,24.8,627.4,24.9,627,24.9z M632.7,24.9c-0.7,0-1.3-0.2-1.6-0.7c-0.3-0.4-0.5-1-0.5-1.8l0-0.7l0-0.7
	c0-0.7,0.2-1.3,0.5-1.8c0.3-0.4,0.9-0.7,1.6-0.7c0.7,0,1.3,0.2,1.6,0.7c0.3,0.4,0.5,1,0.5,1.8c0,0.2,0,0.4,0,0.7c0,0.3,0,0.6,0,0.7
	c0,0.7-0.2,1.3-0.5,1.8C633.9,24.6,633.4,24.9,632.7,24.9z M632.7,24.3c0.5,0,0.9-0.2,1.1-0.5c0.3-0.3,0.4-0.8,0.4-1.4
	c0-0.2,0-0.4,0-0.7c0-0.3,0-0.5,0-0.7c0-0.6-0.1-1.1-0.4-1.4c-0.3-0.3-0.6-0.5-1.1-0.5c-0.5,0-0.9,0.2-1.1,0.5
	c-0.3,0.3-0.4,0.8-0.4,1.4l0,0.7l0,0.7c0,0.6,0.1,1.1,0.4,1.4C631.8,24.2,632.2,24.3,632.7,24.3z M637.9,24.9c-0.4,0-0.7-0.1-1-0.2
	c-0.3-0.1-0.5-0.3-0.6-0.4c-0.1-0.2-0.2-0.3-0.2-0.4c0-0.1,0-0.1,0.1-0.1c0,0,0.1-0.1,0.1-0.1h0.1c0,0,0.1,0,0.1,0
	c0,0,0.1,0,0.1,0.1c0.1,0.2,0.3,0.3,0.5,0.4c0.2,0.1,0.4,0.1,0.8,0.1c0.4,0,0.7-0.1,0.9-0.2c0.2-0.1,0.3-0.3,0.3-0.6
	c0-0.2,0-0.3-0.1-0.4c-0.1-0.1-0.2-0.2-0.4-0.3c-0.2-0.1-0.5-0.2-0.9-0.3c-0.5-0.1-0.9-0.3-1.1-0.5c-0.2-0.2-0.3-0.5-0.3-0.8
	c0-0.2,0.1-0.4,0.2-0.6c0.1-0.2,0.3-0.4,0.5-0.5c0.2-0.1,0.5-0.2,0.9-0.2c0.4,0,0.6,0.1,0.9,0.2c0.2,0.1,0.4,0.3,0.5,0.4
	c0.1,0.2,0.2,0.3,0.2,0.4c0,0.1,0,0.1-0.1,0.1c0,0-0.1,0-0.1,0h-0.1c-0.1,0-0.1,0-0.2-0.1c-0.1-0.2-0.3-0.3-0.4-0.4
	c-0.1-0.1-0.4-0.1-0.7-0.1c-0.3,0-0.6,0.1-0.8,0.2c-0.2,0.1-0.3,0.3-0.3,0.6c0,0.1,0,0.3,0.1,0.4c0.1,0.1,0.2,0.2,0.4,0.3
	c0.2,0.1,0.5,0.2,0.8,0.2c0.5,0.1,0.9,0.3,1.1,0.5c0.2,0.2,0.3,0.5,0.3,0.8c0,0.2-0.1,0.5-0.2,0.7c-0.1,0.2-0.3,0.4-0.6,0.5
	C638.6,24.8,638.3,24.9,637.9,24.9z"/>
<rect x="242" class="st11" width="162.2" height="29.8"/>
<g>
	<defs>
		<rect id="SVGID_3_" y="7" width="645.2" height="15.8"/>
	</defs>
	<clipPath id="SVGID_4_">
		<use xlink:href="#SVGID_3_"  style="overflow:visible;"/>
	</clipPath>
	<g class="st12">
		<path class="st13" d="M-5.3,16.6c0.3,0,1.9,0,2.2,0c0.3,0,1-0.9,1.2-1.4c0.2-0.6,0.6-2.1,1.2-0.2c0.6,1.9,1.9,1.6,2.1,1.4
			s0.5-0.2,0.8,0c0.3,0.2,0.5-1,0.5-1.6c0-0.6,0.4-8.2,0.4-7.7c0,0.5,0.6,15,0.6,15.6c0.1,0.6,0.2-0.4,0.4-1.9
			c0.1-1.5,0.1-4.4,0.9-4.6c0.8-0.2,3,0.5,3.9-0.8C10,14,10.5,13,10.9,13s0.9,2.3,1.9,2.9c0.9,0.6,3.2,0.7,3.9,0.7"/>
		<path class="st13" d="M16.7,16.6c0.3,0,1.9,0,2.2,0c0.3,0,1-0.9,1.2-1.4c0.2-0.6,0.6-2.1,1.2-0.2c0.6,1.9,1.9,1.6,2.1,1.4
			c0.2-0.1,0.5-0.2,0.8,0c0.3,0.2,0.5-1,0.5-1.6c0-0.6,0.4-8.2,0.4-7.7c0,0.5,0.6,15,0.6,15.6c0.1,0.6,0.2-0.4,0.4-1.9
			c0.1-1.5,0.1-4.4,0.9-4.6c0.8-0.2,3,0.5,3.9-0.8c0.9-1.3,1.5-2.4,1.9-2.4c0.4,0,0.9,2.3,1.9,2.9c0.9,0.6,3.2,0.7,3.9,0.7"/>
		<path class="st13" d="M38.6,16.6c0.3,0,1.9,0,2.2,0c0.3,0,1-0.9,1.2-1.4s0.6-2.1,1.2-0.2c0.6,1.9,1.9,1.6,2.1,1.4s0.5-0.2,0.8,0
			c0.3,0.2,0.5-1,0.5-1.6c0-0.6,0.4-8.2,0.4-7.7c0,0.5,0.6,15,0.6,15.6c0.1,0.6,0.2-0.4,0.4-1.9c0.1-1.5,0.1-4.4,0.9-4.6
			c0.8-0.2,3,0.5,3.9-0.8c0.9-1.3,1.5-2.4,1.9-2.4c0.4,0,0.9,2.3,1.9,2.9c0.9,0.6,3.2,0.7,3.9,0.7"/>
		<path class="st13" d="M60.5,16.6c0.3,0,1.9,0,2.2,0c0.3,0,1-0.9,1.2-1.4c0.2-0.6,0.6-2.1,1.2-0.2c0.6,1.9,1.9,1.6,2.1,1.4
			c0.2-0.1,0.5-0.2,0.8,0c0.3,0.2,0.5-1,0.5-1.6c0-0.6,0.4-8.2,0.4-7.7c0,0.5,0.6,15,0.6,15.6c0.1,0.6,0.2-0.4,0.4-1.9
			c0.1-1.5,0.1-4.4,0.9-4.6c0.8-0.2,3,0.5,3.9-0.8c0.9-1.3,1.5-2.4,1.9-2.4c0.4,0,0.9,2.3,1.9,2.9c0.9,0.6,3.2,0.7,3.9,0.7"/>
		<path class="st13" d="M82.4,16.6c0.3,0,1.9,0,2.2,0c0.3,0,1-0.9,1.2-1.4s0.6-2.1,1.2-0.2c0.6,1.9,1.9,1.6,2.1,1.4s0.5-0.2,0.8,0
			c0.3,0.2,0.5-1,0.5-1.6c0-0.6,0.4-8.2,0.4-7.7c0,0.5,0.6,15,0.6,15.6c0.1,0.6,0.2-0.4,0.4-1.9c0.1-1.5,0.1-4.4,0.9-4.6
			c0.8-0.2,3,0.5,3.9-0.8c0.9-1.3,1.5-2.4,1.9-2.4c0.4,0,0.9,2.3,1.9,2.9c0.9,0.6,3.2,0.7,3.9,0.7"/>
		<path class="st13" d="M104.3,16.6c0.3,0,1.9,0,2.2,0c0.3,0,1-0.9,1.2-1.4c0.2-0.6,0.6-2.1,1.2-0.2c0.6,1.9,1.9,1.6,2.1,1.4
			c0.2-0.1,0.5-0.2,0.8,0c0.3,0.2,0.5-1,0.5-1.6c0-0.6,0.4-8.2,0.4-7.7c0,0.5,0.6,15,0.6,15.6c0.1,0.6,0.2-0.4,0.4-1.9
			c0.1-1.5,0.1-4.4,0.9-4.6c0.8-0.2,3,0.5,3.9-0.8c0.9-1.3,1.5-2.4,1.9-2.4c0.4,0,0.9,2.3,1.9,2.9c0.9,0.6,3.2,0.7,3.9,0.7"/>
		<path class="st13" d="M126.2,16.6c0.3,0,1.9,0,2.2,0c0.3,0,1-0.9,1.2-1.4c0.2-0.6,0.6-2.1,1.2-0.2c0.6,1.9,1.9,1.6,2.1,1.4
			c0.2-0.1,0.5-0.2,0.8,0c0.3,0.2,0.5-1,0.5-1.6c0-0.6,0.4-8.2,0.4-7.7c0,0.5,0.6,15,0.6,15.6c0.1,0.6,0.2-0.4,0.4-1.9
			c0.1-1.5,0.1-4.4,0.9-4.6c0.8-0.2,3,0.5,3.9-0.8c0.9-1.3,1.5-2.4,1.9-2.4c0.4,0,0.9,2.3,1.9,2.9c0.9,0.6,3.2,0.7,3.9,0.7"/>
		<path class="st13" d="M148.2,16.6c0.3,0,1.9,0,2.2,0c0.3,0,1-0.9,1.2-1.4c0.2-0.6,0.6-2.1,1.2-0.2c0.6,1.9,1.9,1.6,2.1,1.4
			c0.2-0.1,0.5-0.2,0.8,0c0.3,0.2,0.5-1,0.5-1.6c0-0.6,0.4-8.2,0.4-7.7c0,0.5,0.6,15,0.6,15.6c0.1,0.6,0.2-0.4,0.4-1.9
			c0.1-1.5,0.1-4.4,0.9-4.6c0.8-0.2,3,0.5,3.9-0.8c0.9-1.3,1.5-2.4,1.9-2.4c0.4,0,0.9,2.3,1.9,2.9c0.9,0.6,3.2,0.7,3.9,0.7"/>
		<path class="st13" d="M170.1,16.6c0.3,0,1.9,0,2.2,0c0.3,0,1-0.9,1.2-1.4s0.6-2.1,1.2-0.2c0.6,1.9,1.9,1.6,2.1,1.4
			c0.2-0.1,0.5-0.2,0.8,0c0.3,0.2,0.5-1,0.5-1.6c0-0.6,0.4-8.2,0.4-7.7c0,0.5,0.6,15,0.6,15.6c0.1,0.6,0.2-0.4,0.4-1.9
			c0.1-1.5,0.1-4.4,0.9-4.6c0.8-0.2,3,0.5,3.9-0.8c0.9-1.3,1.5-2.4,1.9-2.4c0.4,0,0.9,2.3,1.9,2.9c0.9,0.6,3.2,0.7,3.9,0.7"/>
		<path class="st13" d="M192,16.6c0.3,0,1.9,0,2.2,0c0.3,0,1-0.9,1.2-1.4s0.6-2.1,1.2-0.2c0.6,1.9,1.9,1.6,2.1,1.4
			c0.2-0.1,0.5-0.2,0.8,0c0.3,0.2,0.5-1,0.5-1.6c0-0.6,0.4-8.2,0.4-7.7c0,0.5,0.6,15,0.6,15.6c0.1,0.6,0.2-0.4,0.4-1.9
			c0.1-1.5,0.1-4.4,0.9-4.6c0.8-0.2,3,0.5,3.9-0.8c0.9-1.3,1.5-2.4,1.9-2.4c0.4,0,0.9,2.3,1.9,2.9c0.9,0.6,3.2,0.7,3.9,0.7"/>
		<path class="st13" d="M213.9,16.6c0.3,0,1.9,0,2.2,0c0.3,0,1-0.9,1.2-1.4c0.2-0.6,0.6-2.1,1.2-0.2c0.6,1.9,1.9,1.6,2.1,1.4
			c0.2-0.1,0.5-0.2,0.8,0c0.3,0.2,0.5-1,0.5-1.6c0-0.6,0.4-8.2,0.4-7.7c0,0.5,0.6,15,0.6,15.6c0.1,0.6,0.2-0.4,0.4-1.9
			c0.1-1.5,0.1-4.4,0.9-4.6c0.8-0.2,3,0.5,3.9-0.8c0.9-1.3,1.5-2.4,1.9-2.4c0.4,0,0.9,2.3,1.9,2.9c0.9,0.6,3.2,0.7,3.9,0.7"/>
		<path class="st13" d="M235.8,16.6c0.3,0,1.9,0,2.2,0c0.3,0,1-0.9,1.2-1.4s0.6-2.1,1.2-0.2c0.6,1.9,1.9,1.6,2.1,1.4
			c0.2-0.1,0.5-0.2,0.8,0c0.3,0.2,0.5-1,0.5-1.6c0-0.6,0.4-8.2,0.4-7.7c0,0.5,0.6,15,0.6,15.6c0.1,0.6,0.2-0.4,0.4-1.9
			c0.1-1.5,0.1-4.4,0.9-4.6c0.8-0.2,3,0.5,3.9-0.8c0.9-1.3,1.5-2.4,1.9-2.4c0.4,0,0.9,2.3,1.9,2.9c0.9,0.6,3.2,0.7,3.9,0.7"/>
		<path class="st13" d="M257.7,16.6c0.3,0,1.9,0,2.2,0c0.3,0,1-0.9,1.2-1.4c0.2-0.6,0.6-2.1,1.2-0.2c0.6,1.9,1.9,1.6,2.1,1.4
			c0.2-0.1,0.5-0.2,0.8,0c0.3,0.2,0.5-1,0.5-1.6c0-0.6,0.4-8.2,0.4-7.7c0,0.5,0.6,15,0.6,15.6c0.1,0.6,0.2-0.4,0.4-1.9
			c0.1-1.5,0.1-4.4,0.9-4.6c0.8-0.2,3,0.5,3.9-0.8c0.9-1.3,1.5-2.4,1.9-2.4c0.4,0,0.9,2.3,1.9,2.9c0.9,0.6,3.2,0.7,3.9,0.7"/>
		<path class="st13" d="M279.7,16.6c0.3,0,1.9,0,2.2,0c0.3,0,1-0.9,1.2-1.4s0.6-2.1,1.2-0.2c0.6,1.9,1.9,1.6,2.1,1.4
			c0.2-0.1,0.5-0.2,0.8,0c0.3,0.2,0.5-1,0.5-1.6c0-0.6,0.4-8.2,0.4-7.7c0,0.5,0.6,15,0.6,15.6c0.1,0.6,0.2-0.4,0.4-1.9
			c0.1-1.5,0.1-4.4,0.9-4.6c0.8-0.2,3,0.5,3.9-0.8c0.9-1.3,1.5-2.4,1.9-2.4c0.4,0,0.9,2.3,1.9,2.9c0.9,0.6,3.2,0.7,3.9,0.7"/>
		<path class="st13" d="M301.6,16.6c0.3,0,1.9,0,2.2,0c0.3,0,1-0.9,1.2-1.4s0.6-2.1,1.2-0.2c0.6,1.9,1.9,1.6,2.1,1.4
			c0.2-0.1,0.5-0.2,0.8,0c0.3,0.2,0.5-1,0.5-1.6c0-0.6,0.4-8.2,0.4-7.7c0,0.5,0.6,15,0.6,15.6c0.1,0.6,0.2-0.4,0.4-1.9
			c0.1-1.5,0.1-4.4,0.9-4.6c0.8-0.2,3,0.5,3.9-0.8c0.9-1.3,1.5-2.4,1.9-2.4c0.4,0,0.9,2.3,1.9,2.9c0.9,0.6,3.2,0.7,3.9,0.7"/>
		<path class="st13" d="M323.5,16.6c0.3,0,1.9,0,2.2,0c0.3,0,1-0.9,1.2-1.4s0.6-2.1,1.2-0.2c0.6,1.9,1.9,1.6,2.1,1.4
			c0.2-0.1,0.5-0.2,0.8,0c0.3,0.2,0.5-1,0.5-1.6c0-0.6,0.4-8.2,0.4-7.7c0,0.5,0.6,15,0.6,15.6c0.1,0.6,0.2-0.4,0.4-1.9
			c0.1-1.5,0.1-4.4,0.9-4.6c0.8-0.2,3,0.5,3.9-0.8c0.9-1.3,1.5-2.4,1.9-2.4c0.4,0,0.9,2.3,1.9,2.9c0.9,0.6,3.2,0.7,3.9,0.7"/>
		<path class="st13" d="M345.4,16.6c0.3,0,1.9,0,2.2,0c0.3,0,1-0.9,1.2-1.4s0.6-2.1,1.2-0.2c0.6,1.9,1.9,1.6,2.1,1.4
			c0.2-0.1,0.5-0.2,0.8,0c0.3,0.2,0.5-1,0.5-1.6c0-0.6,0.4-8.2,0.4-7.7c0,0.5,0.6,15,0.6,15.6c0.1,0.6,0.2-0.4,0.4-1.9
			c0.1-1.5,0.1-4.4,0.9-4.6c0.8-0.2,3,0.5,3.9-0.8c0.9-1.3,1.5-2.4,1.9-2.4c0.4,0,0.9,2.3,1.9,2.9c0.9,0.6,3.2,0.7,3.9,0.7"/>
		<path class="st13" d="M367.3,16.6c0.3,0,1.9,0,2.2,0c0.3,0,1-0.9,1.2-1.4c0.2-0.6,0.6-2.1,1.2-0.2c0.6,1.9,1.9,1.6,2.1,1.4
			c0.2-0.1,0.5-0.2,0.8,0c0.3,0.2,0.5-1,0.5-1.6c0-0.6,0.4-8.2,0.4-7.7c0,0.5,0.6,15,0.6,15.6c0.1,0.6,0.2-0.4,0.4-1.9
			c0.1-1.5,0.1-4.4,0.9-4.6c0.8-0.2,3,0.5,3.9-0.8c0.9-1.3,1.5-2.4,1.9-2.4c0.4,0,0.9,2.3,1.9,2.9c0.9,0.6,3.2,0.7,3.9,0.7"/>
		<path class="st13" d="M389.3,16.6c0.3,0,1.9,0,2.2,0c0.3,0,1-0.9,1.2-1.4c0.2-0.6,0.6-2.1,1.2-0.2c0.6,1.9,1.9,1.6,2.1,1.4
			c0.2-0.1,0.5-0.2,0.8,0c0.3,0.2,0.5-1,0.5-1.6c0-0.6,0.4-8.2,0.4-7.7c0,0.5,0.6,15,0.6,15.6c0.1,0.6,0.2-0.4,0.4-1.9
			c0.1-1.5,0.1-4.4,0.9-4.6c0.8-0.2,3,0.5,3.9-0.8c0.9-1.3,1.5-2.4,1.9-2.4c0.4,0,0.9,2.3,1.9,2.9c0.9,0.6,3.2,0.7,3.9,0.7"/>
		<path class="st13" d="M411.2,16.6c0.3,0,1.9,0,2.2,0c0.3,0,1-0.9,1.2-1.4s0.6-2.1,1.2-0.2c0.6,1.9,1.9,1.6,2.1,1.4
			c0.2-0.1,0.5-0.2,0.8,0c0.3,0.2,0.5-1,0.5-1.6c0-0.6,0.4-8.2,0.4-7.7c0,0.5,0.6,15,0.6,15.6c0.1,0.6,0.2-0.4,0.4-1.9
			c0.1-1.5,0.1-4.4,0.9-4.6c0.8-0.2,3,0.5,3.9-0.8c0.9-1.3,1.5-2.4,1.9-2.4c0.4,0,0.9,2.3,1.9,2.9c0.9,0.6,3.2,0.7,3.9,0.7"/>
		<path class="st13" d="M433.1,16.6c0.3,0,1.9,0,2.2,0c0.3,0,1-0.9,1.2-1.4s0.6-2.1,1.2-0.2c0.6,1.9,1.9,1.6,2.1,1.4
			c0.2-0.1,0.5-0.2,0.8,0c0.3,0.2,0.5-1,0.5-1.6c0-0.6,0.4-8.2,0.4-7.7c0,0.5,0.6,15,0.6,15.6c0.1,0.6,0.2-0.4,0.4-1.9
			c0.1-1.5,0.1-4.4,0.9-4.6c0.8-0.2,3,0.5,3.9-0.8c0.9-1.3,1.5-2.4,1.9-2.4c0.4,0,0.9,2.3,1.9,2.9c0.9,0.6,3.2,0.7,3.9,0.7"/>
		<path class="st13" d="M455,16.6c0.3,0,1.9,0,2.2,0c0.3,0,1-0.9,1.2-1.4s0.6-2.1,1.2-0.2c0.6,1.9,1.9,1.6,2.1,1.4
			c0.2-0.1,0.5-0.2,0.8,0c0.3,0.2,0.5-1,0.5-1.6c0-0.6,0.4-8.2,0.4-7.7c0,0.5,0.6,15,0.6,15.6c0.1,0.6,0.2-0.4,0.4-1.9
			c0.1-1.5,0.1-4.4,0.9-4.6c0.8-0.2,3,0.5,3.9-0.8c0.9-1.3,1.5-2.4,1.9-2.4c0.4,0,0.9,2.3,1.9,2.9c0.9,0.6,3.2,0.7,3.9,0.7"/>
		<path class="st13" d="M476.9,16.6c0.3,0,1.9,0,2.2,0c0.3,0,1-0.9,1.2-1.4s0.6-2.1,1.2-0.2c0.6,1.9,1.9,1.6,2.1,1.4
			c0.2-0.1,0.5-0.2,0.8,0c0.3,0.2,0.5-1,0.5-1.6c0-0.6,0.4-8.2,0.4-7.7c0,0.5,0.6,15,0.6,15.6c0.1,0.6,0.2-0.4,0.4-1.9
			c0.1-1.5,0.1-4.4,0.9-4.6c0.8-0.2,3,0.5,3.9-0.8c0.9-1.3,1.5-2.4,1.9-2.4c0.4,0,0.9,2.3,1.9,2.9c0.9,0.6,3.2,0.7,3.9,0.7"/>
		<path class="st13" d="M498.8,16.6c0.3,0,1.9,0,2.2,0c0.3,0,1-0.9,1.2-1.4c0.2-0.6,0.6-2.1,1.2-0.2c0.6,1.9,1.9,1.6,2.1,1.4
			c0.2-0.1,0.5-0.2,0.8,0c0.3,0.2,0.5-1,0.5-1.6c0-0.6,0.4-8.2,0.4-7.7c0,0.5,0.6,15,0.6,15.6c0.1,0.6,0.2-0.4,0.4-1.9
			c0.1-1.5,0.1-4.4,0.9-4.6c0.8-0.2,3,0.5,3.9-0.8c0.9-1.3,1.5-2.4,1.9-2.4c0.4,0,0.9,2.3,1.9,2.9c0.9,0.6,3.2,0.7,3.9,0.7"/>
		<path class="st13" d="M520.8,16.6c0.3,0,1.9,0,2.2,0c0.3,0,1-0.9,1.2-1.4c0.2-0.6,0.6-2.1,1.2-0.2c0.6,1.9,1.9,1.6,2.1,1.4
			s0.5-0.2,0.8,0c0.3,0.2,0.5-1,0.5-1.6c0-0.6,0.4-8.2,0.4-7.7c0,0.5,0.6,15,0.6,15.6c0.1,0.6,0.2-0.4,0.4-1.9
			c0.1-1.5,0.1-4.4,0.9-4.6c0.8-0.2,3,0.5,3.9-0.8c0.9-1.3,1.5-2.4,1.9-2.4c0.4,0,0.9,2.3,1.9,2.9c0.9,0.6,3.2,0.7,3.9,0.7"/>
		<path class="st13" d="M542.7,16.6c0.3,0,1.9,0,2.2,0c0.3,0,1-0.9,1.2-1.4c0.2-0.6,0.6-2.1,1.2-0.2c0.6,1.9,1.9,1.6,2.1,1.4
			s0.5-0.2,0.8,0c0.3,0.2,0.5-1,0.5-1.6c0-0.6,0.4-8.2,0.4-7.7c0,0.5,0.6,15,0.6,15.6c0.1,0.6,0.2-0.4,0.4-1.9
			c0.1-1.5,0.1-4.4,0.9-4.6c0.8-0.2,3,0.5,3.9-0.8c0.9-1.3,1.5-2.4,1.9-2.4c0.4,0,0.9,2.3,1.9,2.9c0.9,0.6,3.2,0.7,3.9,0.7"/>
		<path class="st13" d="M564.6,16.6c0.3,0,1.9,0,2.2,0c0.3,0,1-0.9,1.2-1.4c0.2-0.6,0.6-2.1,1.2-0.2c0.6,1.9,1.9,1.6,2.1,1.4
			s0.5-0.2,0.8,0c0.3,0.2,0.5-1,0.5-1.6c0-0.6,0.4-8.2,0.4-7.7c0,0.5,0.6,15,0.6,15.6c0.1,0.6,0.2-0.4,0.4-1.9
			c0.1-1.5,0.1-4.4,0.9-4.6c0.8-0.2,3,0.5,3.9-0.8c0.9-1.3,1.5-2.4,1.9-2.4c0.4,0,0.9,2.3,1.9,2.9c0.9,0.6,3.2,0.7,3.9,0.7"/>
		<path class="st13" d="M586.5,16.6c0.3,0,1.9,0,2.2,0c0.3,0,1-0.9,1.2-1.4c0.2-0.6,0.6-2.1,1.2-0.2c0.6,1.9,1.9,1.6,2.1,1.4
			s0.5-0.2,0.8,0c0.3,0.2,0.5-1,0.5-1.6c0-0.6,0.4-8.2,0.4-7.7c0,0.5,0.6,15,0.6,15.6c0.1,0.6,0.2-0.4,0.4-1.9
			c0.1-1.5,0.1-4.4,0.9-4.6c0.8-0.2,3,0.5,3.9-0.8c0.9-1.3,1.5-2.4,1.9-2.4c0.4,0,0.9,2.3,1.9,2.9c0.9,0.6,3.2,0.7,3.9,0.7"/>
		<path class="st13" d="M608.4,16.6c0.3,0,1.9,0,2.2,0c0.3,0,1-0.9,1.2-1.4c0.2-0.6,0.6-2.1,1.2-0.2c0.6,1.9,1.9,1.6,2.1,1.4
			s0.5-0.2,0.8,0c0.3,0.2,0.5-1,0.5-1.6c0-0.6,0.4-8.2,0.4-7.7c0,0.5,0.6,15,0.6,15.6c0.1,0.6,0.2-0.4,0.4-1.9
			c0.1-1.5,0.1-4.4,0.9-4.6c0.8-0.2,3,0.5,3.9-0.8c0.9-1.3,1.5-2.4,1.9-2.4c0.4,0,0.9,2.3,1.9,2.9c0.9,0.6,3.2,0.7,3.9,0.7"/>
		<path class="st13" d="M630.3,16.6c0.3,0,1.9,0,2.2,0c0.3,0,1-0.9,1.2-1.4c0.2-0.6,0.6-2.1,1.2-0.2c0.6,1.9,1.9,1.6,2.1,1.4
			s0.5-0.2,0.8,0c0.3,0.2,0.5-1,0.5-1.6c0-0.6,0.4-8.2,0.4-7.7c0,0.5,0.6,15,0.6,15.6c0.1,0.6,0.2-0.4,0.4-1.9
			c0.1-1.5,0.1-4.4,0.9-4.6c0.8-0.2,3,0.5,3.9-0.8c0.9-1.3,1.5-2.4,1.9-2.4s0.9,2.3,1.9,2.9c0.9,0.6,3.2,0.7,3.9,0.7"/>
	</g>
</g>
</svg>
