<?xml version="1.0" encoding="utf-8"?>
<!-- Generator: Adobe Illustrator 22.1.0, SVG Export Plug-In . SVG Version: 6.00 Build 0)  -->
<svg version="1.1" id="Layer_1" xmlns="http://www.w3.org/2000/svg" xmlns:xlink="http://www.w3.org/1999/xlink" x="0px" y="0px"
	 viewBox="0 0 645.2 71.1" style="enable-background:new 0 0 645.2 71.1;" xml:space="preserve">
<style type="text/css">
	.st0{fill:#FFFFFF;stroke:#C5C5C5;stroke-width:0.6;}
	.st1{fill:#FFFFFF;}
	.st2{fill:#D8D8D8;}
	.st3{fill:none;stroke:#919194;stroke-width:0.8767;}
	.st4{fill:none;stroke:#919194;stroke-width:0.4383;}
	.st5{fill:#59595B;}
	.st6{fill:none;stroke:#C5C5C5;stroke-width:0.6;}
	.st7{fill:none;}
	.st8{clip-path:url(#SVGID_2_);}
	.st9{fill:none;stroke:#000000;stroke-width:0.8767;}
	.st10{fill:none;stroke:#F9983E;stroke-width:0.8767;}
	.st11{fill:#919194;}
	.st12{fill:#F3F3F3;}
	.st13{clip-path:url(#SVGID_4_);}
	.st14{fill:none;stroke:#000000;stroke-width:0.4383;}
</style>
<path class="st0" d="M0.9-49.7h643.5c0.8,0,1.5,0.7,1.5,1.5V74.5c0,0.8-0.7,1.5-1.5,1.5H0.9c-0.8,0-1.5-0.7-1.5-1.5V-48.2
	C-0.6-49,0.1-49.7,0.9-49.7z"/>
<path class="st1" d="M3.5-43.8c0-1,0.8-1.8,1.8-1.8H26c1,0,1.8,0.8,1.8,1.8v10.1c0,1-0.8,1.8-1.8,1.8H5.3c-1,0-1.8-0.8-1.8-1.8
	V-43.8z"/>
<path d="M7.8-35.3c-0.1,0-0.1,0-0.2-0.1c0,0-0.1-0.1-0.1-0.2v-6.9c0-0.1,0-0.1,0.1-0.2c0,0,0.1-0.1,0.2-0.1h4.3c0.1,0,0.1,0,0.2,0.1
	c0,0,0.1,0.1,0.1,0.2v0.4c0,0.1,0,0.1-0.1,0.2c0,0-0.1,0.1-0.2,0.1H8.5v2.3h3.3c0.1,0,0.1,0,0.2,0.1c0,0,0.1,0.1,0.1,0.2v0.4
	c0,0.1,0,0.1-0.1,0.2c0,0-0.1,0.1-0.2,0.1H8.5v2.4h3.7c0.1,0,0.1,0,0.2,0.1c0,0,0.1,0.1,0.1,0.2v0.4c0,0.1,0,0.1-0.1,0.2
	c0,0-0.1,0.1-0.2,0.1H7.8z M16.2-35.3c-0.1,0-0.1,0-0.2-0.1c0,0-0.1-0.1-0.1-0.2v-5.9l-1.7,1.3c0,0-0.1,0.1-0.2,0.1
	c-0.1,0-0.1,0-0.2-0.1l-0.3-0.3c0,0-0.1-0.1-0.1-0.1c0-0.1,0-0.2,0.1-0.2l2.3-1.8c0.1,0,0.2-0.1,0.3-0.1h0.5c0.1,0,0.1,0,0.2,0.1
	c0,0,0.1,0.1,0.1,0.2v6.9c0,0.1,0,0.1-0.1,0.2c0,0-0.1,0.1-0.2,0.1H16.2z M22.3-35.3c-0.1,0-0.1,0-0.2-0.1c0,0-0.1-0.1-0.1-0.2V-37
	h-3.4c-0.1,0-0.1,0-0.2-0.1c0,0-0.1-0.1-0.1-0.2v-0.4c0-0.1,0-0.2,0.1-0.3l3.2-4.5c0-0.1,0.1-0.1,0.2-0.1c0.1,0,0.1-0.1,0.2-0.1h0.8
	c0.1,0,0.1,0,0.2,0.1c0,0,0.1,0.1,0.1,0.2v4.5h0.9c0.1,0,0.1,0,0.2,0.1c0,0,0.1,0.1,0.1,0.2v0.4c0,0.1,0,0.1-0.1,0.2
	c0,0-0.1,0.1-0.2,0.1h-1v1.5c0,0.1,0,0.1-0.1,0.2c0,0-0.1,0.1-0.2,0.1H22.3z M22.1-37.9v-3.6l-2.5,3.6H22.1z"/>
<path class="st2" d="M5.3-44.7H26v-1.8H5.3V-44.7z M26.9-43.8v10.1h1.8v-10.1H26.9z M26-32.8H5.3v1.8H26V-32.8z M4.4-33.7v-10.1H2.6
	v10.1H4.4z M5.3-32.8c-0.5,0-0.9-0.4-0.9-0.9H2.6c0,1.5,1.2,2.6,2.6,2.6V-32.8z M26.9-33.7c0,0.5-0.4,0.9-0.9,0.9v1.8
	c1.5,0,2.6-1.2,2.6-2.6H26.9z M26-44.7c0.5,0,0.9,0.4,0.9,0.9h1.8c0-1.5-1.2-2.6-2.6-2.6V-44.7z M5.3-46.5c-1.5,0-2.6,1.2-2.6,2.6
	h1.8c0-0.5,0.4-0.9,0.9-0.9V-46.5z"/>
<path d="M34.9-34.8c-0.2,0-0.4-0.1-0.5-0.3L31.7-43l0-0.1c0-0.1,0-0.1,0.1-0.2c0,0,0.1-0.1,0.2-0.1h0.6c0.2,0,0.3,0.1,0.3,0.2l2.4,7
	l2.4-7c0,0,0.1-0.1,0.1-0.1c0.1,0,0.1-0.1,0.2-0.1h0.6c0.1,0,0.1,0,0.2,0.1c0.1,0,0.1,0.1,0.1,0.2l0,0.1l-2.7,7.9
	c-0.1,0.2-0.2,0.3-0.4,0.3H34.9z M42.5-34.7c-0.8,0-1.5-0.3-2-0.8c-0.5-0.5-0.8-1.2-0.8-2.1l0-0.4l0-0.4c0.1-0.9,0.3-1.6,0.8-2.1
	c0.5-0.5,1.2-0.8,2-0.8c0.9,0,1.6,0.3,2.1,0.9c0.5,0.6,0.7,1.4,0.7,2.3v0.2c0,0.1,0,0.2-0.1,0.2c0,0-0.1,0.1-0.2,0.1h-4.2v0.1
	c0,0.5,0.2,1,0.5,1.4c0.3,0.4,0.7,0.6,1.2,0.6c0.4,0,0.7-0.1,0.9-0.2c0.2-0.2,0.4-0.3,0.5-0.5c0.1-0.1,0.1-0.2,0.2-0.2
	c0,0,0.1,0,0.2,0h0.6c0.1,0,0.1,0,0.2,0.1c0,0,0.1,0.1,0.1,0.2c0,0.2-0.1,0.4-0.3,0.7c-0.2,0.3-0.5,0.5-0.9,0.7
	C43.5-34.7,43-34.7,42.5-34.7z M44.2-38.4L44.2-38.4c0-0.6-0.2-1.1-0.5-1.4c-0.3-0.4-0.7-0.5-1.2-0.5s-0.9,0.2-1.2,0.5
	c-0.3,0.4-0.4,0.8-0.4,1.4v0H44.2z M47.5-34.8c-0.1,0-0.2,0-0.2-0.1c0-0.1-0.1-0.1-0.1-0.2v-5.8c0-0.1,0-0.1,0.1-0.2
	c0.1-0.1,0.1-0.1,0.2-0.1h0.6c0.1,0,0.1,0,0.2,0.1c0.1,0,0.1,0.1,0.1,0.2v0.5c0.2-0.3,0.5-0.5,0.8-0.7c0.3-0.2,0.7-0.2,1.2-0.2
	c0.8,0,1.4,0.3,1.8,0.8c0.4,0.5,0.7,1.2,0.7,2v3.5c0,0.1,0,0.2-0.1,0.2c0,0-0.1,0.1-0.2,0.1H52c-0.1,0-0.2,0-0.2-0.1
	c0-0.1-0.1-0.1-0.1-0.2v-3.4c0-0.6-0.1-1-0.4-1.4c-0.3-0.3-0.7-0.5-1.2-0.5c-0.5,0-0.9,0.2-1.2,0.5c-0.3,0.3-0.5,0.8-0.5,1.3v3.4
	c0,0.1,0,0.2-0.1,0.2c0,0-0.1,0.1-0.2,0.1H47.5z M57.4-34.8c-1.3,0-1.9-0.7-1.9-2.2v-3.2h-1c-0.1,0-0.2,0-0.2-0.1
	c0-0.1-0.1-0.1-0.1-0.2v-0.4c0-0.1,0-0.1,0.1-0.2c0.1-0.1,0.1-0.1,0.2-0.1h1v-2c0-0.1,0-0.1,0.1-0.2c0.1-0.1,0.1-0.1,0.2-0.1h0.6
	c0.1,0,0.1,0,0.2,0.1c0.1,0,0.1,0.1,0.1,0.2v2h1.5c0.1,0,0.1,0,0.2,0.1c0.1,0,0.1,0.1,0.1,0.2v0.4c0,0.1,0,0.2-0.1,0.2
	c0,0-0.1,0.1-0.2,0.1h-1.5v3.2c0,0.4,0.1,0.7,0.2,0.9c0.1,0.2,0.4,0.3,0.7,0.3h0.7c0.1,0,0.1,0,0.2,0.1c0.1,0,0.1,0.1,0.1,0.2v0.4
	c0,0.1,0,0.2-0.1,0.2c0,0-0.1,0.1-0.2,0.1H57.4z M60.4-34.8c-0.1,0-0.2,0-0.2-0.1c0-0.1-0.1-0.1-0.1-0.2v-5.8c0-0.1,0-0.2,0.1-0.2
	c0.1-0.1,0.1-0.1,0.2-0.1h0.6c0.1,0,0.2,0,0.2,0.1c0.1,0.1,0.1,0.1,0.1,0.2v0.5c0.3-0.6,0.9-0.8,1.7-0.8h0.5c0.1,0,0.1,0,0.2,0.1
	c0.1,0,0.1,0.1,0.1,0.2v0.5c0,0.1,0,0.1-0.1,0.2c0,0-0.1,0.1-0.2,0.1h-0.7c-0.4,0-0.8,0.1-1,0.4c-0.3,0.3-0.4,0.6-0.4,1v3.6
	c0,0.1,0,0.2-0.1,0.2c-0.1,0-0.1,0.1-0.2,0.1H60.4z M65.3-42.3c-0.1,0-0.2,0-0.2-0.1c0-0.1-0.1-0.1-0.1-0.2v-0.7
	c0-0.1,0-0.2,0.1-0.2c0.1-0.1,0.1-0.1,0.2-0.1h0.8c0.1,0,0.2,0,0.2,0.1c0.1,0.1,0.1,0.1,0.1,0.2v0.7c0,0.1,0,0.2-0.1,0.2
	c-0.1,0-0.1,0.1-0.2,0.1H65.3z M65.4-34.8c-0.1,0-0.2,0-0.2-0.1c0-0.1-0.1-0.1-0.1-0.2v-5.8c0-0.1,0-0.1,0.1-0.2
	c0.1-0.1,0.1-0.1,0.2-0.1H66c0.1,0,0.1,0,0.2,0.1c0.1,0,0.1,0.1,0.1,0.2v5.8c0,0.1,0,0.2-0.1,0.2c0,0-0.1,0.1-0.2,0.1H65.4z
	 M71-34.7c-0.9,0-1.6-0.2-2.1-0.7c-0.5-0.5-0.8-1.2-0.8-2.1l0-0.5l0-0.5c0-0.9,0.3-1.6,0.8-2.1c0.5-0.5,1.2-0.7,2.1-0.7
	c0.6,0,1.1,0.1,1.5,0.3c0.4,0.2,0.7,0.5,0.9,0.8c0.2,0.3,0.3,0.6,0.3,0.9c0,0.1,0,0.1-0.1,0.2c-0.1,0-0.1,0.1-0.2,0.1h-0.6
	c-0.1,0-0.1,0-0.2,0s-0.1-0.1-0.1-0.2c-0.1-0.4-0.3-0.7-0.6-0.8c-0.3-0.2-0.6-0.3-1-0.3c-0.5,0-0.9,0.2-1.2,0.5
	c-0.3,0.3-0.5,0.8-0.5,1.4l0,0.4l0,0.4c0,0.7,0.2,1.1,0.5,1.4c0.3,0.3,0.7,0.5,1.2,0.5c0.4,0,0.7-0.1,1-0.2c0.3-0.2,0.4-0.5,0.6-0.8
	c0-0.1,0.1-0.2,0.1-0.2c0,0,0.1-0.1,0.2-0.1h0.6c0.1,0,0.2,0,0.2,0.1c0.1,0,0.1,0.1,0.1,0.2c0,0.3-0.1,0.6-0.3,0.9
	c-0.2,0.3-0.5,0.6-0.9,0.8C72.1-34.8,71.6-34.7,71-34.7z M78-34.7c-0.8,0-1.4-0.2-1.8-0.7c-0.4-0.5-0.6-1.2-0.6-2v-3.5
	c0-0.1,0-0.1,0.1-0.2c0.1-0.1,0.1-0.1,0.2-0.1h0.6c0.1,0,0.1,0,0.2,0.1c0.1,0,0.1,0.1,0.1,0.2v3.4c0,1.2,0.5,1.8,1.6,1.8
	c0.5,0,0.9-0.2,1.2-0.5c0.3-0.3,0.5-0.8,0.5-1.4v-3.4c0-0.1,0-0.1,0.1-0.2c0.1-0.1,0.1-0.1,0.2-0.1h0.6c0.1,0,0.1,0,0.2,0.1
	c0,0,0.1,0.1,0.1,0.2v5.8c0,0.1,0,0.2-0.1,0.2c0,0-0.1,0.1-0.2,0.1h-0.6c-0.1,0-0.2,0-0.2-0.1c0-0.1-0.1-0.1-0.1-0.2v-0.5
	c-0.2,0.3-0.5,0.5-0.8,0.7C78.9-34.7,78.5-34.7,78-34.7z M83.6-34.8c-0.1,0-0.2,0-0.2-0.1c0-0.1-0.1-0.1-0.1-0.2v-8.1
	c0-0.1,0-0.1,0.1-0.2c0.1-0.1,0.1-0.1,0.2-0.1h0.6c0.1,0,0.1,0,0.2,0.1c0.1,0,0.1,0.1,0.1,0.2v8.1c0,0.1,0,0.2-0.1,0.2
	c0,0-0.1,0.1-0.2,0.1H83.6z M88.5-34.7c-0.4,0-0.8-0.1-1.1-0.2c-0.3-0.2-0.6-0.4-0.8-0.7c-0.2-0.3-0.3-0.6-0.3-0.9
	c0-0.5,0.2-1,0.7-1.3c0.5-0.4,1.1-0.6,1.8-0.7l1.8-0.3v-0.4c0-0.8-0.5-1.3-1.4-1.3c-0.4,0-0.7,0.1-0.9,0.2c-0.2,0.1-0.4,0.3-0.5,0.5
	c0,0.1-0.1,0.1-0.1,0.2c0,0-0.1,0-0.1,0h-0.5c-0.1,0-0.1,0-0.2-0.1c0-0.1-0.1-0.1-0.1-0.2c0-0.2,0.1-0.4,0.3-0.7
	c0.2-0.3,0.5-0.5,0.8-0.7c0.4-0.2,0.8-0.3,1.4-0.3c0.9,0,1.6,0.2,2,0.7c0.4,0.4,0.6,1,0.6,1.6v4c0,0.1,0,0.2-0.1,0.2
	c0,0-0.1,0.1-0.2,0.1h-0.6c-0.1,0-0.2,0-0.2-0.1c0-0.1-0.1-0.1-0.1-0.2v-0.5c-0.2,0.3-0.4,0.5-0.8,0.7C89.4-34.7,89-34.7,88.5-34.7z
	 M88.7-35.6c0.5,0,1-0.2,1.3-0.5c0.3-0.4,0.5-0.9,0.5-1.5v-0.3l-1.4,0.2c-0.6,0.1-1,0.2-1.3,0.4c-0.3,0.2-0.4,0.4-0.4,0.7
	c0,0.3,0.1,0.6,0.4,0.8C88.1-35.7,88.4-35.6,88.7-35.6z M94.1-34.8c-0.1,0-0.2,0-0.2-0.1c0-0.1-0.1-0.1-0.1-0.2v-5.8
	c0-0.1,0-0.2,0.1-0.2c0.1-0.1,0.1-0.1,0.2-0.1h0.6c0.1,0,0.2,0,0.2,0.1C95-41,95-40.9,95-40.9v0.5c0.3-0.6,0.9-0.8,1.7-0.8h0.5
	c0.1,0,0.1,0,0.2,0.1c0.1,0,0.1,0.1,0.1,0.2v0.5c0,0.1,0,0.1-0.1,0.2c0,0-0.1,0.1-0.2,0.1h-0.7c-0.4,0-0.8,0.1-1,0.4
	c-0.3,0.3-0.4,0.6-0.4,1v3.6c0,0.1,0,0.2-0.1,0.2c-0.1,0-0.1,0.1-0.2,0.1H94.1z M104-34.8c-0.1,0-0.2,0-0.2-0.1
	c-0.1-0.1-0.1-0.1-0.1-0.2v-7.2h-2.4c-0.1,0-0.2,0-0.2-0.1c0-0.1-0.1-0.1-0.1-0.2v-0.5c0-0.1,0-0.2,0.1-0.2c0.1-0.1,0.1-0.1,0.2-0.1
	h5.9c0.1,0,0.2,0,0.2,0.1c0.1,0,0.1,0.1,0.1,0.2v0.5c0,0.1,0,0.2-0.1,0.2c-0.1,0-0.1,0.1-0.2,0.1h-2.3v7.2c0,0.1,0,0.2-0.1,0.2
	c-0.1,0-0.1,0.1-0.2,0.1H104z M109.8-34.7c-0.4,0-0.8-0.1-1.1-0.2c-0.3-0.2-0.6-0.4-0.8-0.7c-0.2-0.3-0.3-0.6-0.3-0.9
	c0-0.5,0.2-1,0.7-1.3c0.4-0.4,1.1-0.6,1.8-0.7l1.8-0.3v-0.4c0-0.8-0.5-1.3-1.4-1.3c-0.4,0-0.7,0.1-0.9,0.2c-0.2,0.1-0.4,0.3-0.5,0.5
	c0,0.1-0.1,0.1-0.1,0.2c0,0-0.1,0-0.1,0h-0.5c-0.1,0-0.1,0-0.2-0.1c0-0.1-0.1-0.1-0.1-0.2c0-0.2,0.1-0.4,0.3-0.7
	c0.2-0.3,0.5-0.5,0.8-0.7c0.4-0.2,0.8-0.3,1.4-0.3c0.9,0,1.6,0.2,2,0.7c0.4,0.4,0.6,1,0.6,1.6v4c0,0.1,0,0.2-0.1,0.2
	c0,0-0.1,0.1-0.2,0.1h-0.6c-0.1,0-0.2,0-0.2-0.1c0-0.1-0.1-0.1-0.1-0.2v-0.5c-0.2,0.3-0.4,0.5-0.8,0.7
	C110.7-34.7,110.3-34.7,109.8-34.7z M110-35.6c0.5,0,1-0.2,1.3-0.5c0.3-0.4,0.5-0.9,0.5-1.5v-0.3l-1.4,0.2c-0.6,0.1-1,0.2-1.3,0.4
	c-0.3,0.2-0.4,0.4-0.4,0.7c0,0.3,0.1,0.6,0.4,0.8C109.3-35.7,109.7-35.6,110-35.6z M117.7-34.7c-0.9,0-1.6-0.2-2.1-0.7
	c-0.5-0.5-0.8-1.2-0.8-2.1l0-0.5l0-0.5c0-0.9,0.3-1.6,0.8-2.1c0.5-0.5,1.2-0.7,2.1-0.7c0.6,0,1.1,0.1,1.5,0.3
	c0.4,0.2,0.7,0.5,0.9,0.8c0.2,0.3,0.3,0.6,0.3,0.9c0,0.1,0,0.1-0.1,0.2c-0.1,0-0.1,0.1-0.2,0.1h-0.6c-0.1,0-0.1,0-0.2,0
	s-0.1-0.1-0.1-0.2c-0.1-0.4-0.3-0.7-0.6-0.8c-0.3-0.2-0.6-0.3-1-0.3c-0.5,0-0.9,0.2-1.2,0.5c-0.3,0.3-0.5,0.8-0.5,1.4l0,0.4l0,0.4
	c0,0.7,0.2,1.1,0.5,1.4c0.3,0.3,0.7,0.5,1.2,0.5c0.4,0,0.7-0.1,1-0.2c0.3-0.2,0.5-0.5,0.6-0.8c0-0.1,0.1-0.2,0.1-0.2
	c0,0,0.1-0.1,0.2-0.1h0.6c0.1,0,0.2,0,0.2,0.1c0.1,0,0.1,0.1,0.1,0.2c0,0.3-0.1,0.6-0.3,0.9c-0.2,0.3-0.5,0.6-0.9,0.8
	C118.8-34.8,118.3-34.7,117.7-34.7z M122.6-34.8c-0.1,0-0.2,0-0.2-0.1c0-0.1-0.1-0.1-0.1-0.2v-8.1c0-0.1,0-0.1,0.1-0.2
	c0.1-0.1,0.1-0.1,0.2-0.1h0.6c0.1,0,0.1,0,0.2,0.1c0.1,0,0.1,0.1,0.1,0.2v2.9c0.2-0.3,0.5-0.5,0.8-0.7c0.3-0.2,0.7-0.2,1.2-0.2
	c0.8,0,1.4,0.3,1.8,0.8c0.4,0.5,0.7,1.2,0.7,2v3.5c0,0.1,0,0.2-0.1,0.2c0,0-0.1,0.1-0.2,0.1h-0.6c-0.1,0-0.2,0-0.2-0.1
	c0-0.1-0.1-0.1-0.1-0.2v-3.4c0-0.6-0.1-1-0.4-1.4c-0.3-0.3-0.7-0.5-1.2-0.5c-0.5,0-0.9,0.2-1.2,0.5c-0.3,0.3-0.5,0.8-0.5,1.3v3.4
	c0,0.1,0,0.2-0.1,0.2c0,0-0.1,0.1-0.2,0.1H122.6z M131.1-32.4c-0.1,0-0.1,0-0.2-0.1c0,0-0.1-0.1-0.1-0.2c0-0.1,0-0.1,0.1-0.2
	l0.9-2.2l-2.3-5.5c0-0.1-0.1-0.2-0.1-0.2c0-0.1,0-0.1,0.1-0.2c0,0,0.1-0.1,0.2-0.1h0.6c0.1,0,0.2,0.1,0.3,0.2l1.9,4.5l1.9-4.5
	c0.1-0.1,0.2-0.2,0.3-0.2h0.6c0.1,0,0.1,0,0.2,0.1c0,0,0.1,0.1,0.1,0.2c0,0,0,0.1-0.1,0.2l-3.5,8c-0.1,0.1-0.2,0.2-0.3,0.2H131.1z
	 M139.4-34.7c-0.9,0-1.6-0.2-2.1-0.7c-0.5-0.5-0.8-1.2-0.8-2.1l0-0.5l0-0.5c0-0.9,0.3-1.6,0.8-2.1c0.5-0.5,1.2-0.7,2.1-0.7
	c0.6,0,1.1,0.1,1.5,0.3c0.4,0.2,0.7,0.5,0.9,0.8c0.2,0.3,0.3,0.6,0.3,0.9c0,0.1,0,0.1-0.1,0.2c-0.1,0-0.1,0.1-0.2,0.1h-0.6
	c-0.1,0-0.1,0-0.2,0s-0.1-0.1-0.1-0.2c-0.1-0.4-0.3-0.7-0.6-0.8c-0.3-0.2-0.6-0.3-1-0.3c-0.5,0-0.9,0.2-1.2,0.5
	c-0.3,0.3-0.5,0.8-0.5,1.4l0,0.4l0,0.4c0,0.7,0.2,1.1,0.5,1.4c0.3,0.3,0.7,0.5,1.2,0.5c0.4,0,0.7-0.1,1-0.2c0.3-0.2,0.4-0.5,0.6-0.8
	c0-0.1,0.1-0.2,0.1-0.2c0,0,0.1-0.1,0.2-0.1h0.6c0.1,0,0.2,0,0.2,0.1c0.1,0,0.1,0.1,0.1,0.2c0,0.3-0.1,0.6-0.3,0.9
	c-0.2,0.3-0.5,0.6-0.9,0.8C140.5-34.8,140-34.7,139.4-34.7z M145.8-34.7c-0.4,0-0.8-0.1-1.1-0.2c-0.3-0.2-0.6-0.4-0.8-0.7
	c-0.2-0.3-0.3-0.6-0.3-0.9c0-0.5,0.2-1,0.7-1.3c0.4-0.4,1.1-0.6,1.8-0.7l1.8-0.3v-0.4c0-0.8-0.5-1.3-1.4-1.3c-0.4,0-0.7,0.1-0.9,0.2
	c-0.2,0.1-0.4,0.3-0.5,0.5c0,0.1-0.1,0.1-0.1,0.2c0,0-0.1,0-0.1,0h-0.5c-0.1,0-0.1,0-0.2-0.1c0-0.1-0.1-0.1-0.1-0.2
	c0-0.2,0.1-0.4,0.3-0.7c0.2-0.3,0.5-0.5,0.8-0.7c0.4-0.2,0.8-0.3,1.4-0.3c0.9,0,1.6,0.2,2,0.7c0.4,0.4,0.6,1,0.6,1.6v4
	c0,0.1,0,0.2-0.1,0.2c0,0-0.1,0.1-0.2,0.1h-0.6c-0.1,0-0.2,0-0.2-0.1c0-0.1-0.1-0.1-0.1-0.2v-0.5c-0.2,0.3-0.4,0.5-0.8,0.7
	C146.7-34.7,146.3-34.7,145.8-34.7z M146-35.6c0.5,0,1-0.2,1.3-0.5c0.3-0.4,0.5-0.9,0.5-1.5v-0.3l-1.4,0.2c-0.6,0.1-1,0.2-1.3,0.4
	c-0.3,0.2-0.4,0.4-0.4,0.7c0,0.3,0.1,0.6,0.4,0.8C145.3-35.7,145.7-35.6,146-35.6z M151.4-34.8c-0.1,0-0.2,0-0.2-0.1
	c0-0.1-0.1-0.1-0.1-0.2v-5.8c0-0.1,0-0.2,0.1-0.2c0.1-0.1,0.1-0.1,0.2-0.1h0.6c0.1,0,0.2,0,0.2,0.1c0.1,0.1,0.1,0.1,0.1,0.2v0.5
	c0.3-0.6,0.9-0.8,1.7-0.8h0.5c0.1,0,0.1,0,0.2,0.1c0.1,0,0.1,0.1,0.1,0.2v0.5c0,0.1,0,0.1-0.1,0.2c0,0-0.1,0.1-0.2,0.1h-0.7
	c-0.4,0-0.8,0.1-1,0.4c-0.3,0.3-0.4,0.6-0.4,1v3.6c0,0.1,0,0.2-0.1,0.2c-0.1,0-0.1,0.1-0.2,0.1H151.4z M158.4-34.7
	c-0.9,0-1.5-0.3-1.9-0.8c-0.4-0.6-0.7-1.3-0.7-2.1l0-0.4l0-0.4c0-0.8,0.3-1.5,0.7-2.1c0.4-0.6,1.1-0.8,1.9-0.8c0.8,0,1.5,0.3,2,0.9
	v-2.8c0-0.1,0-0.1,0.1-0.2c0.1-0.1,0.1-0.1,0.2-0.1h0.6c0.1,0,0.1,0,0.2,0.1c0.1,0,0.1,0.1,0.1,0.2v8.1c0,0.1,0,0.2-0.1,0.2
	c0,0-0.1,0.1-0.2,0.1h-0.6c-0.1,0-0.2,0-0.2-0.1c0-0.1-0.1-0.1-0.1-0.2v-0.5C159.9-35,159.2-34.7,158.4-34.7z M158.6-35.6
	c0.6,0,1-0.2,1.3-0.6c0.3-0.4,0.4-0.8,0.5-1.3c0-0.1,0-0.2,0-0.5c0-0.2,0-0.4,0-0.5c0-0.5-0.2-0.9-0.5-1.3c-0.3-0.4-0.7-0.5-1.3-0.5
	c-0.6,0-1,0.2-1.3,0.5c-0.3,0.4-0.4,0.8-0.4,1.4l0,0.4C156.9-36.4,157.5-35.6,158.6-35.6z M163.9-42.3c-0.1,0-0.2,0-0.2-0.1
	c0-0.1-0.1-0.1-0.1-0.2v-0.7c0-0.1,0-0.2,0.1-0.2c0.1-0.1,0.1-0.1,0.2-0.1h0.8c0.1,0,0.2,0,0.2,0.1c0.1,0.1,0.1,0.1,0.1,0.2v0.7
	c0,0.1,0,0.2-0.1,0.2c-0.1,0-0.1,0.1-0.2,0.1H163.9z M164-34.8c-0.1,0-0.2,0-0.2-0.1c0-0.1-0.1-0.1-0.1-0.2v-5.8
	c0-0.1,0-0.1,0.1-0.2c0.1-0.1,0.1-0.1,0.2-0.1h0.6c0.1,0,0.1,0,0.2,0.1c0.1,0,0.1,0.1,0.1,0.2v5.8c0,0.1,0,0.2-0.1,0.2
	c0,0-0.1,0.1-0.2,0.1H164z M168.8-34.7c-0.4,0-0.8-0.1-1.1-0.2c-0.3-0.2-0.6-0.4-0.8-0.7c-0.2-0.3-0.3-0.6-0.3-0.9
	c0-0.5,0.2-1,0.7-1.3c0.4-0.4,1.1-0.6,1.8-0.7l1.8-0.3v-0.4c0-0.8-0.5-1.3-1.4-1.3c-0.4,0-0.7,0.1-0.9,0.2c-0.2,0.1-0.4,0.3-0.5,0.5
	c0,0.1-0.1,0.1-0.1,0.2c0,0-0.1,0-0.1,0h-0.5c-0.1,0-0.1,0-0.2-0.1c0-0.1-0.1-0.1-0.1-0.2c0-0.2,0.1-0.4,0.3-0.7
	c0.2-0.3,0.5-0.5,0.8-0.7c0.4-0.2,0.8-0.3,1.4-0.3c0.9,0,1.6,0.2,2,0.7c0.4,0.4,0.6,1,0.6,1.6v4c0,0.1,0,0.2-0.1,0.2
	c0,0-0.1,0.1-0.2,0.1h-0.6c-0.1,0-0.2,0-0.2-0.1c0-0.1-0.1-0.1-0.1-0.2v-0.5c-0.2,0.3-0.4,0.5-0.8,0.7
	C169.8-34.7,169.4-34.7,168.8-34.7z M169.1-35.6c0.5,0,1-0.2,1.3-0.5c0.3-0.4,0.5-0.9,0.5-1.5v-0.3l-1.4,0.2c-0.6,0.1-1,0.2-1.3,0.4
	c-0.3,0.2-0.4,0.4-0.4,0.7c0,0.3,0.1,0.6,0.4,0.8C168.4-35.7,168.7-35.6,169.1-35.6z"/>
<path class="st3" d="M5.3-24.1h4.4c0.2,0,0.4,0.2,0.4,0.4v4.4c0,0.2-0.2,0.4-0.4,0.4H5.3c-0.2,0-0.4-0.2-0.4-0.4v-4.4
	C4.8-23.9,5-24.1,5.3-24.1z"/>
<path class="st4" d="M4.8-22.6h5.3c0.1,0,0.2,0.1,0.2,0.2l0,0c0,0.1-0.1,0.2-0.2,0.2H4.8c-0.1,0-0.2-0.1-0.2-0.2l0,0
	C4.6-22.5,4.7-22.6,4.8-22.6z"/>
<path class="st4" d="M5.7-25.2L5.7-25.2c0.1,0,0.2,0.1,0.2,0.2v0.9c0,0.1-0.1,0.2-0.2,0.2h0c-0.1,0-0.2-0.1-0.2-0.2V-25
	C5.5-25.1,5.6-25.2,5.7-25.2z"/>
<path class="st4" d="M9.2-25.2L9.2-25.2c0.1,0,0.2,0.1,0.2,0.2v0.9c0,0.1-0.1,0.2-0.2,0.2l0,0C9.1-23.9,9-24,9-24.1V-25
	C9-25.1,9.1-25.2,9.2-25.2z"/>
<path class="st5" d="M13.3-18.4c-0.1,0-0.1,0-0.1-0.1c0,0-0.1-0.1-0.1-0.1v-5.7c0-0.1,0-0.1,0.1-0.1c0,0,0.1-0.1,0.1-0.1h1.9
	c0.6,0,1.1,0.1,1.4,0.3c0.4,0.2,0.6,0.4,0.8,0.8c0.2,0.3,0.2,0.8,0.2,1.3c0,0.2,0,0.4,0,0.7c0,0.3,0,0.5,0,0.7c0,0.6-0.1,1-0.2,1.4
	c-0.1,0.3-0.4,0.6-0.7,0.8c-0.3,0.2-0.8,0.3-1.4,0.3H13.3z M15.2-18.9c0.5,0,0.8-0.1,1.1-0.2c0.3-0.1,0.5-0.3,0.6-0.6
	C17-20,17-20.4,17-20.8c0-0.2,0-0.4,0-0.7c0-0.3,0-0.5,0-0.6c0-0.7-0.2-1.1-0.5-1.4c-0.3-0.3-0.8-0.5-1.5-0.5h-1.5v5.1H15.2z
	 M20.5-18.3c-0.3,0-0.5-0.1-0.8-0.2c-0.2-0.1-0.4-0.3-0.6-0.5C19-19.2,19-19.4,19-19.6c0-0.4,0.2-0.7,0.5-0.9
	c0.3-0.2,0.7-0.4,1.3-0.5l1.4-0.2v-0.3c0-0.3-0.1-0.6-0.3-0.7c-0.2-0.2-0.5-0.3-0.9-0.3c-0.3,0-0.5,0.1-0.7,0.2
	c-0.2,0.1-0.3,0.3-0.4,0.4c0,0.1-0.1,0.1-0.1,0.1c0,0-0.1,0-0.1,0h-0.1c-0.1,0-0.1,0-0.1-0.1c0,0-0.1-0.1-0.1-0.1
	c0-0.1,0.1-0.3,0.2-0.4c0.1-0.2,0.3-0.3,0.5-0.5c0.2-0.1,0.5-0.2,0.9-0.2c0.6,0,1.1,0.1,1.3,0.4c0.3,0.3,0.4,0.7,0.4,1.1v2.9
	c0,0.1,0,0.1-0.1,0.1c0,0-0.1,0.1-0.1,0.1h-0.1c-0.1,0-0.1,0-0.1-0.1c0,0-0.1-0.1-0.1-0.1V-19c-0.1,0.2-0.3,0.4-0.6,0.5
	C21.3-18.4,20.9-18.3,20.5-18.3z M20.6-18.8c0.4,0,0.8-0.1,1.1-0.4c0.3-0.3,0.4-0.7,0.4-1.2v-0.3L21-20.6c-0.5,0.1-0.8,0.2-1.1,0.3
	c-0.2,0.2-0.4,0.4-0.4,0.6c0,0.3,0.1,0.5,0.3,0.6C20.1-18.9,20.3-18.8,20.6-18.8z M25.1-16.8c0,0-0.1,0-0.1-0.1c0,0-0.1-0.1-0.1-0.1
	c0,0,0-0.1,0.1-0.2l0.7-1.6L24-22.6c0-0.1-0.1-0.1-0.1-0.2c0,0,0-0.1,0.1-0.1c0,0,0.1-0.1,0.1-0.1h0.2c0.1,0,0.2,0,0.2,0.1l1.5,3.5
	l1.5-3.5c0-0.1,0.1-0.1,0.2-0.1h0.2c0,0,0.1,0,0.1,0.1c0,0,0.1,0.1,0.1,0.1c0,0,0,0.1-0.1,0.2l-2.5,5.7c0,0.1-0.1,0.1-0.2,0.1H25.1z
	 M33.5-18.4c-0.1,0-0.1,0-0.1-0.1c0,0-0.1-0.1-0.1-0.1v-5.2l-1.6,1.2c0,0-0.1,0-0.1,0c-0.1,0-0.1,0-0.1-0.1l-0.1-0.1
	c0,0,0-0.1,0-0.1c0-0.1,0-0.1,0.1-0.1l1.9-1.4c0.1,0,0.1-0.1,0.2-0.1h0.2c0.1,0,0.1,0,0.1,0.1c0,0,0.1,0.1,0.1,0.1v5.8
	c0,0.1,0,0.1-0.1,0.1c0,0-0.1,0.1-0.1,0.1H33.5z M39.3-20.2c-0.2,0-0.4-0.1-0.6-0.3c-0.2-0.2-0.3-0.4-0.3-0.6c0-0.2,0.1-0.4,0.3-0.6
	c0.2-0.2,0.4-0.3,0.6-0.3c0.2,0,0.4,0.1,0.6,0.3c0.2,0.2,0.3,0.4,0.3,0.6c0,0.2-0.1,0.4-0.3,0.6C39.7-20.3,39.5-20.2,39.3-20.2z
	 M46.4-18.4c-0.1,0-0.1,0-0.1-0.1c0,0-0.1-0.1-0.1-0.1v-5.2l-1.6,1.2c0,0-0.1,0-0.1,0c-0.1,0-0.1,0-0.1-0.1l-0.1-0.1
	c0,0,0-0.1,0-0.1c0-0.1,0-0.1,0.1-0.1l1.9-1.4c0.1,0,0.1-0.1,0.2-0.1h0.2c0.1,0,0.1,0,0.1,0.1c0,0,0.1,0.1,0.1,0.1v5.8
	c0,0.1,0,0.1-0.1,0.1c0,0-0.1,0.1-0.1,0.1H46.4z M48.6-18.4c-0.1,0-0.1,0-0.1-0.1c0,0-0.1-0.1-0.1-0.1v-0.1c0-0.1,0.1-0.2,0.2-0.4
	l2.3-2.3c0.3-0.3,0.5-0.5,0.6-0.8c0.1-0.2,0.2-0.4,0.2-0.7c0-0.4-0.1-0.7-0.3-0.9c-0.2-0.2-0.5-0.3-1-0.3c-0.4,0-0.7,0.1-0.9,0.3
	c-0.2,0.2-0.4,0.5-0.4,0.9c0,0.1,0,0.1-0.1,0.1c0,0-0.1,0.1-0.1,0.1h-0.2c-0.1,0-0.1,0-0.1,0c0,0,0-0.1,0-0.1c0-0.3,0.1-0.6,0.2-0.9
	c0.1-0.3,0.4-0.5,0.6-0.7c0.3-0.2,0.6-0.3,1.1-0.3c0.6,0,1.1,0.2,1.4,0.5c0.3,0.3,0.5,0.8,0.5,1.3c0,0.4-0.1,0.7-0.2,0.9
	c-0.2,0.3-0.4,0.6-0.7,0.9l-2.1,2.1h2.9c0.1,0,0.1,0,0.1,0.1c0,0,0.1,0.1,0.1,0.1v0.1c0,0.1,0,0.1-0.1,0.1c0,0-0.1,0.1-0.1,0.1H48.6
	z M54-21.5c-0.1,0-0.1,0-0.1-0.1c0,0-0.1-0.1-0.1-0.1v-0.4c0-0.1,0-0.1,0.1-0.1c0,0,0.1-0.1,0.1-0.1h0.4c0.1,0,0.1,0,0.1,0.1
	c0,0,0.1,0.1,0.1,0.1v0.4c0,0.1,0,0.1-0.1,0.1c0,0-0.1,0.1-0.1,0.1H54z M54-18.4c-0.1,0-0.1,0-0.1-0.1c0,0-0.1-0.1-0.1-0.1V-19
	c0-0.1,0-0.1,0.1-0.1c0,0,0.1-0.1,0.1-0.1h0.4c0.1,0,0.1,0,0.1,0.1c0,0,0.1,0.1,0.1,0.1v0.4c0,0.1,0,0.1-0.1,0.1
	c0,0-0.1,0.1-0.1,0.1H54z M58.2-18.3c-0.4,0-0.8-0.1-1.1-0.2c-0.3-0.1-0.5-0.3-0.7-0.6c-0.2-0.2-0.3-0.5-0.3-0.7
	c0-0.1,0-0.1,0.1-0.1c0,0,0.1,0,0.1,0h0.1c0.1,0,0.1,0,0.1,0c0,0,0.1,0.1,0.1,0.2c0.1,0.3,0.3,0.6,0.6,0.7c0.3,0.1,0.6,0.2,1,0.2
	c0.5,0,0.8-0.1,1.1-0.3c0.3-0.2,0.4-0.5,0.4-1c0-0.8-0.5-1.2-1.5-1.2h-0.8c-0.1,0-0.1,0-0.1-0.1c0,0-0.1-0.1-0.1-0.1v-0.1
	c0-0.1,0-0.1,0.1-0.2l1.8-2.1h-2.6c-0.1,0-0.1,0-0.1-0.1c0,0-0.1-0.1-0.1-0.1v-0.1c0-0.1,0-0.1,0.1-0.1c0,0,0.1-0.1,0.1-0.1h3.3
	c0.1,0,0.1,0,0.1,0.1c0,0,0.1,0.1,0.1,0.1v0.1c0,0.1,0,0.1-0.1,0.2l-1.8,2.2h0.2c0.6,0,1.1,0.1,1.5,0.4c0.4,0.3,0.5,0.7,0.5,1.3
	c0,0.4-0.1,0.7-0.3,1c-0.2,0.3-0.4,0.5-0.7,0.6C59-18.4,58.6-18.3,58.2-18.3z M64.7-18.4c-0.1,0-0.1,0-0.1-0.1c0,0-0.1-0.1-0.1-0.1
	V-20h-2.9c-0.1,0-0.1,0-0.1-0.1c0,0-0.1-0.1-0.1-0.1v-0.1c0-0.1,0-0.2,0.1-0.3l2.7-3.8c0,0,0.1-0.1,0.1-0.1c0.1,0,0.1,0,0.2,0h0.4
	c0.1,0,0.1,0,0.1,0.1c0,0,0.1,0.1,0.1,0.1v3.8h0.8c0.1,0,0.1,0,0.1,0.1c0,0,0.1,0.1,0.1,0.1v0.1c0,0.1,0,0.1-0.1,0.1
	c0,0-0.1,0.1-0.1,0.1h-0.8v1.4c0,0.1,0,0.1-0.1,0.1c0,0-0.1,0.1-0.1,0.1H64.7z M64.5-20.5v-3.4l-2.4,3.4H64.5z M67.6-21.5
	c-0.1,0-0.1,0-0.1-0.1c0,0-0.1-0.1-0.1-0.1v-0.4c0-0.1,0-0.1,0.1-0.1c0,0,0.1-0.1,0.1-0.1H68c0.1,0,0.1,0,0.1,0.1
	c0,0,0.1,0.1,0.1,0.1v0.4c0,0.1,0,0.1-0.1,0.1c0,0-0.1,0.1-0.1,0.1H67.6z M67.6-18.4c-0.1,0-0.1,0-0.1-0.1c0,0-0.1-0.1-0.1-0.1V-19
	c0-0.1,0-0.1,0.1-0.1c0,0,0.1-0.1,0.1-0.1H68c0.1,0,0.1,0,0.1,0.1c0,0,0.1,0.1,0.1,0.1v0.4c0,0.1,0,0.1-0.1,0.1c0,0-0.1,0.1-0.1,0.1
	H67.6z M71.7-18.3c-0.4,0-0.8-0.1-1.1-0.2c-0.3-0.2-0.5-0.4-0.7-0.6c-0.2-0.2-0.2-0.5-0.3-0.8v0c0,0,0-0.1,0-0.1c0,0,0.1,0,0.1,0
	h0.2c0.1,0,0.1,0,0.1,0c0,0,0.1,0.1,0.1,0.2c0.1,0.4,0.3,0.6,0.5,0.8c0.3,0.2,0.6,0.3,0.9,0.3c0.5,0,0.8-0.1,1.1-0.4
	c0.3-0.3,0.4-0.6,0.4-1.1c0-0.3-0.1-0.5-0.2-0.8c-0.1-0.2-0.3-0.4-0.6-0.5c-0.2-0.1-0.5-0.2-0.8-0.2c-0.2,0-0.4,0-0.6,0.1
	c-0.1,0.1-0.3,0.1-0.4,0.2c-0.1,0.1-0.2,0.1-0.2,0.1c-0.1,0-0.1,0-0.2,0h-0.2c-0.1,0-0.1,0-0.1-0.1c0,0-0.1-0.1-0.1-0.1l0.3-2.9
	c0-0.1,0-0.1,0.1-0.1c0,0,0.1-0.1,0.1-0.1h2.9c0.1,0,0.1,0,0.1,0.1c0,0,0.1,0.1,0.1,0.1v0.1c0,0.1,0,0.1-0.1,0.1
	c0,0-0.1,0.1-0.1,0.1h-2.5l-0.2,2c0.3-0.2,0.7-0.3,1.1-0.3c0.4,0,0.8,0.1,1.1,0.2c0.3,0.2,0.6,0.4,0.8,0.7c0.2,0.3,0.3,0.6,0.3,1.1
	c0,0.4-0.1,0.8-0.3,1.1c-0.2,0.3-0.4,0.5-0.8,0.7C72.5-18.4,72.1-18.3,71.7-18.3z M77.3-18.3c-0.4,0-0.8-0.1-1.2-0.3
	c-0.3-0.2-0.6-0.4-0.7-0.8c-0.2-0.3-0.2-0.7-0.2-1c0-0.5,0.2-1,0.6-1.6l1.7-2.4c0,0,0,0,0-0.1c0,0,0.1-0.1,0.1-0.1c0,0,0.1,0,0.1,0
	h0.2c0.1,0,0.1,0,0.1,0.1c0,0,0.1,0.1,0.1,0.1c0,0,0,0.1,0,0.1l-1.3,1.9c0.2,0,0.4-0.1,0.6-0.1c0.5,0,0.8,0.1,1.2,0.3
	c0.3,0.2,0.6,0.4,0.7,0.8c0.2,0.3,0.2,0.7,0.2,1c0,0.4-0.1,0.7-0.2,1c-0.2,0.3-0.4,0.6-0.7,0.8C78.1-18.4,77.8-18.3,77.3-18.3z
	 M77.3-18.9c0.3,0,0.5-0.1,0.8-0.2c0.2-0.1,0.4-0.3,0.6-0.5c0.1-0.2,0.2-0.5,0.2-0.8c0-0.3-0.1-0.6-0.2-0.8
	c-0.1-0.2-0.3-0.4-0.6-0.5c-0.2-0.1-0.5-0.2-0.8-0.2c-0.3,0-0.5,0.1-0.8,0.2c-0.2,0.1-0.4,0.3-0.6,0.5c-0.1,0.2-0.2,0.5-0.2,0.8
	c0,0.3,0.1,0.6,0.2,0.8c0.1,0.2,0.3,0.4,0.6,0.5C76.8-18.9,77-18.9,77.3-18.9z"/>
<path class="st3" d="M88.6-24.5h3.1c0.5,0,0.9,0.4,0.9,0.9l0,0c0,0.5-0.4,0.9-0.9,0.9h-1.8c-0.5,0-0.9,0.4-0.9,0.9l0,0
	c0,0.5,0.4,0.9,0.9,0.9h1.8c0.5,0,0.9,0.4,0.9,0.9l0,0c0,0.5-0.4,0.9-0.9,0.9h-3.1"/>
<path class="st5" d="M96.9-18.3c-0.5,0-0.8-0.1-1.2-0.3c-0.3-0.2-0.6-0.4-0.7-0.8c-0.2-0.3-0.2-0.7-0.2-1c0-0.5,0.2-1,0.6-1.6
	l1.7-2.4c0,0,0,0,0-0.1c0,0,0.1-0.1,0.1-0.1c0,0,0.1,0,0.1,0h0.2c0.1,0,0.1,0,0.1,0.1c0,0,0.1,0.1,0.1,0.1c0,0,0,0.1,0,0.1l-1.3,1.9
	c0.2,0,0.4-0.1,0.6-0.1c0.5,0,0.8,0.1,1.2,0.3c0.3,0.2,0.6,0.4,0.7,0.8c0.2,0.3,0.2,0.7,0.2,1c0,0.4-0.1,0.7-0.2,1
	c-0.2,0.3-0.4,0.6-0.7,0.8C97.7-18.4,97.4-18.3,96.9-18.3z M96.9-18.9c0.3,0,0.5-0.1,0.8-0.2c0.2-0.1,0.4-0.3,0.6-0.5
	c0.1-0.2,0.2-0.5,0.2-0.8c0-0.3-0.1-0.6-0.2-0.8c-0.1-0.2-0.3-0.4-0.6-0.5c-0.2-0.1-0.5-0.2-0.8-0.2c-0.3,0-0.5,0.1-0.8,0.2
	c-0.2,0.1-0.4,0.3-0.6,0.5c-0.1,0.2-0.2,0.5-0.2,0.8c0,0.3,0.1,0.6,0.2,0.8c0.1,0.2,0.3,0.4,0.6,0.5C96.4-18.9,96.6-18.9,96.9-18.9z
	 M102.3-18.3c-0.4,0-0.8-0.1-1.1-0.2c-0.3-0.2-0.5-0.4-0.7-0.6c-0.2-0.2-0.2-0.5-0.3-0.8v0c0,0,0-0.1,0-0.1c0,0,0.1,0,0.1,0h0.2
	c0.1,0,0.1,0,0.1,0c0,0,0.1,0.1,0.1,0.2c0.1,0.4,0.3,0.6,0.5,0.8c0.3,0.2,0.6,0.3,0.9,0.3c0.5,0,0.8-0.1,1.1-0.4
	c0.3-0.3,0.4-0.6,0.4-1.1c0-0.3-0.1-0.5-0.2-0.8c-0.1-0.2-0.3-0.4-0.6-0.5c-0.2-0.1-0.5-0.2-0.8-0.2c-0.2,0-0.4,0-0.6,0.1
	c-0.1,0.1-0.3,0.1-0.4,0.2c-0.1,0.1-0.2,0.1-0.2,0.1c-0.1,0-0.1,0-0.2,0h-0.2c-0.1,0-0.1,0-0.1-0.1c0,0-0.1-0.1-0.1-0.1l0.3-2.9
	c0-0.1,0-0.1,0.1-0.1c0,0,0.1-0.1,0.1-0.1h2.9c0.1,0,0.1,0,0.1,0.1c0,0,0.1,0.1,0.1,0.1v0.1c0,0.1,0,0.1-0.1,0.1
	c0,0-0.1,0.1-0.1,0.1h-2.5l-0.2,2c0.3-0.2,0.7-0.3,1.1-0.3c0.4,0,0.8,0.1,1.1,0.2c0.3,0.2,0.6,0.4,0.8,0.7c0.2,0.3,0.3,0.6,0.3,1.1
	c0,0.4-0.1,0.8-0.3,1.1c-0.2,0.3-0.4,0.5-0.8,0.7C103-18.4,102.7-18.3,102.3-18.3z"/>
<path class="st3" d="M117.9-23L117.9-23L117.9-23c-0.2,0.7-0.7,1.5-1.3,2.2l0,0c-0.5,0.6-1,1.1-1.3,1.4c-0.1,0.1-0.2,0.2-0.3,0.3
	c0,0-0.1-0.1-0.2-0.1c-0.3-0.3-0.6-0.6-1-1c-0.8-0.9-1.6-1.9-1.8-2.8l0,0l0,0c0-0.1-0.1-0.3-0.1-0.5v0v0v0v0l0,0v0v0v0v0l0,0v0v0v0
	v0l0,0v0v0v0v0l0,0v0v0v0v0l0,0v0v0v0v0l0,0v0v0v0v0l0,0v0v0v0l0,0v0v0v0v0l0,0v0v0v0v0l0,0v0v0v0l0,0v0v0v0v0l0,0v0v0v0l0,0v0v0v0
	v0l0,0v0v0v0l0,0v0v0v0v0l0,0v0v0v0l0,0v0v0v0l0,0v0v0v0v0l0,0v0v0v0l0,0v0v0v0l0,0v0v0v0v0l0,0v0v0v0l0,0v0v0v0l0,0v0v0v0l0,0v0v0
	v0v0l0,0v0v0v0l0,0v0v0v0l0,0v0v0v0l0,0v0v0v0l0,0v0v0v0v0l0,0v0v0v0l0,0v0v0v0l0,0v0v0v0l0,0v0v0v0l0,0v0v0v0l0,0v0v0v0l0,0v0v0v0
	l0,0v0v0v0l0,0v0v0v0l0,0v0v0v0l0,0v0v0v0l0,0v0v0v0l0,0v0v0v0l0,0v0v0v0l0,0v0v0v0l0,0v0v0v0l0,0v0v0v0l0,0v0v0v0l0,0v0v0v0l0,0v0
	v0v0l0,0v0v0v0l0,0v0v0v0l0,0v0v0v0l0,0v0v0v0l0,0v0v0v0l0,0v0v0v0l0,0v0v0l0,0v0v0v0l0,0v0v0v0l0,0v0v0v0l0,0v0v0v0l0,0v0v0v0l0,0
	v0v0v0l0,0v0v0v0l0,0v0v0v0l0,0v0v0v0l0,0v0v0v0l0,0v0v0v0l0,0v0v0v0l0,0v0v0v0l0,0v0v0v0l0,0v0v0v0l0,0v0v0v0l0,0v0v0l0,0v0v0v0
	l0,0v0v0v0l0,0v0v0v0l0,0v0v0v0l0,0v0v0v0l0,0v0v0v0l0,0v0v0v0l0,0v0v0v0v0l0,0v0v0v0l0,0v0v0v0l0,0v0v0v0l0,0v0v0v0l0,0v0v0v0l0,0
	v0v0v0l0,0v0v0v0l0,0v0v0v0l0,0v0v0v0l0,0v0v0v0v0l0,0v0v0v0l0,0v0v0v0l0,0v0v0v0l0,0v0v0v0l0,0v0v0v0v0l0,0v0v0v0l0,0v0v0v0l0,0v0
	v0v0v0l0,0v0v0v0l0,0v0v0v0l0,0v0v0v0v0l0,0v0v0v0l0,0v0v0v0v0l0,0v0v0v0l0,0v0v0v0v0l0,0v0v0v0l0,0c0-0.8,0.7-1.5,1.6-1.5
	c0.5,0,0.9,0.2,1.2,0.5l0.3,0.4l0.3-0.4c0.1-0.1,0.2-0.2,0.3-0.2l0,0c0.3-0.2,0.6-0.3,0.9-0.3c0.9,0,1.6,0.7,1.6,1.6
	C118-23.3,118-23.1,117.9-23z"/>
<path class="st5" d="M121.7-18.4c-0.1,0-0.1,0-0.1-0.1c0,0-0.1-0.1-0.1-0.1v-5.2l-1.6,1.2c0,0-0.1,0-0.1,0c-0.1,0-0.1,0-0.1-0.1
	l-0.1-0.1c0,0,0-0.1,0-0.1c0-0.1,0-0.1,0.1-0.1l1.9-1.4c0.1,0,0.1-0.1,0.2-0.1h0.2c0.1,0,0.1,0,0.1,0.1c0,0,0.1,0.1,0.1,0.1v5.8
	c0,0.1,0,0.1-0.1,0.1c0,0-0.1,0.1-0.1,0.1H121.7z M123.9-18.4c-0.1,0-0.1,0-0.1-0.1c0,0-0.1-0.1-0.1-0.1v-0.1c0-0.1,0.1-0.2,0.2-0.4
	l2.3-2.3c0.3-0.3,0.5-0.5,0.6-0.8c0.1-0.2,0.2-0.4,0.2-0.7c0-0.4-0.1-0.7-0.3-0.9c-0.2-0.2-0.5-0.3-1-0.3c-0.4,0-0.7,0.1-0.9,0.3
	c-0.2,0.2-0.4,0.5-0.4,0.9c0,0.1,0,0.1-0.1,0.1c0,0-0.1,0.1-0.1,0.1h-0.2c-0.1,0-0.1,0-0.1,0c0,0,0-0.1,0-0.1c0-0.3,0.1-0.6,0.2-0.9
	c0.1-0.3,0.4-0.5,0.6-0.7c0.3-0.2,0.6-0.3,1.1-0.3c0.6,0,1.1,0.2,1.4,0.5c0.3,0.3,0.5,0.8,0.5,1.3c0,0.4-0.1,0.7-0.2,0.9
	c-0.2,0.3-0.4,0.6-0.7,0.9l-2.1,2.1h2.9c0.1,0,0.1,0,0.1,0.1c0,0,0.1,0.1,0.1,0.1v0.1c0,0.1,0,0.1-0.1,0.1c0,0-0.1,0.1-0.1,0.1
	H123.9z M131-18.3c-0.4,0-0.8-0.1-1.1-0.2c-0.3-0.1-0.6-0.3-0.7-0.6c-0.2-0.2-0.3-0.5-0.3-0.7c0-0.1,0-0.1,0.1-0.1c0,0,0.1,0,0.1,0
	h0.1c0.1,0,0.1,0,0.1,0c0,0,0.1,0.1,0.1,0.2c0.1,0.3,0.3,0.6,0.6,0.7c0.3,0.1,0.6,0.2,1,0.2c0.5,0,0.8-0.1,1.1-0.3
	c0.3-0.2,0.4-0.5,0.4-1c0-0.8-0.5-1.2-1.5-1.2h-0.8c-0.1,0-0.1,0-0.1-0.1c0,0-0.1-0.1-0.1-0.1v-0.1c0-0.1,0-0.1,0.1-0.2L132-24h-2.6
	c-0.1,0-0.1,0-0.1-0.1c0,0-0.1-0.1-0.1-0.1v-0.1c0-0.1,0-0.1,0.1-0.1c0,0,0.1-0.1,0.1-0.1h3.3c0.1,0,0.1,0,0.1,0.1
	c0,0,0.1,0.1,0.1,0.1v0.1c0,0.1,0,0.1-0.1,0.2l-1.8,2.2h0.2c0.6,0,1.1,0.1,1.5,0.4c0.4,0.3,0.5,0.7,0.5,1.3c0,0.4-0.1,0.7-0.3,1
	c-0.2,0.3-0.4,0.5-0.7,0.6C131.8-18.4,131.4-18.3,131-18.3z M138.6-18.3c-0.3,0-0.5-0.1-0.8-0.2c-0.2-0.1-0.4-0.3-0.6-0.5
	c-0.1-0.2-0.2-0.4-0.2-0.7c0-0.4,0.2-0.7,0.5-0.9c0.3-0.2,0.7-0.4,1.3-0.5l1.4-0.2v-0.3c0-0.3-0.1-0.6-0.3-0.7
	c-0.2-0.2-0.5-0.3-0.9-0.3c-0.3,0-0.5,0.1-0.7,0.2c-0.2,0.1-0.3,0.3-0.4,0.4c0,0.1-0.1,0.1-0.1,0.1c0,0-0.1,0-0.1,0h-0.1
	c-0.1,0-0.1,0-0.1-0.1c0,0-0.1-0.1-0.1-0.1c0-0.1,0.1-0.3,0.2-0.4c0.1-0.2,0.3-0.3,0.5-0.5c0.2-0.1,0.5-0.2,0.9-0.2
	c0.6,0,1.1,0.1,1.3,0.4c0.3,0.3,0.4,0.7,0.4,1.1v2.9c0,0.1,0,0.1-0.1,0.1c0,0-0.1,0.1-0.1,0.1h-0.1c-0.1,0-0.1,0-0.1-0.1
	c0,0-0.1-0.1-0.1-0.1V-19c-0.1,0.2-0.3,0.4-0.6,0.5C139.3-18.4,139-18.3,138.6-18.3z M138.6-18.8c0.4,0,0.8-0.1,1.1-0.4
	c0.3-0.3,0.4-0.7,0.4-1.2v-0.3l-1.1,0.2c-0.5,0.1-0.8,0.2-1.1,0.3c-0.2,0.2-0.4,0.4-0.4,0.6c0,0.3,0.1,0.5,0.3,0.6
	C138.1-18.9,138.3-18.8,138.6-18.8z M143.9-18.4c-0.2,0-0.3-0.1-0.3-0.2l-1.6-4.1l0-0.1c0,0,0-0.1,0.1-0.1c0,0,0.1-0.1,0.1-0.1h0.2
	c0.1,0,0.1,0,0.1,0c0,0,0.1,0.1,0.1,0.1l1.5,3.8l1.5-3.8c0,0,0-0.1,0.1-0.1c0,0,0.1,0,0.1,0h0.2c0,0,0.1,0,0.1,0.1
	c0,0,0.1,0.1,0.1,0.1l0,0.1l-1.6,4.1c-0.1,0.1-0.2,0.2-0.3,0.2H143.9z M149-16.5c-0.5,0-0.8-0.1-1.1-0.2c-0.3-0.2-0.5-0.3-0.6-0.5
	c-0.1-0.2-0.2-0.4-0.2-0.5c0-0.1,0-0.1,0.1-0.1c0,0,0.1-0.1,0.1-0.1h0.1c0.1,0,0.1,0,0.1,0c0,0,0.1,0.1,0.1,0.1
	c0.2,0.5,0.6,0.8,1.3,0.8c0.5,0,0.9-0.1,1.1-0.3c0.2-0.2,0.4-0.6,0.4-1.1V-19c-0.3,0.5-0.8,0.7-1.5,0.7c-0.6,0-1.1-0.2-1.4-0.6
	c-0.3-0.4-0.5-0.9-0.5-1.5l0-0.2l0-0.2c0-0.6,0.2-1.1,0.5-1.5c0.3-0.4,0.8-0.6,1.4-0.6c0.6,0,1.1,0.2,1.5,0.7v-0.4
	c0-0.1,0-0.1,0.1-0.1c0,0,0.1-0.1,0.1-0.1h0.1c0.1,0,0.1,0,0.1,0.1c0,0,0.1,0.1,0.1,0.1v4.3c0,0.6-0.1,1.1-0.4,1.5
	C150.2-16.7,149.7-16.5,149-16.5z M149-18.8c0.5,0,0.8-0.2,1-0.5c0.2-0.3,0.4-0.7,0.4-1.1c0-0.1,0-0.2,0-0.3c0-0.2,0-0.3,0-0.3
	c0-0.4-0.1-0.8-0.4-1.1c-0.2-0.3-0.6-0.5-1-0.5c-0.5,0-0.8,0.2-1,0.5c-0.2,0.3-0.3,0.7-0.4,1.2l0,0.2l0,0.2c0,0.5,0.1,0.9,0.4,1.2
	C148.2-19,148.5-18.8,149-18.8z"/>
<circle class="st3" cx="162" cy="-21.9" r="3.1"/>
<path class="st3" d="M161.5-23.7v2.2h2.2"/>
<path class="st5" d="M168.8-18.4c-0.1,0-0.1,0-0.1-0.1c0,0-0.1-0.1-0.1-0.1v-5.2l-1.6,1.2c0,0-0.1,0-0.1,0c-0.1,0-0.1,0-0.1-0.1
	l-0.1-0.1c0,0,0-0.1,0-0.1c0-0.1,0-0.1,0.1-0.1l1.9-1.4c0.1,0,0.1-0.1,0.2-0.1h0.2c0.1,0,0.1,0,0.1,0.1c0,0,0.1,0.1,0.1,0.1v5.8
	c0,0.1,0,0.1-0.1,0.1c0,0-0.1,0.1-0.1,0.1H168.8z M171.1-18.4c-0.1,0-0.1,0-0.1-0.1c0,0-0.1-0.1-0.1-0.1V-19c0-0.1,0-0.1,0.1-0.1
	c0,0,0.1-0.1,0.1-0.1h0.4c0.1,0,0.1,0,0.1,0.1c0,0,0.1,0.1,0.1,0.1v0.4c0,0.1,0,0.1-0.1,0.1c0,0-0.1,0.1-0.1,0.1H171.1z M175.3-18.3
	c-0.7,0-1.3-0.2-1.6-0.7c-0.3-0.4-0.5-1-0.5-1.8l0-0.7l0-0.7c0-0.7,0.2-1.3,0.5-1.8c0.3-0.4,0.9-0.7,1.6-0.7c0.7,0,1.3,0.2,1.6,0.7
	c0.3,0.4,0.5,1,0.5,1.8c0,0.2,0,0.4,0,0.7c0,0.3,0,0.6,0,0.7c0,0.7-0.2,1.3-0.5,1.8C176.5-18.6,176-18.3,175.3-18.3z M175.3-18.9
	c0.5,0,0.9-0.2,1.1-0.5c0.3-0.3,0.4-0.8,0.4-1.4c0-0.2,0-0.4,0-0.7c0-0.3,0-0.5,0-0.7c0-0.6-0.1-1.1-0.4-1.4
	c-0.3-0.3-0.6-0.5-1.1-0.5s-0.9,0.2-1.1,0.5c-0.3,0.3-0.4,0.8-0.4,1.4l0,0.7l0,0.7c0,0.6,0.1,1.1,0.4,1.4
	C174.4-19,174.8-18.9,175.3-18.9z M180.5-18.3c-0.4,0-0.7-0.1-1-0.2c-0.3-0.1-0.5-0.3-0.6-0.4c-0.1-0.2-0.2-0.3-0.2-0.4
	c0-0.1,0-0.1,0.1-0.1c0,0,0.1-0.1,0.1-0.1h0.1c0,0,0.1,0,0.1,0c0,0,0.1,0,0.1,0.1c0.1,0.2,0.3,0.3,0.5,0.4c0.2,0.1,0.4,0.1,0.8,0.1
	c0.4,0,0.7-0.1,0.9-0.2c0.2-0.1,0.3-0.3,0.3-0.6c0-0.2,0-0.3-0.1-0.4c-0.1-0.1-0.2-0.2-0.4-0.3c-0.2-0.1-0.5-0.2-0.9-0.3
	c-0.5-0.1-0.9-0.3-1.1-0.5c-0.2-0.2-0.3-0.5-0.3-0.8c0-0.2,0.1-0.4,0.2-0.6c0.1-0.2,0.3-0.4,0.5-0.5c0.2-0.1,0.5-0.2,0.9-0.2
	c0.3,0,0.6,0.1,0.9,0.2c0.2,0.1,0.4,0.3,0.5,0.4c0.1,0.2,0.2,0.3,0.2,0.4c0,0.1,0,0.1-0.1,0.1c0,0-0.1,0-0.1,0h-0.1
	c-0.1,0-0.1,0-0.2-0.1c-0.1-0.2-0.3-0.3-0.4-0.4c-0.1-0.1-0.4-0.1-0.7-0.1c-0.3,0-0.6,0.1-0.8,0.2c-0.2,0.1-0.3,0.3-0.3,0.6
	c0,0.1,0,0.3,0.1,0.4c0.1,0.1,0.2,0.2,0.4,0.3c0.2,0.1,0.5,0.2,0.8,0.2c0.5,0.1,0.9,0.3,1.1,0.5c0.2,0.2,0.3,0.5,0.3,0.8
	c0,0.2-0.1,0.5-0.2,0.7c-0.1,0.2-0.3,0.4-0.6,0.5C181.2-18.4,180.9-18.3,180.5-18.3z"/>
<line class="st6" x1="0" y1="-12.6" x2="645.2" y2="-12.6"/>
<rect y="-12.3" class="st7" width="645.2" height="87.7"/>
<g>
	<defs>
		<rect id="SVGID_1_" width="645.2" height="63.1"/>
	</defs>
	<clipPath id="SVGID_2_">
		<use xlink:href="#SVGID_1_"  style="overflow:visible;"/>
	</clipPath>
	<g class="st8">
		<path class="st9" d="M-25.2,38.6c1,0,7.7,0,8.6,0c1.1,0,4-3.4,4.9-5.7c0.9-2.3,2.6-8.3,4.9-0.9c2.3,7.5,7.4,6.3,8.3,5.7
			c0.9-0.6,2-0.9,3.1,0c1.1,0.9,2-4,2-6.6c0-2.6,1.7-33.1,1.7-31c0,2,2.3,60.4,2.6,62.7c0.3,2.3,0.9-1.4,1.4-7.5
			c0.6-6,0.6-17.5,3.7-18.4c3.1-0.9,11.8,2,15.4-3.3c3.7-5.4,6-9.7,7.4-9.7c1.4,0,3.7,9.1,7.4,11.7c3.7,2.6,12.9,3,15.4,3"/>
		<path class="st10" d="M61.8,38.6c1,0,7.7,0,8.6,0c1.1,0,4-3.4,4.9-5.7c0.9-2.3,2.6-8.3,4.9-0.9c2.3,7.5,7.4,6.3,8.3,5.7
			c0.9-0.6,2-0.9,3.1,0c1.1,0.9,2-4,2-6.6c0-2.6,1.7-33.1,1.7-31c0,2,2.3,60.4,2.6,62.7c0.3,2.3,0.9-1.4,1.4-7.5
			c0.6-6,0.6-17.5,3.7-18.4c3.1-0.9,11.8,2,15.4-3.3c3.7-5.4,6-9.7,7.4-9.7c1.4,0,3.7,9.1,7.4,11.7c3.7,2.6,12.9,3,15.4,3"/>
		<path class="st10" d="M148.7,38.6c1,0,7.7,0,8.6,0c1.1,0,4-3.4,4.9-5.7s2.6-8.3,4.9-0.9c2.3,7.5,7.4,6.3,8.3,5.7
			c0.9-0.6,2-0.9,3.1,0c1.1,0.9,2-4,2-6.6c0-2.6,1.7-33.1,1.7-31c0,2,2.3,60.4,2.6,62.7c0.3,2.3,0.9-1.4,1.4-7.5
			c0.6-6,0.6-17.5,3.7-18.4c3.1-0.9,11.8,2,15.4-3.3c3.7-5.4,6-9.7,7.4-9.7c1.4,0,3.7,9.1,7.4,11.7c3.7,2.6,12.9,3,15.4,3"/>
		<path class="st10" d="M235.7,38.6c1,0,7.7,0,8.6,0c1.1,0,4-3.4,4.9-5.7s2.6-8.3,4.9-0.9c2.3,7.5,7.4,6.3,8.3,5.7
			c0.9-0.6,2-0.9,3.1,0c1.1,0.9,2-4,2-6.6c0-2.6,1.7-33.1,1.7-31c0,2,2.3,60.4,2.6,62.7c0.3,2.3,0.9-1.4,1.4-7.5
			c0.6-6,0.6-17.5,3.7-18.4c3.1-0.9,11.8,2,15.4-3.3c3.7-5.4,6-9.7,7.4-9.7s3.7,9.1,7.4,11.7c3.7,2.6,12.9,3,15.4,3"/>
		<path class="st10" d="M322.7,38.6c1,0,7.7,0,8.6,0c1.1,0,4-3.4,4.9-5.7c0.9-2.3,2.6-8.3,4.9-0.9c2.3,7.5,7.4,6.3,8.3,5.7
			c0.9-0.6,2-0.9,3.1,0c1.1,0.9,2-4,2-6.6c0-2.6,1.7-33.1,1.7-31c0,2,2.3,60.4,2.6,62.7c0.3,2.3,0.9-1.4,1.4-7.5
			c0.6-6,0.6-17.5,3.7-18.4c3.1-0.9,11.8,2,15.4-3.3c3.7-5.4,6-9.7,7.4-9.7c1.4,0,3.7,9.1,7.4,11.7c3.7,2.6,12.9,3,15.4,3"/>
		<path class="st10" d="M409.6,38.6c1,0,7.7,0,8.6,0c1.1,0,4-3.4,4.9-5.7s2.6-8.3,4.9-0.9c2.3,7.5,7.4,6.3,8.3,5.7
			c0.9-0.6,2-0.9,3.1,0c1.1,0.9,2-4,2-6.6c0-2.6,1.7-33.1,1.7-31c0,2,2.3,60.4,2.6,62.7c0.3,2.3,0.9-1.4,1.4-7.5
			c0.6-6,0.6-17.5,3.7-18.4c3.1-0.9,11.8,2,15.4-3.3c3.7-5.4,6-9.7,7.4-9.7c1.4,0,3.7,9.1,7.4,11.7c3.7,2.6,12.9,3,15.4,3"/>
		<path class="st10" d="M496.6,38.6c1,0,7.7,0,8.6,0c1.1,0,4-3.4,4.9-5.7c0.9-2.3,2.6-8.3,4.9-0.9c2.3,7.5,7.4,6.3,8.3,5.7
			c0.9-0.6,2-0.9,3.1,0c1.1,0.9,2-4,2-6.6c0-2.6,1.7-33.1,1.7-31c0,2,2.3,60.4,2.6,62.7c0.3,2.3,0.9-1.4,1.4-7.5
			c0.6-6,0.6-17.5,3.7-18.4c3.1-0.9,11.8,2,15.4-3.3c3.7-5.4,6-9.7,7.4-9.7s3.7,9.1,7.4,11.7c3.7,2.6,12.9,3,15.4,3"/>
		<path class="st10" d="M583.6,38.6c1,0,7.7,0,8.6,0c1.1,0,4-3.4,4.9-5.7c0.9-2.3,2.6-8.3,4.9-0.9c2.3,7.5,7.4,6.3,8.3,5.7
			c0.9-0.6,2-0.9,3.1,0c1.1,0.9,2-4,2-6.6c0-2.6,1.7-33.1,1.7-31c0,2,2.3,60.4,2.6,62.7c0.3,2.3,0.9-1.4,1.4-7.5
			c0.6-6,0.6-17.5,3.7-18.4c3.1-0.9,11.8,2,15.4-3.3c3.7-5.4,6-9.7,7.4-9.7c1.4,0,3.7,9.1,7.4,11.7c3.7,2.6,12.9,3,15.4,3"/>
	</g>
</g>
<path class="st11" d="M632.9,70.5c-0.4,0-0.8-0.1-1.1-0.2c-0.3-0.1-0.6-0.3-0.8-0.6c-0.2-0.3-0.3-0.6-0.3-1c0-0.4,0.1-0.7,0.3-0.9
	s0.4-0.5,0.7-0.6c-0.2-0.1-0.4-0.3-0.6-0.5c-0.1-0.2-0.2-0.5-0.2-0.8c0-0.5,0.2-0.9,0.6-1.2c0.4-0.3,0.8-0.4,1.4-0.4s1,0.1,1.4,0.4
	c0.4,0.3,0.6,0.7,0.6,1.2c0,0.3-0.1,0.6-0.2,0.8c-0.1,0.2-0.3,0.4-0.6,0.5c0.3,0.1,0.6,0.4,0.7,0.6c0.2,0.3,0.3,0.6,0.3,0.9
	c0,0.4-0.1,0.7-0.3,1c-0.2,0.3-0.5,0.5-0.8,0.6C633.7,70.4,633.3,70.5,632.9,70.5z M632.9,66.8c0.4,0,0.7-0.1,1-0.3
	c0.3-0.2,0.4-0.4,0.4-0.8c0-0.3-0.1-0.6-0.4-0.8c-0.3-0.2-0.6-0.3-1-0.3s-0.7,0.1-1,0.3c-0.3,0.2-0.4,0.5-0.4,0.8
	c0,0.3,0.1,0.6,0.4,0.8C632.2,66.7,632.5,66.8,632.9,66.8z M632.9,69.9c0.5,0,0.8-0.1,1.2-0.4c0.3-0.2,0.5-0.5,0.5-0.9
	c0-0.4-0.2-0.7-0.5-0.9c-0.3-0.2-0.7-0.4-1.2-0.4c-0.5,0-0.9,0.1-1.2,0.4c-0.3,0.2-0.5,0.5-0.5,0.9c0,0.4,0.2,0.7,0.5,0.9
	C632.1,69.8,632.5,69.9,632.9,69.9z M638.2,70.5c-0.4,0-0.7-0.1-1-0.2c-0.3-0.1-0.5-0.3-0.6-0.4c-0.1-0.2-0.2-0.3-0.2-0.4
	c0-0.1,0-0.1,0.1-0.1c0,0,0.1-0.1,0.1-0.1h0.1c0,0,0.1,0,0.1,0c0,0,0.1,0,0.1,0.1c0.1,0.2,0.3,0.3,0.5,0.4c0.2,0.1,0.4,0.1,0.8,0.1
	c0.4,0,0.7-0.1,0.9-0.2c0.2-0.1,0.3-0.3,0.3-0.6c0-0.2,0-0.3-0.1-0.4c-0.1-0.1-0.2-0.2-0.4-0.3c-0.2-0.1-0.5-0.2-0.9-0.3
	c-0.5-0.1-0.9-0.3-1.1-0.5c-0.2-0.2-0.3-0.5-0.3-0.8c0-0.2,0.1-0.4,0.2-0.6c0.1-0.2,0.3-0.4,0.5-0.5c0.2-0.1,0.5-0.2,0.9-0.2
	c0.3,0,0.6,0.1,0.9,0.2c0.2,0.1,0.4,0.3,0.5,0.4c0.1,0.2,0.2,0.3,0.2,0.4c0,0.1,0,0.1-0.1,0.1c0,0-0.1,0-0.1,0h-0.1
	c-0.1,0-0.1,0-0.2-0.1c-0.1-0.2-0.3-0.3-0.4-0.4c-0.1-0.1-0.4-0.1-0.7-0.1c-0.3,0-0.6,0.1-0.8,0.2c-0.2,0.1-0.3,0.3-0.3,0.6
	c0,0.1,0,0.3,0.1,0.4c0.1,0.1,0.2,0.2,0.4,0.3c0.2,0.1,0.5,0.2,0.8,0.2c0.5,0.1,0.9,0.3,1.1,0.5c0.2,0.2,0.3,0.5,0.3,0.8
	c0,0.2-0.1,0.5-0.2,0.7c-0.1,0.2-0.3,0.4-0.6,0.5C638.9,70.4,638.6,70.5,638.2,70.5z"/>
<path class="st11" d="M5,70.4c-0.1,0-0.1,0-0.1-0.1c0,0-0.1-0.1-0.1-0.1V70c0-0.1,0.1-0.2,0.2-0.4l2.3-2.3c0.3-0.3,0.5-0.6,0.6-0.8
	c0.1-0.2,0.2-0.4,0.2-0.7c0-0.4-0.1-0.7-0.3-0.9c-0.2-0.2-0.5-0.3-1-0.3c-0.4,0-0.7,0.1-0.9,0.3c-0.2,0.2-0.4,0.5-0.4,0.9
	c0,0.1,0,0.1-0.1,0.1c0,0-0.1,0.1-0.1,0.1H5.1c-0.1,0-0.1,0-0.1,0c0,0,0-0.1,0-0.1c0-0.3,0.1-0.6,0.2-0.9c0.1-0.3,0.4-0.5,0.6-0.7
	c0.3-0.2,0.6-0.3,1.1-0.3c0.6,0,1.1,0.2,1.4,0.5c0.3,0.3,0.5,0.8,0.5,1.3c0,0.4-0.1,0.7-0.2,0.9c-0.2,0.3-0.4,0.6-0.7,0.9l-2.1,2.1
	h2.9c0.1,0,0.1,0,0.1,0.1c0,0,0.1,0.1,0.1,0.1v0.1c0,0.1,0,0.1-0.1,0.1c0,0-0.1,0.1-0.1,0.1H5z M12.1,70.5c-0.4,0-0.8-0.1-1.1-0.2
	c-0.3-0.2-0.5-0.4-0.7-0.6c-0.2-0.2-0.2-0.5-0.3-0.8v0c0,0,0-0.1,0-0.1c0,0,0.1,0,0.1,0h0.2c0.1,0,0.1,0,0.1,0c0,0,0.1,0.1,0.1,0.2
	c0.1,0.4,0.3,0.6,0.5,0.8c0.3,0.2,0.6,0.3,0.9,0.3c0.5,0,0.8-0.1,1.1-0.4c0.3-0.3,0.4-0.6,0.4-1.1c0-0.3-0.1-0.5-0.2-0.8
	c-0.1-0.2-0.3-0.4-0.6-0.5C12.7,67,12.4,67,12.1,67c-0.2,0-0.4,0-0.6,0.1c-0.1,0.1-0.3,0.1-0.4,0.2c-0.1,0.1-0.2,0.1-0.2,0.1
	c-0.1,0-0.1,0-0.2,0h-0.2c-0.1,0-0.1,0-0.1-0.1c0,0-0.1-0.1-0.1-0.1l0.3-2.9c0-0.1,0-0.1,0.1-0.1c0,0,0.1-0.1,0.1-0.1h2.9
	c0.1,0,0.1,0,0.1,0.1s0.1,0.1,0.1,0.1v0.1c0,0.1,0,0.1-0.1,0.1c0,0-0.1,0.1-0.1,0.1h-2.5l-0.2,2c0.3-0.2,0.7-0.3,1.1-0.3
	c0.4,0,0.8,0.1,1.1,0.2c0.3,0.2,0.6,0.4,0.8,0.7c0.2,0.3,0.3,0.6,0.3,1.1c0,0.4-0.1,0.8-0.3,1.1c-0.2,0.3-0.4,0.5-0.8,0.7
	C12.9,70.4,12.5,70.5,12.1,70.5z M18.7,70.4c-0.1,0-0.1,0-0.1-0.1c0,0-0.1-0.1-0.1-0.1V66c0-0.1,0-0.1,0.1-0.1c0,0,0.1-0.1,0.1-0.1
	h0.1c0.1,0,0.1,0,0.1,0.1c0,0,0.1,0.1,0.1,0.1v0.3c0.2-0.2,0.3-0.3,0.5-0.4c0.2-0.1,0.4-0.1,0.7-0.1c0.7,0,1.1,0.3,1.4,0.8
	c0.1-0.3,0.3-0.4,0.6-0.6c0.3-0.2,0.6-0.2,0.9-0.2c0.5,0,0.9,0.2,1.2,0.5c0.3,0.3,0.5,0.8,0.5,1.4v2.6c0,0.1,0,0.1-0.1,0.1
	c0,0-0.1,0.1-0.1,0.1h-0.1c-0.1,0-0.1,0-0.1-0.1c0,0-0.1-0.1-0.1-0.1v-2.5c0-0.5-0.1-0.9-0.3-1.1c-0.2-0.2-0.5-0.3-0.9-0.3
	c-0.3,0-0.6,0.1-0.8,0.4c-0.2,0.2-0.3,0.6-0.3,1.1v2.5c0,0.1,0,0.1-0.1,0.1c0,0-0.1,0.1-0.1,0.1h-0.1c-0.1,0-0.1,0-0.1-0.1
	c0,0-0.1-0.1-0.1-0.1v-2.5c0-0.5-0.1-0.9-0.3-1.1c-0.2-0.2-0.5-0.4-0.9-0.4c-0.3,0-0.6,0.1-0.8,0.4c-0.2,0.2-0.3,0.6-0.3,1.1v2.5
	c0,0.1,0,0.1-0.1,0.1c0,0-0.1,0.1-0.1,0.1H18.7z M26.7,70.4c-0.1,0-0.1,0-0.1-0.1c0,0-0.1-0.1-0.1-0.1V66c0-0.1,0-0.1,0.1-0.1
	c0,0,0.1-0.1,0.1-0.1h0.1c0.1,0,0.1,0,0.1,0.1c0,0,0.1,0.1,0.1,0.1v0.3c0.2-0.2,0.3-0.3,0.5-0.4c0.2-0.1,0.4-0.1,0.7-0.1
	c0.7,0,1.1,0.3,1.4,0.8c0.1-0.3,0.3-0.4,0.6-0.6c0.3-0.2,0.6-0.2,0.9-0.2c0.5,0,0.9,0.2,1.2,0.5c0.3,0.3,0.5,0.8,0.5,1.4v2.6
	c0,0.1,0,0.1-0.1,0.1c0,0-0.1,0.1-0.1,0.1h-0.1c-0.1,0-0.1,0-0.1-0.1c0,0-0.1-0.1-0.1-0.1v-2.5c0-0.5-0.1-0.9-0.3-1.1
	c-0.2-0.2-0.5-0.3-0.9-0.3c-0.3,0-0.6,0.1-0.8,0.4c-0.2,0.2-0.3,0.6-0.3,1.1v2.5c0,0.1,0,0.1-0.1,0.1c0,0-0.1,0.1-0.1,0.1h-0.1
	c-0.1,0-0.1,0-0.1-0.1c0,0-0.1-0.1-0.1-0.1v-2.5c0-0.5-0.1-0.9-0.3-1.1c-0.2-0.2-0.5-0.4-0.9-0.4c-0.3,0-0.6,0.1-0.8,0.4
	c-0.2,0.2-0.3,0.6-0.3,1.1v2.5c0,0.1,0,0.1-0.1,0.1c0,0-0.1,0.1-0.1,0.1H26.7z M34.3,71.1c0,0-0.1,0-0.1-0.1c0,0-0.1-0.1-0.1-0.1
	c0,0,0-0.1,0-0.1l3-7.2c0,0,0-0.1,0.1-0.1c0,0,0.1,0,0.1,0h0.1c0,0,0.1,0,0.1,0.1c0,0,0.1,0.1,0.1,0.1c0,0,0,0.1,0,0.1l-3,7.2
	c0,0,0,0.1-0.1,0.1c0,0-0.1,0-0.1,0H34.3z M40.2,70.5c-0.4,0-0.7-0.1-1-0.2c-0.3-0.1-0.5-0.3-0.6-0.4c-0.1-0.2-0.2-0.3-0.2-0.4
	c0-0.1,0-0.1,0.1-0.1c0,0,0.1-0.1,0.1-0.1h0.1c0,0,0.1,0,0.1,0c0,0,0.1,0,0.1,0.1c0.1,0.2,0.3,0.3,0.5,0.4c0.2,0.1,0.4,0.1,0.8,0.1
	c0.4,0,0.7-0.1,0.9-0.2c0.2-0.1,0.3-0.3,0.3-0.6c0-0.2,0-0.3-0.1-0.4c-0.1-0.1-0.2-0.2-0.4-0.3c-0.2-0.1-0.5-0.2-0.9-0.3
	c-0.5-0.1-0.9-0.3-1.1-0.5c-0.2-0.2-0.3-0.5-0.3-0.8c0-0.2,0.1-0.4,0.2-0.6c0.1-0.2,0.3-0.4,0.5-0.5c0.2-0.1,0.5-0.2,0.9-0.2
	c0.4,0,0.6,0.1,0.9,0.2c0.2,0.1,0.4,0.3,0.5,0.4c0.1,0.2,0.2,0.3,0.2,0.4c0,0.1,0,0.1-0.1,0.1c0,0-0.1,0-0.1,0h-0.1
	c-0.1,0-0.1,0-0.2-0.1c-0.1-0.2-0.3-0.3-0.4-0.4c-0.1-0.1-0.4-0.1-0.7-0.1c-0.3,0-0.6,0.1-0.8,0.2c-0.2,0.1-0.3,0.3-0.3,0.6
	c0,0.1,0,0.3,0.1,0.4c0.1,0.1,0.2,0.2,0.4,0.3c0.2,0.1,0.5,0.2,0.8,0.2c0.5,0.1,0.9,0.3,1.1,0.5c0.2,0.2,0.3,0.5,0.3,0.8
	c0,0.2-0.1,0.5-0.2,0.7c-0.1,0.2-0.3,0.4-0.6,0.5C40.8,70.4,40.5,70.5,40.2,70.5z M45.1,70.5c-0.6,0-1-0.2-1.3-0.5
	c-0.3-0.4-0.5-0.9-0.6-1.5l0-0.4l0-0.4c0-0.6,0.2-1.1,0.6-1.5c0.3-0.4,0.8-0.6,1.4-0.6c0.6,0,1.1,0.2,1.4,0.6c0.3,0.4,0.5,1,0.5,1.7
	v0.1c0,0.1,0,0.1-0.1,0.1c0,0-0.1,0.1-0.1,0.1h-3.1v0.1c0,0.3,0.1,0.5,0.2,0.8c0.1,0.2,0.3,0.4,0.5,0.6c0.2,0.1,0.4,0.2,0.7,0.2
	c0.3,0,0.6-0.1,0.8-0.2c0.2-0.1,0.4-0.3,0.4-0.4c0.1-0.1,0.1-0.1,0.1-0.1c0,0,0.1,0,0.1,0h0.1c0.1,0,0.1,0,0.1,0
	c0,0,0.1,0.1,0.1,0.1c0,0.1-0.1,0.3-0.2,0.4c-0.2,0.2-0.4,0.3-0.6,0.4C45.8,70.4,45.5,70.5,45.1,70.5z M46.5,67.8L46.5,67.8
	c0-0.5-0.1-0.9-0.4-1.1c-0.3-0.3-0.6-0.4-1-0.4s-0.8,0.1-1,0.4c-0.2,0.3-0.4,0.7-0.4,1.1v0H46.5z M50.3,70.5c-0.6,0-1.1-0.2-1.4-0.5
	c-0.3-0.4-0.5-0.9-0.5-1.5l0-0.4l0-0.4c0-0.6,0.2-1.1,0.5-1.5c0.3-0.4,0.8-0.5,1.4-0.5c0.4,0,0.7,0.1,1,0.2c0.3,0.1,0.5,0.3,0.6,0.5
	c0.1,0.2,0.2,0.4,0.2,0.7c0,0.1,0,0.1-0.1,0.1c0,0-0.1,0.1-0.1,0.1h-0.1c-0.1,0-0.1,0-0.1,0c0,0,0-0.1-0.1-0.1
	c-0.1-0.3-0.3-0.5-0.5-0.7c-0.2-0.1-0.5-0.2-0.8-0.2c-0.4,0-0.8,0.1-1,0.4c-0.2,0.3-0.4,0.6-0.4,1.2l0,0.3l0,0.3
	c0,0.5,0.1,0.9,0.4,1.2c0.3,0.3,0.6,0.4,1,0.4c0.3,0,0.6-0.1,0.8-0.2c0.2-0.1,0.4-0.4,0.5-0.7c0-0.1,0.1-0.1,0.1-0.1
	c0,0,0.1,0,0.1,0h0.1c0.1,0,0.1,0,0.1,0.1c0,0,0.1,0.1,0.1,0.1c0,0.2-0.1,0.4-0.2,0.7c-0.1,0.2-0.3,0.4-0.6,0.5
	C51,70.4,50.7,70.5,50.3,70.5z M57.3,68.6c-0.2,0-0.4-0.1-0.6-0.3c-0.2-0.2-0.3-0.4-0.3-0.6c0-0.2,0.1-0.4,0.3-0.6
	c0.2-0.2,0.4-0.3,0.6-0.3c0.2,0,0.4,0.1,0.6,0.3c0.2,0.2,0.3,0.4,0.3,0.6c0,0.2-0.1,0.4-0.3,0.6C57.7,68.5,57.5,68.6,57.3,68.6z
	 M62.7,70.4c-0.1,0-0.1,0-0.1-0.1c0,0-0.1-0.1-0.1-0.1V70c0-0.1,0.1-0.2,0.2-0.4l2.3-2.3c0.3-0.3,0.5-0.6,0.6-0.8
	c0.1-0.2,0.2-0.4,0.2-0.7c0-0.4-0.1-0.7-0.3-0.9c-0.2-0.2-0.5-0.3-1-0.3c-0.4,0-0.7,0.1-0.9,0.3c-0.2,0.2-0.4,0.5-0.4,0.9
	c0,0.1,0,0.1-0.1,0.1c0,0-0.1,0.1-0.1,0.1h-0.2c-0.1,0-0.1,0-0.1,0c0,0,0-0.1,0-0.1c0-0.3,1.8-1,1.9-1.3c0.1-0.3-1.3-0.1-1.1-0.2
	c0.3-0.2,0.6-0.3,1.1-0.3c0.6,0,1.1,0.2,1.4,0.5c0.3,0.3,0.5,0.8,0.5,1.3c0,0.4-0.1,0.7-0.2,0.9c-0.2,0.3-0.4,0.6-0.7,0.9l-2.1,2.1
	h2.9c0.1,0,0.1,0,0.1,0.1c0,0,0.1,0.1,0.1,0.1v0.1c0,0.1,0,0.1-0.1,0.1c0,0-0.1,0.1-0.1,0.1H62.7z M70,70.5c-0.7,0-1.3-0.2-1.6-0.7
	c-0.3-0.4-0.5-1-0.5-1.8l0-0.7l0-0.7c0-0.7,0.2-1.3,0.5-1.8c0.3-0.4,0.9-0.7,1.6-0.7c0.7,0,1.3,0.2,1.6,0.7c0.3,0.4,0.5,1,0.5,1.8
	c0,0.2,0,0.4,0,0.7c0,0.3,0,0.6,0,0.7c0,0.7-0.2,1.3-0.5,1.8C71.3,70.2,70.8,70.5,70,70.5z M70,69.9c0.5,0,0.9-0.2,1.1-0.5
	c0.3-0.3,0.4-0.8,0.4-1.4c0-0.2,0-0.4,0-0.7c0-0.3,0-0.5,0-0.7c0-0.6-0.1-1.1-0.4-1.4c-0.3-0.3-0.6-0.5-1.1-0.5
	c-0.5,0-0.9,0.2-1.1,0.5c-0.3,0.3-0.4,0.8-0.4,1.4l0,0.7l0,0.7c0,0.6,0.1,1.1,0.4,1.4C69.1,69.8,69.5,69.9,70,69.9z M74,70.4
	c-0.1,0-0.1,0-0.1-0.1c0,0-0.1-0.1-0.1-0.1V66c0-0.1,0-0.1,0.1-0.1c0,0,0.1-0.1,0.1-0.1h0.1c0.1,0,0.1,0,0.1,0.1
	c0,0,0.1,0.1,0.1,0.1v0.3c0.2-0.2,0.3-0.3,0.5-0.4c0.2-0.1,0.4-0.1,0.7-0.1c0.7,0,1.1,0.3,1.4,0.8c0.1-0.3,0.3-0.4,0.6-0.6
	c0.3-0.2,0.6-0.2,0.9-0.2c0.5,0,0.9,0.2,1.2,0.5c0.3,0.3,0.5,0.8,0.5,1.4v2.6c0,0.1,0,0.1-0.1,0.1c0,0-0.1,0.1-0.1,0.1h-0.1
	c-0.1,0-0.1,0-0.1-0.1c0,0-0.1-0.1-0.1-0.1v-2.5c0-0.5-0.1-0.9-0.3-1.1c-0.2-0.2-0.5-0.3-0.9-0.3c-0.3,0-0.6,0.1-0.8,0.4
	c-0.2,0.2-0.3,0.6-0.3,1.1v2.5c0,0.1,0,0.1-0.1,0.1c0,0-0.1,0.1-0.1,0.1h-0.1c-0.1,0-0.1,0-0.1-0.1c0,0-0.1-0.1-0.1-0.1v-2.5
	c0-0.5-0.1-0.9-0.3-1.1c-0.2-0.2-0.5-0.4-0.9-0.4c-0.3,0-0.6,0.1-0.8,0.4c-0.2,0.2-0.3,0.6-0.3,1.1v2.5c0,0.1,0,0.1-0.1,0.1
	c0,0-0.1,0.1-0.1,0.1H74z M82.1,70.4c-0.1,0-0.1,0-0.1-0.1c0,0-0.1-0.1-0.1-0.1V66c0-0.1,0-0.1,0.1-0.1s0.1-0.1,0.1-0.1h0.1
	c0.1,0,0.1,0,0.1,0.1c0,0,0.1,0.1,0.1,0.1v0.3c0.2-0.2,0.3-0.3,0.5-0.4c0.2-0.1,0.4-0.1,0.7-0.1c0.7,0,1.1,0.3,1.4,0.8
	c0.1-0.3,0.3-0.4,0.6-0.6c0.3-0.2,0.6-0.2,0.9-0.2c0.5,0,0.9,0.2,1.2,0.5c0.3,0.3,0.5,0.8,0.5,1.4v2.6c0,0.1,0,0.1-0.1,0.1
	c0,0-0.1,0.1-0.1,0.1h-0.1c-0.1,0-0.1,0-0.1-0.1c0,0-0.1-0.1-0.1-0.1v-2.5c0-0.5-0.1-0.9-0.3-1.1c-0.2-0.2-0.5-0.3-0.9-0.3
	c-0.3,0-0.6,0.1-0.8,0.4c-0.2,0.2-0.3,0.6-0.3,1.1v2.5c0,0.1,0,0.1-0.1,0.1c0,0-0.1,0.1-0.1,0.1H85c-0.1,0-0.1,0-0.1-0.1
	c0,0-0.1-0.1-0.1-0.1v-2.5c0-0.5-0.1-0.9-0.3-1.1c-0.2-0.2-0.5-0.4-0.9-0.4c-0.3,0-0.6,0.1-0.8,0.4c-0.2,0.2-0.3,0.6-0.3,1.1v2.5
	c0,0.1,0,0.1-0.1,0.1c0,0-0.1,0.1-0.1,0.1H82.1z M89.7,71.1c0,0-0.1,0-0.1-0.1c0,0-0.1-0.1-0.1-0.1c0,0,0-0.1,0-0.1l3-7.2
	c0,0,0-0.1,0.1-0.1c0,0,0.1,0,0.1,0h0.1c0,0,0.1,0,0.1,0.1c0,0,0.1,0.1,0.1,0.1c0,0,0,0.1,0,0.1l-3,7.2c0,0,0,0.1-0.1,0.1
	c0,0-0.1,0-0.1,0H89.7z M94.3,70.4c-0.1,0-0.1,0-0.1-0.1c0,0-0.1-0.1-0.1-0.1V66c0-0.1,0-0.1,0.1-0.1c0,0,0.1-0.1,0.1-0.1h0.1
	c0.1,0,0.1,0,0.1,0.1c0,0,0.1,0.1,0.1,0.1v0.3c0.2-0.2,0.3-0.3,0.5-0.4c0.2-0.1,0.4-0.1,0.7-0.1c0.7,0,1.1,0.3,1.4,0.8
	c0.1-0.3,0.3-0.4,0.6-0.6c0.3-0.2,0.6-0.2,0.9-0.2c0.5,0,0.9,0.2,1.2,0.5c0.3,0.3,0.5,0.8,0.5,1.4v2.6c0,0.1,0,0.1-0.1,0.1
	c0,0-0.1,0.1-0.1,0.1h-0.1c-0.1,0-0.1,0-0.1-0.1c0,0-0.1-0.1-0.1-0.1v-2.5c0-0.5-0.1-0.9-0.3-1.1c-0.2-0.2-0.5-0.3-0.9-0.3
	c-0.3,0-0.6,0.1-0.8,0.4c-0.2,0.2-0.3,0.6-0.3,1.1v2.5c0,0.1,0,0.1-0.1,0.1c0,0-0.1,0.1-0.1,0.1h-0.1c-0.1,0-0.1,0-0.1-0.1
	c0,0-0.1-0.1-0.1-0.1v-2.5c0-0.5-0.1-0.9-0.3-1.1c-0.2-0.2-0.5-0.4-0.9-0.4c-0.3,0-0.6,0.1-0.8,0.4c-0.2,0.2-0.3,0.6-0.3,1.1v2.5
	c0,0.1,0,0.1-0.1,0.1c0,0-0.1,0.1-0.1,0.1H94.3z M103.8,70.4c-0.1,0-0.2-0.1-0.3-0.2l-2-5.7l0-0.1c0,0,0-0.1,0.1-0.1
	c0,0,0.1-0.1,0.1-0.1h0.2c0.1,0,0.1,0,0.1,0c0,0,0.1,0.1,0.1,0.1l1.9,5.4l1.9-5.4c0,0,0-0.1,0.1-0.1c0,0,0.1,0,0.1,0h0.2
	c0,0,0.1,0,0.1,0.1c0,0,0.1,0.1,0.1,0.1l0,0.1l-2,5.7c-0.1,0.1-0.2,0.2-0.3,0.2H103.8z"/>
<path class="st0" d="M0.9,75.7h643.5c0.8,0,1.5,0.7,1.5,1.5V107c0,0.8-0.7,1.5-1.5,1.5H0.9c-0.8,0-1.5-0.7-1.5-1.5V77.1
	C-0.6,76.3,0.1,75.7,0.9,75.7z"/>
<path class="st11" d="M627,102c-0.4,0-0.8-0.1-1.1-0.2c-0.3-0.1-0.5-0.3-0.7-0.6c-0.2-0.2-0.3-0.5-0.3-0.7c0-0.1,0-0.1,0.1-0.1
	c0,0,0.1,0,0.1,0h0.1c0.1,0,0.1,0,0.1,0c0,0,0.1,0.1,0.1,0.2c0.1,0.3,0.3,0.6,0.6,0.7c0.3,0.1,0.6,0.2,1,0.2c0.5,0,0.8-0.1,1.1-0.3
	c0.3-0.2,0.4-0.5,0.4-1c0-0.8-0.5-1.2-1.5-1.2h-0.8c-0.1,0-0.1,0-0.1-0.1c0,0-0.1-0.1-0.1-0.1v-0.1c0-0.1,0-0.1,0.1-0.2l1.8-2.1
	h-2.6c-0.1,0-0.1,0-0.1-0.1c0,0-0.1-0.1-0.1-0.1V96c0-0.1,0-0.1,0.1-0.1c0,0,0.1-0.1,0.1-0.1h3.3c0.1,0,0.1,0,0.1,0.1
	c0,0,0.1,0.1,0.1,0.1v0.1c0,0.1,0,0.1-0.1,0.2l-1.9,2.2h0.2c0.6,0,1.1,0.1,1.5,0.4c0.4,0.3,0.5,0.7,0.5,1.3c0,0.4-0.1,0.7-0.3,1
	c-0.2,0.3-0.4,0.5-0.7,0.6C627.8,101.9,627.4,102,627,102z M632.7,102c-0.7,0-1.3-0.2-1.6-0.7c-0.3-0.4-0.5-1-0.5-1.8l0-0.7l0-0.7
	c0-0.7,0.2-1.3,0.5-1.8c0.3-0.4,0.9-0.7,1.6-0.7c0.7,0,1.3,0.2,1.6,0.7c0.3,0.4,0.5,1,0.5,1.8c0,0.2,0,0.4,0,0.7c0,0.3,0,0.6,0,0.7
	c0,0.7-0.2,1.3-0.5,1.8C633.9,101.8,633.4,102,632.7,102z M632.7,101.5c0.5,0,0.9-0.2,1.1-0.5c0.3-0.3,0.4-0.8,0.4-1.4
	c0-0.2,0-0.4,0-0.7c0-0.3,0-0.5,0-0.7c0-0.6-0.1-1.1-0.4-1.4c-0.3-0.3-0.6-0.5-1.1-0.5c-0.5,0-0.9,0.2-1.1,0.5
	c-0.3,0.3-0.4,0.8-0.4,1.4l0,0.7l0,0.7c0,0.6,0.1,1.1,0.4,1.4C631.8,101.3,632.2,101.5,632.7,101.5z M637.9,102
	c-0.4,0-0.7-0.1-1-0.2c-0.3-0.1-0.5-0.3-0.6-0.4c-0.1-0.2-0.2-0.3-0.2-0.4c0-0.1,0-0.1,0.1-0.1c0,0,0.1-0.1,0.1-0.1h0.1
	c0,0,0.1,0,0.1,0c0,0,0.1,0,0.1,0.1c0.1,0.2,0.3,0.3,0.5,0.4c0.2,0.1,0.4,0.1,0.8,0.1c0.4,0,0.7-0.1,0.9-0.2
	c0.2-0.1,0.3-0.3,0.3-0.6c0-0.2,0-0.3-0.1-0.4c-0.1-0.1-0.2-0.2-0.4-0.3c-0.2-0.1-0.5-0.2-0.9-0.3c-0.5-0.1-0.9-0.3-1.1-0.5
	c-0.2-0.2-0.3-0.5-0.3-0.8c0-0.2,0.1-0.4,0.2-0.6c0.1-0.2,0.3-0.4,0.5-0.5c0.2-0.1,0.5-0.2,0.9-0.2c0.4,0,0.6,0.1,0.9,0.2
	c0.2,0.1,0.4,0.3,0.5,0.4c0.1,0.2,0.2,0.3,0.2,0.4c0,0.1,0,0.1-0.1,0.1c0,0-0.1,0-0.1,0h-0.1c-0.1,0-0.1,0-0.2-0.1
	c-0.1-0.2-0.3-0.3-0.4-0.4c-0.1-0.1-0.4-0.1-0.7-0.1c-0.3,0-0.6,0.1-0.8,0.2c-0.2,0.1-0.3,0.3-0.3,0.6c0,0.1,0,0.3,0.1,0.4
	c0.1,0.1,0.2,0.2,0.4,0.3c0.2,0.1,0.5,0.2,0.8,0.2c0.5,0.1,0.9,0.3,1.1,0.5c0.2,0.2,0.3,0.5,0.3,0.8c0,0.2-0.1,0.5-0.2,0.7
	c-0.1,0.2-0.3,0.4-0.6,0.5C638.6,102,638.3,102,637.9,102z"/>
<rect x="242" y="77.1" class="st12" width="162.2" height="29.8"/>
<g>
	<defs>
		<rect id="SVGID_3_" y="84.2" width="645.2" height="15.8"/>
	</defs>
	<clipPath id="SVGID_4_">
		<use xlink:href="#SVGID_3_"  style="overflow:visible;"/>
	</clipPath>
	<g class="st13">
		<path class="st14" d="M-5.3,93.8c0.3,0,1.9,0,2.2,0c0.3,0,1-0.9,1.2-1.4c0.2-0.6,0.6-2.1,1.2-0.2c0.6,1.9,1.9,1.6,2.1,1.4
			s0.5-0.2,0.8,0c0.3,0.2,0.5-1,0.5-1.6c0-0.6,0.4-8.2,0.4-7.7c0,0.5,0.6,15,0.6,15.6c0.1,0.6,0.2-0.4,0.4-1.9
			c0.1-1.5,0.1-4.4,0.9-4.6c0.8-0.2,3,0.5,3.9-0.8c0.9-1.3,1.5-2.4,1.9-2.4s0.9,2.3,1.9,2.9c0.9,0.6,3.2,0.7,3.9,0.7"/>
		<path class="st14" d="M16.7,93.8c0.3,0,1.9,0,2.2,0c0.3,0,1-0.9,1.2-1.4c0.2-0.6,0.6-2.1,1.2-0.2c0.6,1.9,1.9,1.6,2.1,1.4
			c0.2-0.1,0.5-0.2,0.8,0c0.3,0.2,0.5-1,0.5-1.6c0-0.6,0.4-8.2,0.4-7.7c0,0.5,0.6,15,0.6,15.6c0.1,0.6,0.2-0.4,0.4-1.9
			c0.1-1.5,0.1-4.4,0.9-4.6c0.8-0.2,3,0.5,3.9-0.8c0.9-1.3,1.5-2.4,1.9-2.4c0.4,0,0.9,2.3,1.9,2.9c0.9,0.6,3.2,0.7,3.9,0.7"/>
		<path class="st14" d="M38.6,93.8c0.3,0,1.9,0,2.2,0c0.3,0,1-0.9,1.2-1.4c0.2-0.6,0.6-2.1,1.2-0.2c0.6,1.9,1.9,1.6,2.1,1.4
			s0.5-0.2,0.8,0c0.3,0.2,0.5-1,0.5-1.6c0-0.6,0.4-8.2,0.4-7.7c0,0.5,0.6,15,0.6,15.6c0.1,0.6,0.2-0.4,0.4-1.9
			c0.1-1.5,0.1-4.4,0.9-4.6c0.8-0.2,3,0.5,3.9-0.8c0.9-1.3,1.5-2.4,1.9-2.4c0.4,0,0.9,2.3,1.9,2.9c0.9,0.6,3.2,0.7,3.9,0.7"/>
		<path class="st14" d="M60.5,93.8c0.3,0,1.9,0,2.2,0c0.3,0,1-0.9,1.2-1.4c0.2-0.6,0.6-2.1,1.2-0.2c0.6,1.9,1.9,1.6,2.1,1.4
			c0.2-0.1,0.5-0.2,0.8,0c0.3,0.2,0.5-1,0.5-1.6c0-0.6,0.4-8.2,0.4-7.7c0,0.5,0.6,15,0.6,15.6c0.1,0.6,0.2-0.4,0.4-1.9
			c0.1-1.5,0.1-4.4,0.9-4.6c0.8-0.2,3,0.5,3.9-0.8c0.9-1.3,1.5-2.4,1.9-2.4c0.4,0,0.9,2.3,1.9,2.9c0.9,0.6,3.2,0.7,3.9,0.7"/>
		<path class="st14" d="M82.4,93.8c0.3,0,1.9,0,2.2,0c0.3,0,1-0.9,1.2-1.4c0.2-0.6,0.6-2.1,1.2-0.2c0.6,1.9,1.9,1.6,2.1,1.4
			s0.5-0.2,0.8,0c0.3,0.2,0.5-1,0.5-1.6c0-0.6,0.4-8.2,0.4-7.7c0,0.5,0.6,15,0.6,15.6c0.1,0.6,0.2-0.4,0.4-1.9
			c0.1-1.5,0.1-4.4,0.9-4.6c0.8-0.2,3,0.5,3.9-0.8c0.9-1.3,1.5-2.4,1.9-2.4c0.4,0,0.9,2.3,1.9,2.9c0.9,0.6,3.2,0.7,3.9,0.7"/>
		<path class="st14" d="M104.3,93.8c0.3,0,1.9,0,2.2,0c0.3,0,1-0.9,1.2-1.4c0.2-0.6,0.6-2.1,1.2-0.2c0.6,1.9,1.9,1.6,2.1,1.4
			c0.2-0.1,0.5-0.2,0.8,0c0.3,0.2,0.5-1,0.5-1.6c0-0.6,0.4-8.2,0.4-7.7c0,0.5,0.6,15,0.6,15.6c0.1,0.6,0.2-0.4,0.4-1.9
			c0.1-1.5,0.1-4.4,0.9-4.6c0.8-0.2,3,0.5,3.9-0.8c0.9-1.3,1.5-2.4,1.9-2.4c0.4,0,0.9,2.3,1.9,2.9c0.9,0.6,3.2,0.7,3.9,0.7"/>
		<path class="st14" d="M126.2,93.8c0.3,0,1.9,0,2.2,0c0.3,0,1-0.9,1.2-1.4c0.2-0.6,0.6-2.1,1.2-0.2c0.6,1.9,1.9,1.6,2.1,1.4
			c0.2-0.1,0.5-0.2,0.8,0c0.3,0.2,0.5-1,0.5-1.6c0-0.6,0.4-8.2,0.4-7.7c0,0.5,0.6,15,0.6,15.6c0.1,0.6,0.2-0.4,0.4-1.9
			c0.1-1.5,0.1-4.4,0.9-4.6c0.8-0.2,3,0.5,3.9-0.8c0.9-1.3,1.5-2.4,1.9-2.4c0.4,0,0.9,2.3,1.9,2.9c0.9,0.6,3.2,0.7,3.9,0.7"/>
		<path class="st14" d="M148.2,93.8c0.3,0,1.9,0,2.2,0c0.3,0,1-0.9,1.2-1.4c0.2-0.6,0.6-2.1,1.2-0.2c0.6,1.9,1.9,1.6,2.1,1.4
			c0.2-0.1,0.5-0.2,0.8,0c0.3,0.2,0.5-1,0.5-1.6c0-0.6,0.4-8.2,0.4-7.7c0,0.5,0.6,15,0.6,15.6c0.1,0.6,0.2-0.4,0.4-1.9
			c0.1-1.5,0.1-4.4,0.9-4.6c0.8-0.2,3,0.5,3.9-0.8c0.9-1.3,1.5-2.4,1.9-2.4c0.4,0,0.9,2.3,1.9,2.9c0.9,0.6,3.2,0.7,3.9,0.7"/>
		<path class="st14" d="M170.1,93.8c0.3,0,1.9,0,2.2,0c0.3,0,1-0.9,1.2-1.4c0.2-0.6,0.6-2.1,1.2-0.2c0.6,1.9,1.9,1.6,2.1,1.4
			c0.2-0.1,0.5-0.2,0.8,0c0.3,0.2,0.5-1,0.5-1.6c0-0.6,0.4-8.2,0.4-7.7c0,0.5,0.6,15,0.6,15.6c0.1,0.6,0.2-0.4,0.4-1.9
			c0.1-1.5,0.1-4.4,0.9-4.6c0.8-0.2,3,0.5,3.9-0.8c0.9-1.3,1.5-2.4,1.9-2.4c0.4,0,0.9,2.3,1.9,2.9c0.9,0.6,3.2,0.7,3.9,0.7"/>
		<path class="st14" d="M192,93.8c0.3,0,1.9,0,2.2,0c0.3,0,1-0.9,1.2-1.4c0.2-0.6,0.6-2.1,1.2-0.2c0.6,1.9,1.9,1.6,2.1,1.4
			c0.2-0.1,0.5-0.2,0.8,0c0.3,0.2,0.5-1,0.5-1.6c0-0.6,0.4-8.2,0.4-7.7c0,0.5,0.6,15,0.6,15.6c0.1,0.6,0.2-0.4,0.4-1.9
			c0.1-1.5,0.1-4.4,0.9-4.6c0.8-0.2,3,0.5,3.9-0.8c0.9-1.3,1.5-2.4,1.9-2.4c0.4,0,0.9,2.3,1.9,2.9c0.9,0.6,3.2,0.7,3.9,0.7"/>
		<path class="st14" d="M213.9,93.8c0.3,0,1.9,0,2.2,0c0.3,0,1-0.9,1.2-1.4c0.2-0.6,0.6-2.1,1.2-0.2c0.6,1.9,1.9,1.6,2.1,1.4
			c0.2-0.1,0.5-0.2,0.8,0c0.3,0.2,0.5-1,0.5-1.6c0-0.6,0.4-8.2,0.4-7.7c0,0.5,0.6,15,0.6,15.6c0.1,0.6,0.2-0.4,0.4-1.9
			c0.1-1.5,0.1-4.4,0.9-4.6c0.8-0.2,3,0.5,3.9-0.8c0.9-1.3,1.5-2.4,1.9-2.4c0.4,0,0.9,2.3,1.9,2.9c0.9,0.6,3.2,0.7,3.9,0.7"/>
		<path class="st14" d="M235.8,93.8c0.3,0,1.9,0,2.2,0c0.3,0,1-0.9,1.2-1.4c0.2-0.6,0.6-2.1,1.2-0.2c0.6,1.9,1.9,1.6,2.1,1.4
			c0.2-0.1,0.5-0.2,0.8,0c0.3,0.2,0.5-1,0.5-1.6c0-0.6,0.4-8.2,0.4-7.7c0,0.5,0.6,15,0.6,15.6c0.1,0.6,0.2-0.4,0.4-1.9
			c0.1-1.5,0.1-4.4,0.9-4.6c0.8-0.2,3,0.5,3.9-0.8c0.9-1.3,1.5-2.4,1.9-2.4c0.4,0,0.9,2.3,1.9,2.9c0.9,0.6,3.2,0.7,3.9,0.7"/>
		<path class="st14" d="M257.7,93.8c0.3,0,1.9,0,2.2,0c0.3,0,1-0.9,1.2-1.4c0.2-0.6,0.6-2.1,1.2-0.2c0.6,1.9,1.9,1.6,2.1,1.4
			c0.2-0.1,0.5-0.2,0.8,0c0.3,0.2,0.5-1,0.5-1.6c0-0.6,0.4-8.2,0.4-7.7c0,0.5,0.6,15,0.6,15.6c0.1,0.6,0.2-0.4,0.4-1.9
			c0.1-1.5,0.1-4.4,0.9-4.6c0.8-0.2,3,0.5,3.9-0.8c0.9-1.3,1.5-2.4,1.9-2.4c0.4,0,0.9,2.3,1.9,2.9c0.9,0.6,3.2,0.7,3.9,0.7"/>
		<path class="st14" d="M279.7,93.8c0.3,0,1.9,0,2.2,0c0.3,0,1-0.9,1.2-1.4c0.2-0.6,0.6-2.1,1.2-0.2c0.6,1.9,1.9,1.6,2.1,1.4
			c0.2-0.1,0.5-0.2,0.8,0c0.3,0.2,0.5-1,0.5-1.6c0-0.6,0.4-8.2,0.4-7.7c0,0.5,0.6,15,0.6,15.6c0.1,0.6,0.2-0.4,0.4-1.9
			c0.1-1.5,0.1-4.4,0.9-4.6c0.8-0.2,3,0.5,3.9-0.8c0.9-1.3,1.5-2.4,1.9-2.4c0.4,0,0.9,2.3,1.9,2.9c0.9,0.6,3.2,0.7,3.9,0.7"/>
		<path class="st14" d="M301.6,93.8c0.3,0,1.9,0,2.2,0c0.3,0,1-0.9,1.2-1.4c0.2-0.6,0.6-2.1,1.2-0.2c0.6,1.9,1.9,1.6,2.1,1.4
			c0.2-0.1,0.5-0.2,0.8,0c0.3,0.2,0.5-1,0.5-1.6c0-0.6,0.4-8.2,0.4-7.7c0,0.5,0.6,15,0.6,15.6c0.1,0.6,0.2-0.4,0.4-1.9
			c0.1-1.5,0.1-4.4,0.9-4.6c0.8-0.2,3,0.5,3.9-0.8c0.9-1.3,1.5-2.4,1.9-2.4c0.4,0,0.9,2.3,1.9,2.9c0.9,0.6,3.2,0.7,3.9,0.7"/>
		<path class="st14" d="M323.5,93.8c0.3,0,1.9,0,2.2,0c0.3,0,1-0.9,1.2-1.4c0.2-0.6,0.6-2.1,1.2-0.2c0.6,1.9,1.9,1.6,2.1,1.4
			c0.2-0.1,0.5-0.2,0.8,0c0.3,0.2,0.5-1,0.5-1.6c0-0.6,0.4-8.2,0.4-7.7c0,0.5,0.6,15,0.6,15.6c0.1,0.6,0.2-0.4,0.4-1.9
			c0.1-1.5,0.1-4.4,0.9-4.6c0.8-0.2,3,0.5,3.9-0.8c0.9-1.3,1.5-2.4,1.9-2.4c0.4,0,0.9,2.3,1.9,2.9c0.9,0.6,3.2,0.7,3.9,0.7"/>
		<path class="st14" d="M345.4,93.8c0.3,0,1.9,0,2.2,0c0.3,0,1-0.9,1.2-1.4c0.2-0.6,0.6-2.1,1.2-0.2c0.6,1.9,1.9,1.6,2.1,1.4
			c0.2-0.1,0.5-0.2,0.8,0c0.3,0.2,0.5-1,0.5-1.6c0-0.6,0.4-8.2,0.4-7.7c0,0.5,0.6,15,0.6,15.6c0.1,0.6,0.2-0.4,0.4-1.9
			c0.1-1.5,0.1-4.4,0.9-4.6c0.8-0.2,3,0.5,3.9-0.8c0.9-1.3,1.5-2.4,1.9-2.4c0.4,0,0.9,2.3,1.9,2.9c0.9,0.6,3.2,0.7,3.9,0.7"/>
		<path class="st14" d="M367.3,93.8c0.3,0,1.9,0,2.2,0c0.3,0,1-0.9,1.2-1.4c0.2-0.6,0.6-2.1,1.2-0.2c0.6,1.9,1.9,1.6,2.1,1.4
			c0.2-0.1,0.5-0.2,0.8,0c0.3,0.2,0.5-1,0.5-1.6c0-0.6,0.4-8.2,0.4-7.7c0,0.5,0.6,15,0.6,15.6c0.1,0.6,0.2-0.4,0.4-1.9
			c0.1-1.5,0.1-4.4,0.9-4.6c0.8-0.2,3,0.5,3.9-0.8c0.9-1.3,1.5-2.4,1.9-2.4c0.4,0,0.9,2.3,1.9,2.9c0.9,0.6,3.2,0.7,3.9,0.7"/>
		<path class="st14" d="M389.3,93.8c0.3,0,1.9,0,2.2,0c0.3,0,1-0.9,1.2-1.4c0.2-0.6,0.6-2.1,1.2-0.2c0.6,1.9,1.9,1.6,2.1,1.4
			c0.2-0.1,0.5-0.2,0.8,0c0.3,0.2,0.5-1,0.5-1.6c0-0.6,0.4-8.2,0.4-7.7c0,0.5,0.6,15,0.6,15.6c0.1,0.6,0.2-0.4,0.4-1.9
			c0.1-1.5,0.1-4.4,0.9-4.6c0.8-0.2,3,0.5,3.9-0.8c0.9-1.3,1.5-2.4,1.9-2.4c0.4,0,0.9,2.3,1.9,2.9c0.9,0.6,3.2,0.7,3.9,0.7"/>
		<path class="st14" d="M411.2,93.8c0.3,0,1.9,0,2.2,0c0.3,0,1-0.9,1.2-1.4c0.2-0.6,0.6-2.1,1.2-0.2c0.6,1.9,1.9,1.6,2.1,1.4
			c0.2-0.1,0.5-0.2,0.8,0c0.3,0.2,0.5-1,0.5-1.6c0-0.6,0.4-8.2,0.4-7.7c0,0.5,0.6,15,0.6,15.6c0.1,0.6,0.2-0.4,0.4-1.9
			c0.1-1.5,0.1-4.4,0.9-4.6c0.8-0.2,3,0.5,3.9-0.8c0.9-1.3,1.5-2.4,1.9-2.4c0.4,0,0.9,2.3,1.9,2.9c0.9,0.6,3.2,0.7,3.9,0.7"/>
		<path class="st14" d="M433.1,93.8c0.3,0,1.9,0,2.2,0c0.3,0,1-0.9,1.2-1.4c0.2-0.6,0.6-2.1,1.2-0.2c0.6,1.9,1.9,1.6,2.1,1.4
			c0.2-0.1,0.5-0.2,0.8,0c0.3,0.2,0.5-1,0.5-1.6c0-0.6,0.4-8.2,0.4-7.7c0,0.5,0.6,15,0.6,15.6c0.1,0.6,0.2-0.4,0.4-1.9
			c0.1-1.5,0.1-4.4,0.9-4.6c0.8-0.2,3,0.5,3.9-0.8c0.9-1.3,1.5-2.4,1.9-2.4c0.4,0,0.9,2.3,1.9,2.9c0.9,0.6,3.2,0.7,3.9,0.7"/>
		<path class="st14" d="M455,93.8c0.3,0,1.9,0,2.2,0c0.3,0,1-0.9,1.2-1.4c0.2-0.6,0.6-2.1,1.2-0.2c0.6,1.9,1.9,1.6,2.1,1.4
			c0.2-0.1,0.5-0.2,0.8,0c0.3,0.2,0.5-1,0.5-1.6c0-0.6,0.4-8.2,0.4-7.7c0,0.5,0.6,15,0.6,15.6c0.1,0.6,0.2-0.4,0.4-1.9
			c0.1-1.5,0.1-4.4,0.9-4.6c0.8-0.2,3,0.5,3.9-0.8c0.9-1.3,1.5-2.4,1.9-2.4c0.4,0,0.9,2.3,1.9,2.9c0.9,0.6,3.2,0.7,3.9,0.7"/>
		<path class="st14" d="M476.9,93.8c0.3,0,1.9,0,2.2,0c0.3,0,1-0.9,1.2-1.4c0.2-0.6,0.6-2.1,1.2-0.2c0.6,1.9,1.9,1.6,2.1,1.4
			c0.2-0.1,0.5-0.2,0.8,0c0.3,0.2,0.5-1,0.5-1.6c0-0.6,0.4-8.2,0.4-7.7c0,0.5,0.6,15,0.6,15.6c0.1,0.6,0.2-0.4,0.4-1.9
			c0.1-1.5,0.1-4.4,0.9-4.6c0.8-0.2,3,0.5,3.9-0.8c0.9-1.3,1.5-2.4,1.9-2.4c0.4,0,0.9,2.3,1.9,2.9c0.9,0.6,3.2,0.7,3.9,0.7"/>
		<path class="st14" d="M498.8,93.8c0.3,0,1.9,0,2.2,0c0.3,0,1-0.9,1.2-1.4c0.2-0.6,0.6-2.1,1.2-0.2c0.6,1.9,1.9,1.6,2.1,1.4
			c0.2-0.1,0.5-0.2,0.8,0c0.3,0.2,0.5-1,0.5-1.6c0-0.6,0.4-8.2,0.4-7.7c0,0.5,0.6,15,0.6,15.6c0.1,0.6,0.2-0.4,0.4-1.9
			c0.1-1.5,0.1-4.4,0.9-4.6c0.8-0.2,3,0.5,3.9-0.8c0.9-1.3,1.5-2.4,1.9-2.4c0.4,0,0.9,2.3,1.9,2.9c0.9,0.6,3.2,0.7,3.9,0.7"/>
		<path class="st14" d="M520.8,93.8c0.3,0,1.9,0,2.2,0c0.3,0,1-0.9,1.2-1.4c0.2-0.6,0.6-2.1,1.2-0.2c0.6,1.9,1.9,1.6,2.1,1.4
			s0.5-0.2,0.8,0c0.3,0.2,0.5-1,0.5-1.6c0-0.6,0.4-8.2,0.4-7.7c0,0.5,0.6,15,0.6,15.6c0.1,0.6,0.2-0.4,0.4-1.9
			c0.1-1.5,0.1-4.4,0.9-4.6c0.8-0.2,3,0.5,3.9-0.8c0.9-1.3,1.5-2.4,1.9-2.4c0.4,0,0.9,2.3,1.9,2.9c0.9,0.6,3.2,0.7,3.9,0.7"/>
		<path class="st14" d="M542.7,93.8c0.3,0,1.9,0,2.2,0c0.3,0,1-0.9,1.2-1.4c0.2-0.6,0.6-2.1,1.2-0.2c0.6,1.9,1.9,1.6,2.1,1.4
			s0.5-0.2,0.8,0c0.3,0.2,0.5-1,0.5-1.6c0-0.6,0.4-8.2,0.4-7.7c0,0.5,0.6,15,0.6,15.6c0.1,0.6,0.2-0.4,0.4-1.9
			c0.1-1.5,0.1-4.4,0.9-4.6c0.8-0.2,3,0.5,3.9-0.8c0.9-1.3,1.5-2.4,1.9-2.4c0.4,0,0.9,2.3,1.9,2.9c0.9,0.6,3.2,0.7,3.9,0.7"/>
		<path class="st14" d="M564.6,93.8c0.3,0,1.9,0,2.2,0c0.3,0,1-0.9,1.2-1.4c0.2-0.6,0.6-2.1,1.2-0.2c0.6,1.9,1.9,1.6,2.1,1.4
			s0.5-0.2,0.8,0c0.3,0.2,0.5-1,0.5-1.6c0-0.6,0.4-8.2,0.4-7.7c0,0.5,0.6,15,0.6,15.6c0.1,0.6,0.2-0.4,0.4-1.9
			c0.1-1.5,0.1-4.4,0.9-4.6c0.8-0.2,3,0.5,3.9-0.8c0.9-1.3,1.5-2.4,1.9-2.4c0.4,0,0.9,2.3,1.9,2.9c0.9,0.6,3.2,0.7,3.9,0.7"/>
		<path class="st14" d="M586.5,93.8c0.3,0,1.9,0,2.2,0c0.3,0,1-0.9,1.2-1.4c0.2-0.6,0.6-2.1,1.2-0.2c0.6,1.9,1.9,1.6,2.1,1.4
			s0.5-0.2,0.8,0c0.3,0.2,0.5-1,0.5-1.6c0-0.6,0.4-8.2,0.4-7.7c0,0.5,0.6,15,0.6,15.6c0.1,0.6,0.2-0.4,0.4-1.9
			c0.1-1.5,0.1-4.4,0.9-4.6c0.8-0.2,3,0.5,3.9-0.8c0.9-1.3,1.5-2.4,1.9-2.4c0.4,0,0.9,2.3,1.9,2.9c0.9,0.6,3.2,0.7,3.9,0.7"/>
		<path class="st14" d="M608.4,93.8c0.3,0,1.9,0,2.2,0c0.3,0,1-0.9,1.2-1.4c0.2-0.6,0.6-2.1,1.2-0.2c0.6,1.9,1.9,1.6,2.1,1.4
			s0.5-0.2,0.8,0c0.3,0.2,0.5-1,0.5-1.6c0-0.6,0.4-8.2,0.4-7.7c0,0.5,0.6,15,0.6,15.6c0.1,0.6,0.2-0.4,0.4-1.9
			c0.1-1.5,0.1-4.4,0.9-4.6c0.8-0.2,3,0.5,3.9-0.8c0.9-1.3,1.5-2.4,1.9-2.4c0.4,0,0.9,2.3,1.9,2.9c0.9,0.6,3.2,0.7,3.9,0.7"/>
		<path class="st14" d="M630.3,93.8c0.3,0,1.9,0,2.2,0c0.3,0,1-0.9,1.2-1.4c0.2-0.6,0.6-2.1,1.2-0.2c0.6,1.9,1.9,1.6,2.1,1.4
			s0.5-0.2,0.8,0c0.3,0.2,0.5-1,0.5-1.6c0-0.6,0.4-8.2,0.4-7.7c0,0.5,0.6,15,0.6,15.6c0.1,0.6,0.2-0.4,0.4-1.9
			c0.1-1.5,0.1-4.4,0.9-4.6c0.8-0.2,3,0.5,3.9-0.8c0.9-1.3,1.5-2.4,1.9-2.4s0.9,2.3,1.9,2.9c0.9,0.6,3.2,0.7,3.9,0.7"/>
	</g>
</g>
</svg>
